ply
format ascii 1.0
element vertex 680
property float x
property float y
property float z
end_header
0.201120004057884216 -0.0246660001575946808 0.0220550000667572021
0.184312000870704651 -0.0517229996621608734 0.0153959998860955238
0.166446998715400696 -0.0581899993121623993 0.0103639997541904449
0.139021992683410645 -0.00107700005173683167 0.00109699997119605541
0.221438005566596985 -0.0356869995594024658 0.024796999990940094
0.198777005076408386 -0.0380709990859031677 0.0209420006722211838
0.207501992583274841 -0.0639450028538703918 0.00682700006291270256
0.146339505910873413 -0.0178079996258020401 -0.00969300046563148499
0.181510001420974731 -0.0776460021734237671 0.00215799990110099316
0.250048011541366577 -0.0447570011019706726 0.00312900007702410221
0.205093502998352051 0.0146220000460743904 -0.00085299997590482235
0.177897006273269653 -0.0732109993696212769 0.00609999988228082657
0.167077004909515381 0.022607000544667244 -0.0491820015013217926
0.137556999921798706 -0.038176998496055603 -0.0243590008467435837
0.192118003964424133 -0.01501499954611063 0.0200469996780157089
0.196713998913764954 0.00514600006863474846 0.0141650000587105751
0.154842004179954529 -0.0670119971036911011 0.00637200009077787399
0.143922999501228333 -0.00531399995088577271 0.00403899978846311569
0.14678800106048584 -0.0314630009233951569 -0.0262809991836547852
0.188361003994941711 -0.0846209973096847534 -0.0111050000414252281
0.175344005227088928 0.0116020003333687782 0.0198730006814002991
0.213119998574256897 -0.018674999475479126 0.0262240003794431686
0.188896000385284424 0.0296539999544620514 0.00732100009918212891
0.18572700023651123 -0.0345490016043186188 0.0184339992702007294
0.200547501444816589 -0.066868998110294342 0.00642149988561868668
0.208923995494842529 -0.0144910002127289772 0.0238869991153478622
0.225918993353843689 -0.0135500002652406693 0.0305519998073577881
0.190396994352340698 -0.0473389998078346252 0.0174860004335641861
0.184958994388580322 -0.0287619996815919876 0.0192290004342794418
0.187541499733924866 -0.051125500351190567 0.0160629991441965103
0.152364671230316162 -0.0126276668161153793 0.00794666633009910583
0.13816949725151062 -0.0407225005328655243 -0.0154424998909235001
0.177588999271392822 -0.0336499996483325958 0.0155490003526210785
0.218182504177093506 0.0167340002954006195 -0.00780799984931945801
0.179903000593185425 -0.0734950006008148193 0.0057100001722574234
0.152100995182991028 -0.0624260008335113525 0.00586199993267655373
0.237702995538711548 -0.0110689997673034668 0.0340140014886856079
0.160254999995231628 -0.0149250002577900887 0.012985999695956707
0.145061999559402466 -0.0329319983720779419 -0.0309800002723932266
0.189498007297515869 -0.0765459984540939331 0.000455000001238659024
0.189427003264427185 0.0375499986112117767 -0.0283729992806911469
0.140463992953300476 0.0030179999303072691 0.00668299989774823189
0.214592993259429932 0.0146564999595284462 -0.000994000001810491085
0.143182992935180664 0.00288500008173286915 0.00927499961107969284
0.190721005201339722 0.0259240008890628815 0.00802799966186285019
0.232870995998382568 -0.0349159985780715942 0.0250000003725290298
0.139854997396469116 -0.00878299959003925323 -0.0169380009174346924
0.141286000609397888 -0.0102939996868371964 -0.0199420005083084106
0.250183999538421631 -0.0325350016355514526 0.0234999991953372955
0.237406998872756958 -0.0488889999687671661 0.00962099991738796234
0.139318004250526428 -0.0427340008318424225 -0.0107810003682971001
0.191253006458282471 0.0344280004501342773 -0.000211999999010004103
0.207510992884635925 -0.00442400015890598297 0.0191060006618499756
0.207173004746437073 -7.50000035623088479e-05 0.0156560000032186508
0.191440001130104065 -0.0376319997012615204 0.0193140003830194473
0.20278400182723999 -0.0674159973859786987 0.00497400015592575073
0.180041998624801636 -0.0714799985289573669 0.00698800012469291687
0.174738004803657532 -0.0270380005240440369 0.016317000612616539
0.13640749454498291 -0.046358499675989151 -0.00989099964499473572
0.161525994539260864 -0.00678300019353628159 0.0165660008788108826
0.146914005279541016 -0.0660569965839385986 0.00412900000810623169
0.188109993934631348 -0.0101770004257559776 0.0201249998062849045
0.149677500128746033 -0.0295310001820325851 -0.0270444992929697037
0.21052849292755127 0.00334850000217556953 0.0157514996826648712
0.163313999772071838 -0.0316499993205070496 0.00580399995669722557
0.244192004203796387 -0.0465399995446205139 0.00759200006723403931
0.214589998126029968 0.0127330003306269646 0.00724299997091293335
0.235146000981330872 -0.0101589998230338097 0.033477000892162323
0.19254399836063385 -0.0839779973030090332 -0.0161559991538524628
0.174536004662513733 0.0213190000504255295 0.0186919998377561569
0.212402001023292542 0.0136080002412199974 -0.00500999996438622475
0.184733003377914429 -0.0879940018057823181 -0.0145500004291534424
0.194991007447242737 -0.0633850023150444031 0.010626000352203846
0.24492800235748291 -0.0371229983866214752 0.0207550004124641418
0.199925005435943604 -0.0429304987192153931 0.0201405007392168045
0.23440299928188324 -0.033307000994682312 0.0258699990808963776
0.17449699342250824 -0.013585999608039856 0.019207000732421875
0.139749497175216675 -0.0367899984121322632 -0.0229429993778467178
0.183204993605613708 0.00572199979797005653 0.0191849991679191589
0.152621492743492126 -0.0646075010299682617 0.00597799988463521004
0.193261995911598206 -0.000333000003593042493 0.0174599997699260712
0.15674300491809845 -0.019509999081492424 0.00763700017705559731
0.203059002757072449 -0.0770040005445480347 -0.0135129997506737709
0.197926998138427734 0.0116785001009702682 0.0102775003761053085
0.259595990180969238 -0.0374585017561912537 0.00903050042688846588
0.17591799795627594 0.0232239998877048492 0.0179019998759031296
0.176245003938674927 -0.0928964987397193909 -0.0152505002915859222
0.212028995156288147 -0.0653930008411407471 0.00246699992567300797
0.148478999733924866 -0.0709140002727508545 0.00429750001057982445
0.199404001235961914 -0.038865998387336731 0.0209389999508857727
0.209340006113052368 -0.0701529979705810547 -0.00375799997709691525
0.167282000184059143 -0.0459440015256404877 0.0105020003393292427
0.175282001495361328 -0.0866589993238449097 -0.00476300017908215523
0.17988799512386322 -0.0821729972958564758 -0.00175599998328834772
0.191740497946739197 -0.0196094997227191925 0.0203204993158578873
0.152174994349479675 -0.0112779997289180756 0.00864899996668100357
0.189612999558448792 -0.0205300003290176392 0.020370999351143837
0.213704004883766174 -0.0448900014162063599 0.0203329995274543762
0.188951998949050903 -0.00460699992254376411 0.0194579996168613434
0.240278005599975586 -0.0407559983432292938 0.0186989996582269669
0.159152999520301819 -0.0662420019507408142 0.00749199977144598961
0.23716600239276886 -0.0311399996280670166 0.0269499998539686203
0.187924996018409729 -0.084068000316619873 -0.00953700020909309387
0.216214001178741455 -0.0290109999477863312 0.0262570008635520935
0.212705999612808228 0.0134960003197193146 -0.00226900004781782627
0.160938993096351624 -0.0671809986233711243 0.00768100004643201828
0.15116100013256073 -0.0261450000107288361 -0.0141009995713829994
0.179545998573303223 -0.048078000545501709 0.0148830004036426544
0.167722001671791077 -0.0721969977021217346 0.00687999976798892021
0.219228997826576233 -0.016790999099612236 0.0283209998160600662
0.145610496401786804 -0.017332000657916069 -0.0135270003229379654
0.215938001871109009 -0.0497159995138645172 0.0171840004622936249
0.202199995517730713 -0.0709680020809173584 0.000800999987404793501
0.164287999272346497 -0.0445654988288879395 0.00886400043964385986
0.190645992755889893 -0.0131280003115534782 0.0200679991394281387
0.196954995393753052 -0.0264010000973939896 0.0205949991941452026
0.164543002843856812 -0.0583340004086494446 0.00986399967223405838
0.178849995136260986 0.0109400004148483276 0.0193460006266832352
0.180742993950843811 0.0319809988141059875 -0.0419409982860088348
0.146888002753257751 -0.0324210003018379211 -0.0184439998120069504
0.204941004514694214 -0.0157479997724294662 0.0222040005028247833
0.162870004773139954 -0.0865390002727508545 -0.00102800002787262201
0.140180006623268127 -0.00828099995851516724 -0.0212639998644590378
0.208841994404792786 -0.0313000008463859558 0.024296000599861145
0.219787001609802246 0.00942900031805038452 0.0190500002354383469
0.180400997400283813 -0.0891240015625953674 -0.0119009995833039284
0.190825998783111572 0.0357760004699230194 -0.00121000001672655344
0.196657493710517883 -0.078313000500202179 -0.00701649999246001244
0.152379006147384644 -0.0200869999825954437 0.00174300000071525574
0.215909004211425781 0.0154990004375576973 6.6000000515487045e-05
0.16733899712562561 0.0150220002979040146 0.02036299929022789
0.159584000706672668 0.0137989996001124382 -0.0490849986672401428
0.24845750629901886 -0.0335649996995925903 0.0230615008622407913
0.189959332346916199 -0.0854270011186599731 -0.0158106666058301926
0.173228994011878967 -0.0574369989335536957 0.0120489997789263725
0.252505987882614136 -0.0364120006561279297 0.0179900005459785461
0.202298998832702637 0.0199950002133846283 -0.00266600004397332668
0.183542996644973755 0.0306930001825094223 0.0113740004599094391
0.183027997612953186 -0.0499700009822845459 0.0154750002548098564
0.245254993438720703 -0.0469370000064373016 0.00516900001093745232
0.188752993941307068 0.0343299992382526398 0.00373600004240870476
0.223168998956680298 0.0204039998352527618 0.00281199999153614044
0.208514004945755005 -0.0258900001645088196 0.0247130002826452255
0.208599001169204712 -0.0194099992513656616 0.0245379991829395294
0.184222996234893799 -0.0827820003032684326 -0.00457300012931227684
0.15634000301361084 -0.0327400006353855133 -0.00251900008879601955
0.161529004573822021 -0.0684579983353614807 0.00746800005435943604
0.162039995193481445 -0.00498799979686737061 0.0172659996896982193
0.208434000611305237 -0.055043000727891922 0.014520999975502491
0.152383506298065186 -0.0353185012936592102 -0.0047065000981092453
0.202711492776870728 -0.0127090001478791237 0.0199845004826784134
0.232742995023727417 -0.0249840002506971359 0.0297589991241693497
0.229608997702598572 -0.0226150006055831909 0.0300859995186328888
0.184411004185676575 0.00233000004664063454 0.0194150004535913467
0.240098997950553894 -0.0478219985961914062 0.00922400038689374924
0.250061988830566406 -0.0445169992744922638 0.00406200019642710686
0.225433006882667542 0.0220090001821517944 0.00310699990950524807
0.150967001914978027 -0.0233490001410245895 -0.00605699978768825531
0.169031992554664612 0.0208550002425909042 0.019867999479174614
0.15569700300693512 -0.00442800018936395645 0.0145389996469020844
0.155946001410484314 -0.0101220002397894859 0.0122929997742176056
0.209558501839637756 -0.0713239982724189758 -0.00693049980327486992
0.144172996282577515 -0.0376430004835128784 -0.0116539997979998589
0.18876899778842926 0.0205719992518424988 0.0125670004636049271
0.141758993268013 -0.0475419983267784119 -0.00397500023245811462
0.221800997853279114 -0.0398470014333724976 0.0227869991213083267
0.212938994169235229 -0.00364000000990927219 0.0224929992109537125
0.175353005528450012 0.0271125007420778275 0.0171705000102519989
0.142175003886222839 -0.0354509986937046051 -0.03497299924492836
0.192441999912261963 -0.0811019986867904663 -0.0082539999857544899
0.222693994641304016 -0.0633869990706443787 -0.00592799996957182884
0.261822998523712158 -0.0368079990148544312 0.00671100011095404625
0.160439997911453247 -0.0215819999575614929 0.00974899996072053909
0.161210000514984131 -0.0405410006642341614 0.00589299993589520454
0.19032500684261322 -0.00199300004169344902 0.0187369994819164276
0.188341006636619568 0.0325089991092681885 0.00578500004485249519
0.178324505686759949 -0.0936835035681724548 -0.0209550000727176666
0.201764002442359924 -0.0333230011165142059 0.0222779996693134308
0.225228995084762573 -0.0306390002369880676 0.0270440001040697098
0.188865005970001221 0.0152139998972415924 0.0146989999338984489
0.238218992948532104 -0.0362100005149841309 0.0234069991856813431
0.180597007274627686 0.0253320001065731049 0.0154020003974437714
0.175255000591278076 -0.0949549973011016846 -0.0191360004246234894
0.139820992946624756 -0.0392910018563270569 -0.0154410004615783691
0.228907003998756409 -0.0177740007638931274 0.0309870000928640366
0.206850007176399231 -0.0707139968872070312 -0.00230100005865097046
0.233366996049880981 -0.0127069996669888496 0.0327260009944438934
0.200945004820823669 0.0225029997527599335 -0.00351599999703466892
0.184165000915527344 0.024294000118970871 0.0138520002365112305
0.144868999719619751 -0.0328509993851184845 -0.024786999449133873
0.18930700421333313 -0.0564519986510276794 0.0145060000941157341
0.169643998146057129 -0.0860600024461746216 -0.00211500003933906555
0.188372999429702759 -0.0473090000450611115 0.0170760005712509155
0.165156006813049316 -0.0377990007400512695 0.00718999980017542839
0.170047998428344727 -0.0916580036282539368 -0.00829000025987625122
0.236322000622749329 -0.0502590015530586243 0.00819499976933002472
0.189958006143569946 0.00835900008678436279 0.0164299998432397842
0.22888299822807312 -0.0532599985599517822 0.00902600027620792389
0.160144999623298645 -0.043852001428604126 0.00649499986320734024
0.245826005935668945 -0.0475400015711784363 0.00214300001971423626
0.191986992955207825 -0.00295150000602006912 0.0184484999626874924
0.139055997133255005 -0.00466499989852309227 -0.0037380000576376915
0.229140996932983398 -0.0149800004437565804 0.0313879996538162231
0.23990100622177124 -0.0380979999899864197 0.0214339997619390488
0.185458004474639893 -0.065930001437664032 0.00991600006818771362
0.169636994600296021 -0.0199790000915527344 0.0161889996379613876
0.161770999431610107 0.0112169999629259109 0.0199289992451667786
0.167839005589485168 -0.0290200002491474152 0.0115839997306466103
0.180845007300376892 -0.0827570036053657532 -0.00277599995024502277
0.160809993743896484 0.0173450000584125519 0.0202500000596046448
0.166259005665779114 -0.0821129977703094482 0.00159400003030896187
0.160609006881713867 -0.017007000744342804 0.0122760003432631493
0.21103300154209137 -0.0164819993078708649 0.0251899994909763336
0.1799049973487854 -0.0874689966440200806 -0.00854900013655424118
0.167545005679130554 0.022762000560760498 0.0198919996619224548
0.15626099705696106 0.00579199986532330513 0.0178069993853569031
0.148459002375602722 -0.0508984997868537903 0.00228499993681907654
0.203169003129005432 0.0156750008463859558 0.00128399999812245369
0.243946999311447144 -0.034433998167514801 0.0235690008848905563
0.15216749906539917 -0.0395075008273124695 -0.00118250004015862942
0.143398001790046692 -0.0341759994626045227 -0.0224319994449615479
0.209463998675346375 -0.0586120001971721649 0.0114829996600747108
0.171845003962516785 0.00700799981132149696 0.020370999351143837
0.145653992891311646 -0.0407119989395141602 -0.00611399998888373375
0.175407007336616516 -0.0213629994541406631 0.0180270001292228699
0.154339507222175598 -0.0467789992690086365 0.00421700021252036095
0.199373006820678711 0.0214210003614425659 0.00106999999843537807
0.22145099937915802 -0.0635680034756660461 -0.0040440000593662262
0.235383003950119019 -0.0260099992156028748 0.029526999220252037
0.143809005618095398 -0.0346850007772445679 -0.0188679993152618408
0.19434000551700592 -0.0438680015504360199 0.0189529992640018463
0.190902993083000183 0.0306449998170137405 0.00423899991437792778
0.169687002897262573 -0.0537489987909793854 0.0116429999470710754
0.178887993097305298 -0.0682950019836425781 0.00888300035148859024
0.204242005944252014 -0.0284770000725984573 0.0233030002564191818
0.139687001705169678 -0.00859399978071451187 -0.0126970000565052032
0.169627994298934937 -0.0672070011496543884 0.00891700014472007751
0.244846999645233154 -0.0257050003856420517 0.0296279992908239365
0.256633013486862183 -0.032915998250246048 0.0202970001846551895
0.18417300283908844 0.0333359986543655396 -0.0386399999260902405
0.224567994475364685 -0.0274679996073246002 0.0280329994857311249
0.175702005624771118 -0.00586399994790554047 0.0201900005340576172
0.229194000363349915 -0.0406560003757476807 0.0216329991817474365
0.155000999569892883 -0.0523170009255409241 0.00607299990952014923
0.157732993364334106 -0.0832360014319419861 0.00152399996295571327
0.147912994027137756 -0.0207550004124641418 -0.0150119997560977936
0.250624001026153564 -0.0345729999244213104 0.021214999258518219
0.239850997924804688 -0.051830001175403595 -0.000819000008050352335
0.17523600161075592 -0.0387820005416870117 0.0129279997199773788
0.148534998297691345 -0.021405000239610672 -0.0115560004487633705
0.146169006824493408 0.00379200000315904617 0.0120799997821450233
0.175518006086349487 -0.00934199988842010498 0.0199009999632835388
0.206346496939659119 -0.0589064992964267731 0.011963999830186367
0.215057000517845154 -0.0379079990088939667 0.0235089994966983795
0.238778501749038696 -0.053012501448392868 -0.0034070000983774662
0.195087000727653503 -0.0804790034890174866 -0.00995900016278028488
0.168116003274917603 -0.0897229984402656555 -0.00517700007185339928
0.203143998980522156 -0.075124002993106842 -0.00760800018906593323
0.134338006377220154 0.00141200004145503044 -0.00529799982905387878
0.241327002644538879 -0.0344449989497661591 0.0241689998656511307
0.191451996564865112 0.0180980004370212555 0.0118699995800852776
0.170679003000259399 0.0270729996263980865 0.0186700001358985901
0.247127994894981384 -0.0469209998846054077 0.00137900002300739288
0.18631899356842041 -0.0466619990766048431 0.0167629998177289963
0.184873998165130615 -0.00702700018882751465 0.0202309992164373398
0.178279995918273926 -0.00493300007656216621 0.0203649997711181641
0.246297001838684082 -0.0400229990482330322 0.0167295001447200775
0.147292003035545349 -0.0596919991075992584 0.0038360001053661108
0.213718995451927185 0.00264999992214143276 0.0192629992961883545
0.216147005558013916 -0.000258999993093311787 0.0229499991983175278
0.199882999062538147 0.00758400000631809235 0.0109329996630549431
0.162601500749588013 0.0214875005185604095 -0.0495800003409385681
0.167413994669914246 -0.0893770009279251099 -0.00456399982795119286
0.160542994737625122 -0.00395799987018108368 0.0169559996575117111
0.22257000207901001 -0.0619250014424324036 -0.00122800003737211227
0.247666999697685242 -0.0425690002739429474 0.0119120003655552864
0.224985003471374512 -0.0114979995414614677 0.0302220005542039871
0.238395005464553833 -0.0349129997193813324 0.0243229996412992477
0.214133992791175842 0.00820999965071678162 0.0143130002543330193
0.210871994495391846 0.00908899959176778793 0.00843899976462125778
0.251708000898361206 -0.0286289993673563004 0.0265909992158412933
0.198791995644569397 -0.0655220001935958862 0.00822100043296813965
0.168231993913650513 -0.0348769985139369965 0.00888399966061115265
0.199364006519317627 -0.0690139979124069214 0.00462599983438849449
0.211797997355461121 -0.0558260008692741394 0.0132579999044537544
0.206717997789382935 -0.0570989996194839478 0.0133020002394914627
0.157038003206253052 -0.0242020003497600555 0.00435400009155273438
0.186018005013465881 -0.0779770016670227051 0.000311000010697171092
0.184314996004104614 -0.0640209987759590149 0.0109799997881054878
0.22543199360370636 -0.0187899991869926453 0.0299919992685317993
0.208355993032455444 -0.00355100003071129322 0.0192009992897510529
0.224116995930671692 -0.00507500022649765015 0.0291709993034601212
0.190929993987083435 0.0403410010039806366 -0.016116999089717865
0.176166996359825134 0.0306209996342658997 0.0158210005611181259
0.192363500595092773 0.0309219993650913239 0.00191899994388222694
0.245562002062797546 -0.0417420007288455963 0.0148120000958442688
0.213594004511833191 -0.0154010001569986343 0.0261369999498128891
0.17071300745010376 -0.0929950028657913208 -0.0105309998616576195
0.205718994140625 -0.00685600005090236664 0.0191900003701448441
0.199212998151779175 -0.0573480017483234406 0.0140730002894997597
0.22002999484539032 0.00105500000063329935 0.0249300003051757812
0.20444999635219574 -0.0481839999556541443 0.0187090002000331879
0.185365006327629089 -0.038697998970746994 0.0173780005425214767
0.21785600483417511 -0.0155584998428821564 0.0278175007551908493
0.217158004641532898 -0.0438660010695457458 0.0207640007138252258
0.15974600613117218 -0.0136569999158382416 0.0132130002602934837
0.147175997495651245 -0.0546660013496875763 0.00276600010693073273
0.203038007020950317 -0.0238610003143548965 0.0227370001375675201
0.137465998530387878 -0.00511199980974197388 -0.0112030003219842911
0.225946992635726929 -0.0612130016088485718 -0.00503499992191791534
0.208111003041267395 0.0117539996281266212 0.000995000009424984455
0.196110993623733521 0.0111389998346567154 0.0119340000674128532
0.193711996078491211 -0.0107909999787807465 0.0193520002067089081
0.148429006338119507 -0.0340549983084201813 -0.0114089995622634888
0.157037004828453064 0.00310799991711974144 0.0174529999494552612
0.160921007394790649 -0.03903999924659729 0.00504999980330467224
0.212794005870819092 0.00278600002638995647 0.0183669999241828918
0.188124999403953552 -0.082217000424861908 -0.00639700004830956459
0.229653000831604004 0.000564999994821846485 0.0305879991501569748
0.171270996332168579 -0.0879909992218017578 -0.00457500014454126358
0.210044994950294495 -0.0111360000446438789 0.023601999506354332
0.204713001847267151 -0.00643800012767314911 0.0182390008121728897
0.227164998650550842 -0.0439470000565052032 0.0195620004087686539
0.175064995884895325 -0.0489040017127990723 0.0135049996897578239
0.222055003046989441 -0.0362569987773895264 0.0245600007474422455
0.200703993439674377 -0.00535799982026219368 0.0162090007215738297
0.191244006156921387 0.0148839997127652168 0.0134530002251267433
0.186534002423286438 -0.0385085009038448334 0.0178449992090463638
0.174107998609542847 -0.0343619994819164276 0.0133560001850128174
0.175395995378494263 -0.0626059994101524353 0.0110640004277229309
0.250748008489608765 -0.0308459997177124023 0.0249249991029500961
0.247798994183540344 -0.0266929995268583298 0.0287490002810955048
0.229041993618011475 -0.0238949991762638092 0.0296669993549585342
0.240596994757652283 -0.0319060012698173523 0.0261480007320642471
0.223667994141578674 -0.0223949998617172241 0.0290399994701147079
0.207413002848625183 0.0136970002204179764 -0.0029680000152438879
0.146749004721641541 -0.0188810005784034729 -0.0121895000338554382
0.203667998313903809 -0.0279399994760751724 0.0231129992753267288
0.194309994578361511 -0.0678910017013549805 0.00729200011119246483
0.149932995438575745 -0.0219420008361339569 -0.00632800022140145302
0.141072005033493042 0.00682999985292553902 -0.0389579981565475464
0.149002000689506531 -0.0299699995666742325 -0.0260959994047880173
0.153543993830680847 -0.0249940007925033569 -0.00226099998690187931
0.15764300525188446 -0.0615999996662139893 0.00763500016182661057
0.216346994042396545 -0.0208080001175403595 0.0273150000721216202
0.187855005264282227 -0.0745360031723976135 0.00312900007702410221
0.1990479975938797 -0.0609089992940425873 0.0117709999904036522
0.194606006145477295 -0.0696630030870437622 0.00564200012013316154
0.158310994505882263 0.0117429997771978378 0.0194160006940364838
0.186289995908737183 -0.0157490000128746033 0.020371999591588974
0.154130995273590088 -0.00951300002634525299 0.0112960003316402435
0.195325002074241638 -0.0452659986913204193 0.0188079997897148132
0.161469995975494385 -0.0595000013709068298 0.00888700038194656372
0.140018999576568604 -0.00651399977505207062 -0.00447699986398220062
0.151323005557060242 -0.0258060004562139511 -0.012063000351190567
0.191586002707481384 -0.00550499977543950081 0.0190099999308586121
0.150842994451522827 -0.0265529993921518326 -0.0196150001138448715
0.221669003367424011 -0.0135949999094009399 0.0291130002588033676
0.243748992681503296 -0.0416259989142417908 0.0160819999873638153
0.179940000176429749 -0.0336639992892742157 0.0166170001029968262
0.219803005456924438 -0.044704001396894455 0.0200720001012086868
0.22047799825668335 0.0045610000379383564 0.0233490001410245895
0.156242996454238892 0.0125930001959204674 -0.0483319982886314392
0.222332000732421875 -0.0332800000905990601 0.02580999955534935
0.169736996293067932 -0.0472100004553794861 0.0116360001266002655
0.204853996634483337 -0.0440500006079673767 0.0204160008579492569
0.142177000641822815 -0.0348489992320537567 -0.0239979997277259827
0.141168996691703796 -0.0354529991745948792 -0.0250300001353025436
0.260262012481689453 -0.0347880013287067413 0.0145690003409981728
0.166355997323989868 -0.0654679983854293823 0.00900499988347291946
0.202328994870185852 0.0208689998835325241 -0.00421199994161725044
0.166310995817184448 -0.0161719992756843567 0.0158530008047819138
0.141712993383407593 -0.00266800005920231342 0.00349800009280443192
0.235081002116203308 -0.0393869988620281219 0.0215130001306533813
0.253609985113143921 -0.0372750014066696167 0.0159939993172883987
0.164787992835044861 -0.0323669984936714172 0.00693299993872642517
0.229709997773170471 -0.0548150017857551575 0.00590300001204013824
0.198664993047714233 -0.0734530016779899597 -0.000488999998196959496
0.221780002117156982 -0.0235430002212524414 0.0284349992871284485
0.195285007357597351 -0.0523989982903003693 0.016496000811457634
0.210105001926422119 -0.0683500021696090698 -0.000934000010602176189
0.186211004853248596 -0.0333749987185001373 0.0187689997255802155
0.21592499315738678 -0.063184000551700592 0.00303100002929568291
0.166113004088401794 -0.0895169973373413086 -0.00429099984467029572
0.154302999377250671 -0.0101699996739625931 0.0110940001904964447
0.173140004277229309 0.0130420001223683357 0.0200379993766546249
0.182407006621360779 -0.0222939997911453247 0.0195920001715421677
0.198660999536514282 -0.0745259970426559448 -0.00203000009059906006
0.196310997009277344 -0.057030998170375824 0.0143710002303123474
0.209096997976303101 0.0040540001355111599 0.013489999808371067
0.224581003189086914 -0.0441309995949268341 0.0198500007390975952
0.179183006286621094 -0.0919589996337890625 -0.0168520007282495499
0.213728994131088257 -0.0461199991405010223 0.0196640007197856903
0.156654000282287598 -0.0489979982376098633 0.00612699985504150391
0.15992400050163269 -0.0182259995490312576 0.0111830001696944237
0.194589003920555115 -0.0335469990968704224 0.02020999975502491
0.144660994410514832 -0.0458189994096755981 -0.00283799995668232441
0.222766995429992676 -0.00875699985772371292 0.0291590001434087753
0.152915999293327332 0.000349000009009614587 0.0147959999740123749
0.240498006343841553 -0.0291980002075433731 0.0278789997100830078
0.183647006750106812 -0.0267539992928504944 0.0192399993538856506
0.191285997629165649 0.0156410001218318939 0.0131139997392892838
0.144274994730949402 -0.0144009999930858612 -0.00832999963313341141
0.220147997140884399 0.0183680001646280289 -0.00502400007098913193
0.231932997703552246 -0.0421970002353191376 0.0199079997837543488
0.162343993782997131 -0.0148250004276633263 0.0142909996211528778
0.211045995354652405 -0.0508110001683235168 0.0170569997280836105
0.151048004627227783 -0.0266999993473291397 -0.0229829996824264526
0.227179005742073059 -0.016155000776052475 0.0307519994676113129
0.237700000405311584 -0.041967000812292099 0.0184289999306201935
0.144540995359420776 -0.0336159989237785339 -0.0331909991800785065
0.144017994403839111 0.00738399988040328026 -0.0415080003440380096
0.174977004528045654 -0.012563999742269516 0.0194370001554489136
0.225767999887466431 -0.0563570000231266022 0.00651700003072619438
0.186514005064964294 0.0228439997881650925 0.0130270002409815788
0.170098006725311279 -0.0627719983458518982 0.0102930003777146339
0.189890995621681213 0.0400969982147216797 -0.022923000156879425
0.141726002097129822 -0.0116100003942847252 -0.0161949992179870605
0.172251999378204346 -0.0291690006852149963 0.014352000318467617
0.160578995943069458 -0.027675999328494072 0.00577499996870756149
0.163075998425483704 -0.038052000105381012 0.00601299991831183434
0.14102800190448761 -0.0477880015969276428 -0.00439100014045834541
0.236347004771232605 -0.0410530008375644684 0.0197410006076097488
0.137970998883247375 -0.0426359996199607849 -0.0126229999586939812
0.206450998783111572 -0.0439850017428398132 0.0205479990690946579
0.205404996871948242 0.0136369997635483742 -1.70000002981396392e-05
0.210901007056236267 0.0108340000733733177 0.0045010000467300415
0.193498000502586365 0.00560500007122755051 0.0156919993460178375
0.15075799822807312 -0.0699110031127929688 0.00499300006777048111
0.156288996338844299 0.014592999592423439 -0.0486170016229152679
0.202131003141403198 0.0152160003781318665 0.00330400001257658005
0.175767004489898682 -0.0267479997128248215 0.016829000785946846
0.183148995041847229 -0.0747470036149024963 0.00418699998408555984
0.150619998574256897 -0.0411380007863044739 -0.00127500004600733519
0.157719999551773071 -0.0174119994044303894 0.00985599961131811142
0.194657996296882629 -0.0817790031433105469 -0.0128220003098249435
0.172739997506141663 -0.0062919999472796917 0.0198059994727373123
0.187206000089645386 -0.0122100003063678741 0.0203029997646808624
0.225953996181488037 -0.0348839983344078064 0.0252570006996393204
0.221876993775367737 0.0178389996290206909 0.00932999979704618454
0.200165003538131714 0.0194045007228851318 0.00198849989101290703
0.157443001866340637 -0.0784699991345405579 0.00373500003479421139
0.146326005458831787 -0.00424600020051002502 0.00763500016182661057
0.235286995768547058 -0.0294909998774528503 0.0279200002551078796
0.16337999701499939 -0.0208279993385076523 0.012393999844789505
0.233980000019073486 -0.0166749991476535797 0.0322399996221065521
0.190219998359680176 0.03974900022149086 -0.00660499976947903633
0.185037001967430115 -0.0869249999523162842 -0.012312999926507473
0.147571995854377747 -0.0358389988541603088 -0.00976399984210729599
0.138534992933273315 -0.00608700001612305641 -0.00871699955314397812
0.154200002551078796 -0.0333620011806488037 -0.00475300010293722153
0.239497005939483643 -0.0498749986290931702 0.00569299980998039246
0.21322399377822876 0.0129739996045827866 0.00310899992473423481
0.178277000784873962 -0.0633829981088638306 0.0110520003363490105
0.150131002068519592 -0.0288110002875328064 -0.0216630008071660995
0.18211500346660614 0.0326200015842914581 0.0114529998973011971
0.196083992719650269 -0.0133069995790719986 0.019198000431060791
0.186629995703697205 0.0369420014321804047 -0.0334010012447834015
0.212672993540763855 0.0121849998831748962 0.00442699994891881943
0.202796995639801025 -0.0736939981579780579 -0.00409100018441677094
0.159558996558189392 -0.0674889981746673584 0.00733899977058172226
0.18024599552154541 -0.0621839985251426697 0.0116529995575547218
0.168551996350288391 -0.0779850035905838013 0.00397100020200014114
0.168650001287460327 -0.0821570008993148804 0.00122600002214312553
0.223215997219085693 0.0134230004623532295 0.0184770002961158752
0.1800680011510849 -0.0907720029354095459 -0.0151100000366568565
0.149321004748344421 -0.0223110001534223557 -0.0190319996327161789
0.182741999626159668 0.0133720003068447113 0.0178720001131296158
0.191378995776176453 -0.0447929985821247101 0.0181690007448196411
0.140896007418632507 0.00409199995920062065 -0.0370859988033771515
0.136603504419326782 -0.00220600003376603127 -0.0059460001066327095
0.148269996047019958 -0.000422999990405514836 0.0115440003573894501
0.149927005171775818 -0.0233479999005794525 -0.0109130004420876503
0.162571996450424194 -0.0330649986863136292 0.00435800012201070786
0.159104004502296448 -0.0566040016710758209 0.00818799994885921478
0.170599997043609619 -0.0330049991607666016 0.0116140004247426987
0.196815997362136841 -0.0801870003342628479 -0.011711999773979187
0.208716005086898804 -0.0344800017774105072 0.0236820001155138016
0.181294992566108704 -0.085951000452041626 -0.00723800016567111015
0.220942005515098572 -0.0605400018393993378 0.00339800002984702587
0.14250299334526062 0.00500999996438622475 0.00990699976682662964
0.1853799968957901 0.0286229997873306274 0.0110719995573163033
0.156399995088577271 -0.0789920017123222351 0.00346100004389882088
0.186086997389793396 -0.0566449984908103943 0.0142059996724128723
0.140800997614860535 -0.0365709997713565826 -0.0204460006207227707
0.207239001989364624 -0.0629409998655319214 0.00802099984139204025
0.24741700291633606 -0.0445739999413490295 0.00809499993920326233
0.216371998190879822 -0.0576220005750656128 0.0100919995456933975
0.163669005036354065 -0.000709999992977827787 0.018696000799536705
0.247711002826690674 -0.0384280011057853699 0.0180239994078874588
0.227378994226455688 -0.0262100007385015488 0.0287580005824565887
0.237543001770973206 -0.0248649995774030685 0.0301190000027418137
0.188369005918502808 -0.0715759992599487305 0.0056099998764693737
0.152013003826141357 -0.0687189996242523193 0.00545299984514713287
0.226872995495796204 -0.0405929982662200928 0.0219849999994039536
0.226651996374130249 -0.0152139998972415924 0.0306800007820129395
0.16874849796295166 -0.0248624999076128006 0.0140439998358488083
0.15281599760055542 -7.79999973019585013e-05 0.0145880002528429031
0.213207006454467773 -0.0534139983355998993 0.014933999627828598
0.137224003672599792 0.000913999974727630615 0.000388999993447214365
0.16409599781036377 0.0160939991474151611 0.020372999832034111
0.208278998732566833 0.0104510001838207245 0.00331600010395050049
0.154820993542671204 -0.0414839982986450195 0.00213999999687075615
0.218245998024940491 -0.0557399988174438477 0.0113730002194643021
0.230468004941940308 -0.0449624992907047272 0.0178695004433393478
0.189652994275093079 -0.0325290001928806305 0.0196449998766183853
0.186493992805480957 0.0358829982578754425 -0.0344909988343715668
0.240881994366645813 -0.0421519987285137177 0.0168990008533000946
0.144446998834609985 -0.0156619995832443237 -0.0148820001631975174
0.219138994812965393 -0.0379149988293647766 0.0237409994006156921
0.162918001413345337 -0.0133840003982186317 0.0151249999180436134
0.154390007257461548 -0.00641999999061226845 0.0129490001127123833
0.141370996832847595 0.000722000026144087315 0.00594299985095858574
0.198992997407913208 -0.0272979997098445892 0.0214269999414682388
0.170968994498252869 0.00561599992215633392 0.0203680004924535751
0.185826003551483154 -0.0676259994506835938 0.00886499974876642227
0.151078000664710999 -0.0144079998135566711 0.00526000000536441803
0.20588800311088562 -0.0550069995224475861 0.0148999998345971107
0.190804004669189453 0.0405430011451244354 -0.0143430000171065331
0.167568996548652649 -0.076872996985912323 0.00462399981915950775
0.16687600314617157 -0.00214900006540119648 0.0192409995943307877
0.169125005602836609 -0.0204009991139173508 0.0158190000802278519
0.139129996299743652 -0.00785700045526027679 -0.0155649995431303978
0.194457992911338806 -0.0056799999438226223 0.0182649996131658554
0.149202495813369751 -0.0374254994094371796 -0.00584300002083182335
0.223635002970695496 0.0200609993189573288 0.0065830000676214695
0.148763000965118408 -0.0426150001585483551 -0.00173999997787177563
0.188225001096725464 0.00265899999067187309 0.0184330008924007416
0.140863999724388123 -0.037510998547077179 -0.0174620002508163452
0.191276997327804565 -0.0410259999334812164 0.0187289994210004807
0.166973993182182312 -0.0862310007214546204 -0.00159999995958060026
0.180042997002601624 -0.0608920007944107056 0.012144000269472599
0.190111994743347168 -0.0686590000987052917 0.00757599994540214539
0.186547994613647461 -0.0714069977402687073 0.00615300005301833153
0.195639997720718384 0.031771000474691391 -0.0065130000002682209
0.190874993801116943 0.0233539994806051254 0.00951099954545497894
0.191141992807388306 -0.00514000002294778824 0.0190559998154640198
0.190401002764701843 -0.0542510002851486206 0.0154499998316168785
0.205179005861282349 0.015796000137925148 -0.00270799989812076092
0.190126001834869385 0.00629799999296665192 0.0169500000774860382
0.233301997184753418 -0.0545610003173351288 0.0024759999942034483
0.216202005743980408 -0.00787500012665987015 0.0259249992668628693
0.238465994596481323 -0.0270589999854564667 0.0291080009192228317
0.146149992942810059 0.00698299985378980637 0.0134960003197193146
0.188740998506546021 -0.0675939992070198059 0.00857499986886978149
0.235663995146751404 -0.0458500012755393982 0.0149800004437565804
0.227767005562782288 -0.0254420004785060883 0.029052000492811203
0.182102993130683899 0.0146610001102089882 0.0177880004048347473
0.172453001141548157 0.0230219997465610504 0.0189430005848407745
0.145530000329017639 -0.0159130003303289413 -0.00739199994131922722
0.233177006244659424 -0.0418549999594688416 0.0199040006846189499
0.231929004192352295 -0.0124239996075630188 0.0323959998786449432
0.203101992607116699 -0.047368999570608139 0.0189909990876913071
0.222181499004364014 0.0194144994020462036 0.00451149977743625641
0.216113001108169556 -0.0150809995830059052 0.0271140001714229584
0.197530999779701233 -0.0759909972548484802 -0.00356699991971254349
0.222345992922782898 0.0200330000370740891 -0.00163199997041374445
0.220039993524551392 -0.020552000030875206 0.0284170005470514297
0.221009999513626099 0.0150739997625350952 0.0134709998965263367
0.205883994698524475 -0.0403620004653930664 0.0217339992523193359
0.135633006691932678 0.00103799998760223389 -0.00258999993093311787
0.197619006037712097 -0.00325799989514052868 0.0165420006960630417
0.16106000542640686 -0.0772539973258972168 0.00444199983030557632
0.222845003008842468 0.0166890006512403488 0.0134610002860426903
0.157306000590324402 -0.00375399994663894176 0.0155959995463490486
0.212154999375343323 -0.0711539983749389648 -0.012225000187754631
0.169707000255584717 -0.0583209991455078125 0.0111589999869465828
0.145557999610900879 -0.0463844984769821167 -0.00179200002457946539
0.151892006397247314 -0.0293429996818304062 -0.0116159999743103981
0.18441300094127655 -0.0364070013165473938 0.0176129993051290512
0.191248998045921326 0.0201980005949735641 0.0109679996967315674
0.166150003671646118 0.0111710000783205032 0.0203220006078481674
0.243270993232727051 -0.0452469997107982635 0.0109810000285506248
0.183246001601219177 -0.0799439996480941772 -0.000699000025633722544
0.160399004817008972 -0.0713049992918968201 0.00654699979349970818
0.15804000198841095 0.0158300008624792099 0.0198529995977878571
0.199157997965812683 0.0049020000733435154 0.0127670001238584518
0.224245995283126831 -0.0409910008311271667 0.0219919998198747635
0.217287003993988037 0.00298000010661780834 0.0219049993902444839
0.162085995078086853 -0.0298989992588758469 0.00576499989256262779
0.168171003460884094 -0.00333800003863871098 0.0193360000848770142
0.224026992917060852 0.00244299997575581074 0.026835000142455101
0.224350005388259888 -0.0551835000514984131 0.00915649998933076859
0.147945001721382141 -0.0182949993759393692 -0.00479800021275877953
0.186664998531341553 -0.0542539991438388824 0.0150509998202323914
0.217016994953155518 0.0160019993782043457 0.0022479998879134655
0.168579995632171631 -0.0560659989714622498 0.0111589999869465828
0.215737000107765198 -0.0660350024700164795 -0.00215100008063018322
0.169269993901252747 0.0243400000035762787 0.0194269996136426926
0.209106996655464172 -0.0623699985444545746 0.00788400042802095413
0.181287005543708801 -0.040716998279094696 0.0155950002372264862
0.172415003180503845 -0.049462001770734787 0.0126689998432993889
0.185734003782272339 0.0349889993667602539 0.00683599989861249924
0.176626995205879211 0.00552099989727139473 0.020201999694108963
0.210783004760742188 -0.0361349992454051971 0.0236150007694959641
0.170323997735977173 -0.0801429972052574158 0.00242200004868209362
0.188241004943847656 -0.0228610001504421234 0.0202610008418560028
0.21844799816608429 -0.0624920018017292023 0.00214100000448524952
0.152594998478889465 -0.00225399993360042572 0.0135899996384978294
0.196851998567581177 0.0183029994368553162 0.00709899980574846268
0.177938997745513916 0.0249090008437633514 0.0167330000549554825
0.200570002198219299 -0.0189520008862018585 0.0208000000566244125
0.15337100625038147 -0.0392520017921924591 -0.000365999992936849594
0.17280299961566925 -0.0634699985384941101 0.0104919997975230217
0.172277495265007019 -0.0270279999822378159 0.0151535002514719963
0.207422003149986267 -0.0505860000848770142 0.0174630004912614822
0.216028004884719849 -0.0652019977569580078 -0.000734000001102685928
0.229954004287719727 -0.0591229982674121857 -0.00704899989068508148
0.138280004262924194 -0.0373549982905387878 -0.0269649997353553772
0.161908999085426331 -0.0718579962849617004 0.00653599994257092476
0.201798006892204285 -0.0483580008149147034 0.018515000119805336
0.156944006681442261 -0.0505760014057159424 0.00664700008928775787
0.182614997029304504 -0.0833949968218803406 -0.00446800002828240395
0.182702004909515381 0.0317480005323886871 -0.0406850017607212067
0.202003002166748047 0.00805400032550096512 0.00888300035148859024
0.2328529953956604 -0.0500079989433288574 0.011137000285089016
0.205431997776031494 -0.0755070000886917114 -0.0132600003853440285
0.183038994669914246 -0.0267249997705221176 0.0191239994019269943
0.21432100236415863 -0.00360599998384714127 0.0233549997210502625
0.201627999544143677 0.0194140002131462097 -0.000469999999040737748
0.157291993498802185 -0.0375339984893798828 0.00160900002811104059
0.181523993611335754 -0.0844829976558685303 -0.00527400011196732521
0.163075000047683716 -0.0352220013737678528 0.00481399986892938614
0.167309001088142395 -0.0718400031328201294 0.00699499994516372681
0.151416003704071045 -0.0267420001327991486 -0.0252129994332790375
0.170441001653671265 -0.0187139995396137238 0.0168910007923841476
0.182794004678726196 0.0323799997568130493 -0.0403000004589557648
0.177524998784065247 -0.0412579998373985291 0.0141850002110004425
0.221532002091407776 0.0102989999577403069 0.0199270006269216537
0.15933699905872345 0.0073159998282790184 0.0189960002899169922
0.206422999501228333 -0.035516001284122467 0.0230149999260902405
0.211863994598388672 0.00771600008010864258 0.012141999788582325
0.232749000191688538 -0.0207380000501871109 0.031067999079823494
0.171507999300956726 0.0224939994513988495 -0.0484509989619255066
0.189426004886627197 -0.0796289965510368347 -0.00340100005269050598
0.176804006099700928 0.0260850004851818085 -0.0460800006985664368
0.141203999519348145 -0.00164200004655867815 0.00375099992379546165
0.198561996221542358 0.0273979995399713516 -0.0062970002181828022
0.212591007351875305 0.0118650002405047417 0.00524100009351968765
0.149930998682975769 -0.0482509993016719818 0.00212899991311132908
0.183746993541717529 0.00178399996366351843 0.0196080002933740616
0.228007003664970398 -0.0384790003299713135 0.0232159998267889023
0.233542993664741516 -0.00632499996572732925 0.0330899991095066071
0.212842002511024475 0.00754299992695450783 0.0136200003325939178
0.224389001727104187 0.0211679991334676743 0.00368000008165836334
0.21482500433921814 -0.00928200036287307739 0.0255810003727674484
0.221227005124092102 -0.0105980001389980316 0.0287340003997087479
0.192972004413604736 0.0204220004379749298 0.0094280000776052475
0.157839000225067139 -0.0818200036883354187 0.00224600010551512241
0.184116005897521973 0.0347610004246234894 -0.0377870015799999237
0.208515003323554993 -0.00752199999988079071 0.0213910005986690521
0.184039995074272156 0.00789800006896257401 0.0186049994081258774
0.184933006763458252 -0.0719259977340698242 0.00603700010105967522
0.183357000350952148 -0.0307849999517202377 0.0184850003570318222
0.223985999822616577 -0.0523639991879463196 0.0127109996974468231
0.184036001563072205 -0.0629130005836486816 0.0115000000223517418
0.251969009637832642 -0.0382560007274150848 0.0156769994646310806
0.158032998442649841 0.0115719996392726898 0.019339999184012413
0.219870999455451965 -0.063193000853061676 -0.000708999985363334417
0.197366997599601746 -0.0233200006186962128 0.0203850008547306061
0.164610996842384338 -0.0783919990062713623 0.00390999997034668922
0.224066004157066345 0.0208170004189014435 -0.00538100022822618484
0.253592014312744141 -0.0310469996184110641 0.0238339994102716446
0.147541999816894531 -0.0201609991490840912 -0.0134389996528625488
0.19148099422454834 -0.0734150037169456482 0.00304399989545345306
0.15632300078868866 -0.0090269995853304863 0.0130470003932714462
0.190680995583534241 0.0179529991000890732 0.0124789997935295105
0.190498992800712585 -0.0477400012314319611 0.0174039993435144424
0.211484000086784363 0.0124970003962516785 0.000127999999676831067
0.230620995163917542 -0.0434780009090900421 0.0191479995846748352
0.202457994222640991 0.00516200019046664238 0.0104029998183250427
0.209212005138397217 -0.0508049987256526947 0.0172429997473955154
0.148920997977256775 -0.0204259995371103287 -0.00624499982222914696
0.17261900007724762 -0.0319060012698173523 0.0134749999269843102
0.237579002976417542 -0.0517789982259273529 0.00357499998062849045
0.255499988794326782 -0.0316830016672611237 0.0223750006407499313
0.199750006198883057 0.00656699994578957558 0.0115710003301501274
0.193755999207496643 -0.0762519985437393188 -0.00134199997410178185
0.223001003265380859 -0.0309309996664524078 0.0267280004918575287
0.176504999399185181 0.0284690000116825104 0.016307000070810318
