ply
format ascii 1.0
element vertex 592
property float x
property float y
property float z
end_header
0.0768759995698928833 0.0594949983060359955 0.0118640000000596046
0.059647001326084137 0.0647410005331039429 0.0117060001939535141
0.046190999448299408 0.03630099818110466 0.0247269999235868454
0.0792229995131492615 0.104470998048782349 -0.0193949993699789047
0.110983997583389282 0.0489160008728504181 -0.0126729998737573624
0.117421001195907593 0.0502169989049434662 -0.0302120000123977661
0.122840002179145813 0.059649001806974411 -0.0267360005527734756
0.0942960008978843689 0.0523479990661144257 0.00615799985826015472
0.0498679988086223602 0.10220000147819519 0.00221899989992380142
0.023093000054359436 0.0712049975991249084 0.00734200002625584602
0.0632779970765113831 0.0996579974889755249 -0.00537799997255206108
0.0774649977684020996 0.0674899965524673462 0.00916799996048212051
0.0446249991655349731 0.0697859972715377808 0.0113509995862841606
0.127485498785972595 0.0734819993376731873 -0.0219765007495880127
0.0859809964895248413 0.106109000742435455 -0.0162530001252889633
0.0279005002230405807 0.0941239967942237854 0.0114465001970529556
0.0564489997923374176 0.0807100012898445129 0.00999199971556663513
0.0946590006351470947 0.0207909997552633286 -0.0122640002518892288
0.106100000441074371 0.0771989971399307251 -0.00281900004483759403
0.0529760010540485382 0.0450510010123252869 0.0201099999248981476
0.0838449969887733459 0.102888002991676331 -0.0143759995698928833
0.130025997757911682 0.0751930028200149536 -0.0247910004109144211
0.0759814977645874023 0.0256865005940198898 0.018832499161362648
0.0641044974327087402 0.085856996476650238 0.00570950005203485489
0.0692069977521896362 0.0777570009231567383 0.00771499983966350555
0.0110060004517436028 0.0590760000050067902 -0.0145920002833008766
0.00162700004875659943 0.0649430006742477417 -0.0253459997475147247
0.116287998855113983 0.102847002446651459 -0.0126109998673200607
0.0807259976863861084 0.108056999742984772 -0.0225200001150369644
0.0131179997697472572 0.0694399997591972351 0.00182300002779811621
0.0636309981346130371 0.0723640024662017822 0.0106399999931454659
0.0936020016670227051 0.049954000860452652 0.00665199989452958107
0.0276159998029470444 0.0878480002284049988 0.0116910003125667572
0.0646789968013763428 0.0446420013904571533 0.0198470000177621841
0.0576269999146461487 0.109212003648281097 -0.0160719994455575943
0.0744950026273727417 0.0691680014133453369 0.00934499967843294144
0.0765499994158744812 0.0871390029788017273 -0.00242200004868209362
0.100241996347904205 0.0294809993356466293 -0.0121569996699690819
0.0500200018286705017 0.0404440015554428101 0.022579999640583992
0.102084003388881683 0.0409479998052120209 -0.00387299992144107819
0.113441996276378632 0.0470869988203048706 -0.0207020007073879242
0.0598019994795322418 0.0718370005488395691 0.011218000203371048
0.0778729990124702454 0.102838002145290375 -0.0186320003122091293
0.0734570026397705078 0.0753580033779144287 0.00734699983149766922
0.0219030007719993591 0.0494170002639293671 -0.0242129992693662643
0.0770699977874755859 0.0390000008046627045 0.017318999394774437
0.0233100000768899918 0.0483950003981590271 -0.025309000164270401
0.0134849995374679565 0.0558630004525184631 -0.0248290002346038818
0.0990260019898414612 0.0926359966397285461 -0.00518100010231137276
0.0222664996981620789 0.0839639976620674133 0.0109395002946257591
0.0913989990949630737 0.0703969970345497131 0.0045810001902282238
0.0882529988884925842 0.0351070016622543335 0.00975899957120418549
0.116534002125263214 0.0643000006675720215 -0.0118770003318786621
0.109056003391742706 0.0432480014860630035 -0.0145880002528429031
0.110235996544361115 0.0756509974598884583 -0.0049625001847743988
-0.000150000007124617696 0.0662949979305267334 -0.0214569997042417526
0.0995379984378814697 0.0775550007820129395 -9.20000020414590836e-05
0.0439810007810592651 0.0949369966983795166 0.00850300025194883347
0.0115630002692341805 0.0601730011403560638 -0.0108129996806383133
0.0884890034794807434 0.0221720002591609955 0.00492999982088804245
0.104066997766494751 0.0343630015850067139 -0.0150730004534125328
0.0437549985945224762 0.0369499996304512024 0.0239760000258684158
0.0981440022587776184 0.0437725000083446503 0.00200200011022388935
0.0523560009896755219 0.109797000885009766 -0.00804699957370758057
0.088092997670173645 0.0336980000138282776 0.0096490001305937767
0.119626998901367188 0.0872899964451789856 -0.0114500001072883606
0.0495870001614093781 0.111624002456665039 -0.00758100021630525589
0.0971790030598640442 0.103454999625682831 -0.010796000249683857
0.0331760011613368988 0.0467739999294281006 0.00896000023931264877
0.104639999568462372 0.0791110023856163025 -0.00246299989521503448
0.0917389988899230957 0.0494749993085861206 0.00791599974036216736
0.08391600102186203 0.114747002720832825 -0.0283840000629425049
0.0435959994792938232 0.081725001335144043 0.0114979995414614677
0.0515800006687641144 0.0999260023236274719 0.00293099996633827686
0.0960810035467147827 0.0513329990208148956 0.00487900013104081154
0.0671029984951019287 0.0447750017046928406 0.0193419996649026871
0.110953003168106079 0.103791996836662292 -0.0115959998220205307
0.0758550018072128296 0.0413630008697509766 0.0174870006740093231
0.117169998586177826 0.0498429983854293823 -0.0307599995285272598
0.089345000684261322 0.0425049997866153717 0.00954699981957674026
0.0854889973998069763 0.0203660000115633011 0.00821600016206502914
0.016648000106215477 0.0567035004496574402 -0.00998250022530555725
0.119106002151966095 0.0731199979782104492 -0.012071000412106514
0.0433709993958473206 0.0413380004465579987 0.0207950007170438766
0.039266001433134079 0.0597559995949268341 0.00771899987012147903
0.134770005941390991 0.0739810019731521606 -0.0380100011825561523
0.0693320035934448242 0.0474979989230632782 0.0178689993917942047
0.041276000440120697 0.0671800002455711365 0.0105020003393292427
0.0917259976267814636 0.0662299990653991699 0.00559900002554059029
0.0541779994964599609 0.109507001936435699 -0.0100010000169277191
0.0414130017161369324 0.118739001452922821 -0.00910499971359968185
0.119223996996879578 0.0694739967584609985 -0.0131369996815919876
0.0180610008537769318 0.062296498566865921 -0.00110550003591924906
0.0399990007281303406 0.0850220024585723877 0.0114409998059272766
0.0840969979763031006 0.0353390015661716461 0.013175000436604023
0.134026497602462769 0.0779905021190643311 -0.029709499329328537
0.10631900280714035 0.0893839970231056213 -0.00558200012892484665
0.0242120008915662766 0.093598000705242157 0.0116649996489286423
0.0117629999294877052 0.0586609989404678345 -0.0141439996659755707
0.00562500022351741791 0.0620069988071918488 -0.0199679993093013763
0.0518474988639354706 0.0558215007185935974 0.0122675001621246338
0.100157000124454498 0.0369290001690387726 -0.00350799993611872196
0.0828569978475570679 0.104528002440929413 -0.0165819991379976273
0.023251999169588089 0.0663670003414154053 0.00495499977841973305
0.017983999103307724 0.0725769996643066406 0.00614200020208954811
0.0425850003957748413 0.109131999313831329 0.00116300000809133053
0.119690001010894775 0.0531679987907409668 -0.0321879982948303223
0.0362700000405311584 0.0720214992761611938 0.0107065001502633095
0.0455139987170696259 0.0406614989042282104 0.0217975005507469177
0.0365549996495246887 0.0528349988162517548 0.0054239998571574688
0.07025899738073349 0.0554369986057281494 0.014519999735057354
0.119349002838134766 0.0800430029630661011 -0.0113129997625946999
0.0418250001966953278 0.0922510027885437012 0.00989099964499473572
0.0787279978394508362 0.111501999199390411 -0.0313149988651275635
0.0226290002465248108 0.0584769994020462036 -0.00143299996852874756
0.130403995513916016 0.0680399984121322632 -0.035627998411655426
0.114684998989105225 0.0490520000457763672 -0.020895000547170639
0.0736880004405975342 0.104950003325939178 -0.0279389992356300354
0.0954520031809806824 0.0495470017194747925 0.00528200017288327217
0.0701280012726783752 0.0298689994961023331 0.0221350006759166718
0.0791440010070800781 0.0493750013411045074 0.0144109996035695076
0.0193980000913143158 0.0672070011496543884 0.00364600005559623241
0.0657830014824867249 0.102815002202987671 -0.0154109997674822807
0.0985950008034706116 0.112085998058319092 -0.0162749998271465302
0.0539515018463134766 0.0558875016868114471 0.0129385003820061684
0.0898350030183792114 0.031782001256942749 0.00745999999344348907
0.0815429985523223877 0.0248980000615119934 0.0141489999368786812
0.0556369982659816742 0.039067000150680542 0.0233510006219148636
0.0841879993677139282 0.0667629987001419067 0.00765600008890032768
0.044004000723361969 0.0535509996116161346 0.0103799998760223389
0.0527630001306533813 0.0697909966111183167 0.0117110004648566246
0.0998300015926361084 0.1134520024061203 -0.0169549994170665741
0.0394469983875751495 0.0511270016431808472 0.0096439998596906662
0.111933000385761261 0.0536080002784729004 -0.0108629995957016945
0.102040000259876251 0.0914330035448074341 -0.0051730000413954258
0.118644997477531433 0.0964230000972747803 -0.0119559997692704201
0.0805250033736228943 0.114955998957157135 -0.0352829992771148682
0.0448849983513355255 0.100826002657413483 0.00553500000387430191
0.0792940035462379456 0.0309139993041753769 0.0165669992566108704
0.126743003726005554 0.0699170008301734924 -0.0233089998364448547
0.0808990001678466797 0.0886979997158050537 -0.00387299992144107819
0.0967319980263710022 0.0402840003371238708 0.00253199995495378971
0.0981509983539581299 0.0295320004224777222 -0.00631899992004036903
0.105159997940063477 0.0388269983232021332 -0.0110579999163746834
0.079028002917766571 0.101975001394748688 -0.0166009999811649323
0.0423839986324310303 0.120718002319335938 -0.0156070003286004066
0.104454003274440765 0.0440310016274452209 -0.00553099997341632843
0.0536445006728172302 0.102105997502803802 -5.70000011066440493e-05
0.0779019966721534729 0.0362999998033046722 0.0172029994428157806
0.0431860014796257019 0.0599020011723041534 0.00889999978244304657
0.0561024993658065796 0.0734239965677261353 0.0113760000094771385
0.0144260004162788391 0.0797030031681060791 0.00813100021332502365
0.0888089984655380249 0.0200679991394281387 0.00288200005888938904
0.0856069996953010559 0.0514839999377727509 0.011211000382900238
0.0101466663181781769 0.0740866661071777344 0.00353366672061383724
0.0457799993455410004 0.116467997431755066 -0.0111840004101395607
0.0214479994028806686 0.0527880005538463593 -0.0104799997061491013
0.115570999681949615 0.0568160004913806915 -0.0143990004435181618
0.124066002666950226 0.092059500515460968 -0.0144934998825192451
0.085087999701499939 0.0449119992554187775 0.0122969998046755791
0.0451080016791820526 0.06116500124335289 0.0097390003502368927
0.00961500033736228943 0.0715679973363876343 0.00139700004365295172
0.0818089991807937622 0.0569459982216358185 0.0114979995414614677
0.108156003057956696 0.0859989970922470093 -0.00536300009116530418
0.122366003692150116 0.0651179999113082886 -0.0195039995014667511
0.0929870009422302246 0.115787997841835022 -0.0215799994766712189
0.0990519970655441284 0.0490249991416931152 0.00223099999129772186
0.0367969982326030731 0.0385669991374015808 0.0206259991973638535
0.106260001659393311 0.0355300009250640869 -0.0233590006828308105
0.0753379985690116882 0.0652730017900466919 0.0102430004626512527
0.06868000328540802 0.0244730003178119659 0.0235699992626905441
0.0221929997205734253 0.0492219999432563782 -0.0218020007014274597
0.0441129989922046661 0.0803780034184455872 0.0115750003606081009
0.0713530033826828003 0.10394199937582016 -0.0309695005416870117
0.116815999150276184 0.091259002685546875 -0.0102469995617866516
0.0242369994521141052 0.0635680034756660461 0.00367600005120038986
0.0518589988350868225 0.11381000280380249 -0.0168810002505779266
0.0468069985508918762 0.108428999781608582 -0.00108099996577948332
0.00784800015389919281 0.0792189985513687134 0.00555900018662214279
0.085848003625869751 0.103293001651763916 -0.0137250004336237907
0.12168700248003006 0.0947899967432022095 -0.0132400002330541611
0.0437589995563030243 0.077762998640537262 0.0117049999535083771
0.066023997962474823 0.055544000118970871 0.0147310001775622368
0.0483939982950687408 0.112278997898101807 -0.00719199981540441513
0.0728640034794807434 0.106338001787662506 -0.0346900001168251038
0.0165160000324249268 0.0542390011250972748 -0.0168960001319646835
0.0333440005779266357 0.0475400015711784363 0.00805899966508150101
0.061457999050617218 0.0783570036292076111 0.00957200024276971817
0.119258001446723938 0.0891119986772537231 -0.0113289998844265938
0.074400000274181366 0.0944169983267784119 -0.00971299968659877777
0.0924020037055015564 0.0216450002044439316 -0.00271599995903670788
0.0252209994941949844 0.0468249991536140442 -0.012160000391304493
0.0646269991993904114 0.0522730015218257904 0.0164470002055168152
0.0105095002800226212 0.0614085011184215546 -0.00995200034230947495
0.0213380008935928345 0.0744680017232894897 0.00815000012516975403
0.0970980003476142883 0.0779500007629394531 0.00060600001597777009
0.0417330004274845123 0.0845789983868598938 0.0113559998571872711
0.0303364992141723633 0.0741434991359710693 0.0101774996146559715
0.101760998368263245 0.0483600012958049774 -0.000547999981790781021
0.0582889989018440247 0.0602950006723403931 0.0116459997370839119
0.0693110004067420959 0.0959810018539428711 -0.00669400021433830261
0.0282109994441270828 0.0426979996263980865 0.00862700026482343674
0.0309319999068975449 0.0431649982929229736 0.0114510003477334976
0.0285260006785392761 0.0618520006537437439 0.00466699991375207901
0.0608280003070831299 0.0994589999318122864 -0.00287099997512996197
0.0915070027112960815 0.0987199991941452026 -0.00856900028884410858
0.0398330017924308777 0.0809329971671104431 0.0117009999230504036
0.0204530004411935806 0.089277997612953186 0.01145199965685606
0.0391450002789497375 0.116506002843379974 -0.00346000003628432751
0.0587350018322467804 0.0840879976749420166 0.00835399981588125229
0.0832059979438781738 0.0560160018503665924 0.0112589998170733452
0.0298919994384050369 0.0765789970755577087 0.0106560001149773598
0.0294850002974271774 0.0986030027270317078 0.0106060001999139786
0.100300997495651245 0.0288750007748603821 -0.0138670001178979874
0.0279339998960494995 0.0519139990210533142 -0.00316799990832805634
0.0367159992456436157 0.0871040001511573792 0.0114810001105070114
0.0962740033864974976 0.0226889997720718384 -0.0145269995555281639
0.0804509967565536499 0.0925709977746009827 -0.00693299993872642517
0.111998997628688812 0.0986329987645149231 -0.0100739998742938042
0.109283998608589172 0.0522334985435009003 -0.0079384995624423027
0.0421760007739067078 0.100120000541210175 0.00693499995395541191
0.115638501942157745 0.0940510034561157227 -0.0101910000666975975
0.0375940017402172089 0.0855725035071372986 0.011559000238776207
0.0782760009169578552 0.111697003245353699 -0.0328689999878406525
0.0523970015347003937 0.10797400027513504 -0.00538699980825185776
0.0294599998742341995 0.0686390027403831482 0.0082890000194311142
0.057100001722574234 0.0548459999263286591 0.0144710000604391098
0.0380919985473155975 0.0842169970273971558 0.0116280000656843185
0.126148506999015808 0.0637615025043487549 -0.0294799990952014923
0.100359000265598297 0.101651996374130249 -0.00962499994784593582
0.114846996963024139 0.054871000349521637 -0.01460300013422966
0.108686000108718872 0.0986810028553009033 -0.00925299990922212601
0.107646003365516663 0.0750460028648376465 -0.0033869999460875988
0.0874665006995201111 0.108203001320362091 -0.0174219999462366104
0.106360003352165222 0.0538000017404556274 -0.0038960000965744257
0.101213999092578888 0.0427079983055591583 -0.0018289999570697546
0.0656320005655288696 0.0966539978981018066 -0.00384999997913837433
0.10733400285243988 0.0937919989228248596 -0.00723400013521313667
0.0838290005922317505 0.03462199866771698 0.0133469998836517334
0.00601299991831183434 0.0634770020842552185 -0.0129669997841119766
0.0539410002529621124 0.107759997248649597 -0.0067639998160302639
0.0528410002589225769 0.0944759994745254517 0.00569200003519654274
0.0748519971966743469 0.0814019963145256042 0.00345299998298287392
0.0400899983942508698 0.0777970030903816223 0.0116839995607733727
0.120569996535778046 0.0556560009717941284 -0.0273000001907348633
0.112002000212669373 0.0676510035991668701 -0.00651200022548437119
0.111241996288299561 0.0423399992287158966 -0.0247569996863603592
0.113687999546527863 0.0633969977498054504 -0.0089769996702671051
0.103511996567249298 0.0491669997572898865 -0.00216799997724592686
0.0929040014743804932 0.04351000115275383 0.00681699998676776886
0.104355998337268829 0.0711340010166168213 -0.00114299997221678495
0.0819429978728294373 0.104549996554851532 -0.0172210000455379486
0.0639685019850730896 0.104281999170780182 -0.0157379992306232452
0.101737000048160553 0.0589919984340667725 0.000967999978456646204
0.00254200003109872341 0.0655210018157958984 -0.0146430004388093948
0.0798349976539611816 0.0890159979462623596 -0.00437900004908442497
0.00954299978911876678 0.0588379986584186554 -0.0225220005959272385
0.0117100002244114876 0.0721649974584579468 0.00302699999883770943
0.0426760017871856689 0.0354570001363754272 0.0247740000486373901
0.0503709986805915833 0.0533009991049766541 0.0138010000810027122
0.0687929987907409668 0.0962639972567558289 -0.00652399985119700432
0.12129499763250351 0.0915540009737014771 -0.0127189997583627701
0.0184289999306201935 0.0529339984059333801 -0.0162589997053146362
0.0251049995422363281 0.0858139991760253906 0.011462000198662281
0.0983240008354187012 0.102508999407291412 -0.0101570002734661102
0.0186209995299577713 0.0754970014095306396 0.00772499991580843925
0.0131510002538561821 0.0571639984846115112 -0.0155290002003312111
0.059980001300573349 0.107694000005722046 -0.017168000340461731
0.0371670015156269073 0.0510840006172657013 0.00746499979868531227
0.0991720035672187805 0.0287970006465911865 -0.00997800007462501526
0.0798944979906082153 0.0379579998552799225 0.0159095004200935364
0.0349900014698505402 0.0947854965925216675 0.0105215003713965416
0.0793889984488487244 0.0266689993441104889 0.0162760000675916672
0.0252330005168914795 0.0931420028209686279 0.0116539997979998589
0.0236770007759332657 0.0816299989819526672 0.0107220001518726349
0.0616579987108707428 0.0355690009891986847 0.0238600000739097595
0.0558084994554519653 0.0359645001590251923 0.0247510001063346863
0.0370160005986690521 0.107183001935482025 0.00534000014886260033
0.047026999294757843 0.0356849990785121918 0.0251359995454549789
0.0819199979305267334 0.100267998874187469 -0.0129500003531575203
0.124751999974250793 0.0690610036253929138 -0.0206269994378089905
0.0748040005564689636 0.099939003586769104 -0.0176090002059936523
0.098829999566078186 0.0264049991965293884 -0.0144600002095103264
0.133523494005203247 0.0727064982056617737 -0.0360774993896484375
0.0841249972581863403 0.087390996515750885 -0.00240399991162121296
0.110151000320911407 0.0682249963283538818 -0.00492500001564621925
0.121829003095626831 0.0559960007667541504 -0.0332639999687671661
0.093745499849319458 0.0380860008299350739 0.00507250009104609489
0.108485996723175049 0.0470619983971118927 -0.00979200005531311035
0.0779400020837783813 0.0439400002360343933 0.0160739999264478683
0.104548998177051544 0.041455000638961792 -0.00739300018176436424
0.0548270009458065033 0.111873000860214233 -0.0184279996901750565
0.125229001045227051 0.0772750005125999451 -0.0173179991543292999
0.0296890009194612503 0.104520998895168304 0.00899000000208616257
0.0506410002708435059 0.0733750015497207642 0.0116839995607733727
0.0530380010604858398 0.113255999982357025 -0.018525000661611557
0.0906950011849403381 0.0899159982800483704 -0.00341299991123378277
0.0971369966864585876 0.0300455000251531601 -0.00372199993580579758
0.045379001647233963 0.0560589991509914398 0.00947600044310092926
0.0260889995843172073 0.0498760007321834564 -0.00721399998292326927
0.0462259985506534576 0.0670799985527992249 0.0111630000174045563
0.103919997811317444 0.0450679995119571686 -0.00428800005465745926
0.020903000608086586 0.0690980032086372375 0.00548300007358193398
0.0308800004422664642 0.0776470005512237549 0.0109820002689957619
0.00481900013983249664 0.0675119981169700623 -0.00694199977442622185
0.00422299979254603386 0.0630239993333816528 -0.0261450000107288361
0.0944534987211227417 0.107473000884056091 -0.0139805004000663757
0.119248002767562866 0.0974790006875991821 -0.0124270003288984299
0.0457599982619285583 0.0821340009570121765 0.0112770004197955132
0.0107033336535096169 0.0779383331537246704 0.00603333348408341408
0.120979003608226776 0.0617090016603469849 -0.019859999418258667
0.125527992844581604 0.0666339993476867676 -0.0239700004458427429
0.101843997836112976 0.0304710008203983307 -0.0162039995193481445
0.09515400230884552 0.0854419991374015808 -0.00161100004334002733
0.000897000019904226065 0.0690350010991096497 -0.00938900001347064972
0.0301859993487596512 0.0995419993996620178 0.0102690001949667931
0.0219400003552436829 0.0577110014855861664 -0.00278199999593198299
0.0576939992606639862 0.0501179993152618408 0.0174860004335641861
0.067267000675201416 0.0848969966173171997 0.00488900020718574524
0.0491239987313747406 0.0457529984414577484 0.019045000895857811
0.0589229986071586609 0.0973220020532608032 0.000612000003457069397
0.125514000654220581 0.0614550001919269562 -0.0327560007572174072
0.103676997125148773 0.101441003382205963 -0.00965300016105175018
0.112378999590873718 0.0596189983189105988 -0.00870900042355060577
0.0474019981920719147 0.0963179990649223328 0.0068540000356733799
0.0821240022778511047 0.0997935011982917786 -0.012395000085234642
0.0499019995331764221 0.10640600323677063 -0.00142099999357014894
0.0309369992464780807 0.0422720015048980713 0.0126480003818869591
0.0890889987349510193 0.0338220000267028809 0.008740999735891819
0.0772870033979415894 0.0292530003935098648 0.0179699994623661041
0.101695999503135681 0.103453002870082855 -0.0105779999867081642
0.0566289983689785004 0.0564129985868930817 0.0132680004462599754
0.0367739982903003693 0.0627110004425048828 0.00815400015562772751
0.0908759981393814087 0.082493998110294342 0.000216000000364147127
0.0735775008797645569 0.0396789982914924622 0.0188005007803440094
0.0364090017974376678 0.100952997803688049 0.00841199979186058044
0.098517000675201416 0.0472490005195140839 0.00240399991162121296
0.0260300002992153168 0.0684859976172447205 0.007135000079870224
0.0300530008971691132 0.0873339995741844177 0.011719999834895134
0.098678000271320343 0.108300000429153442 -0.0136630004271864891
0.0287839993834495544 0.0745489969849586487 0.0100050000473856926
0.132837995886802673 0.0760969966650009155 -0.0291680004447698593
0.0214200001209974289 0.0757649987936019897 0.00864200014621019363
0.0946469977498054504 0.0425530001521110535 0.00515600014477968216
0.0761179998517036438 0.0626550018787384033 0.0107399998232722282
0.100382000207901001 0.0293760001659393311 -0.0128300003707408905
0.0159939993172883987 0.0666380003094673157 0.00134399998933076859
0.0134560000151395798 0.0822490006685256958 0.00878299959003925323
0.0763370022177696228 0.101907998323440552 -0.0189449992030858994
0.0972039997577667236 0.113347001373767853 -0.0176170002669095993
0.122951000928878784 0.081747002899646759 -0.0141270002350211143
0.0805319994688034058 0.0317750014364719391 0.0156830009073019028
0.0516999997198581696 0.048277001827955246 0.0178559999912977219
0.0654729977250099182 0.030396999791264534 0.0241439994424581528
0.133339002728462219 0.0750830024480819702 -0.0314190015196800232
0.0775580033659934998 0.112810000777244568 -0.0397359989583492279
0.0756559967994689941 0.0434469990432262421 0.0171479992568492889
0.0915570035576820374 0.0639709979295730591 0.00619400013238191605
0.118785999715328217 0.0590929985046386719 -0.0181239992380142212
0.0678690001368522644 0.0628409981727600098 0.0115229999646544456
0.0902609974145889282 0.109596997499465942 -0.0172534994781017303
0.0757419988512992859 0.0543889999389648438 0.0139720002189278603
0.0172630008310079575 0.0687370002269744873 0.00358400004915893078
0.066211998462677002 0.0408379994332790375 0.0209560003131628036
0.101291000843048096 0.0865340009331703186 -0.00325100007466971874
0.0395720005035400391 0.102819502353668213 0.00659900018945336342
0.0763100013136863708 0.0768340006470680237 0.00556699978187680244
0.0857859998941421509 0.0769610032439231873 0.00322300009429454803
0.132099002599716187 0.0749180018901824951 -0.0288839992135763168
0.12533000111579895 0.0613289996981620789 -0.0322859995067119598
0.0253950003534555435 0.0443909987807273865 -0.00329599995166063309
0.101489998400211334 0.0320945009589195251 -0.0111429998651146889
0.0325245000422000885 0.038072001188993454 0.0187790002673864365
0.1018809974193573 0.10925699770450592 -0.013830999843776226
0.0148679995909333229 0.0731149986386299133 0.00516000017523765564
0.0929789990186691284 0.0881249979138374329 -0.00255999993532896042
0.054048001766204834 0.0994639992713928223 0.00188600004184991121
0.121206998825073242 0.0676459968090057373 -0.0163109991699457169
0.0479159988462924957 0.0972900018095970154 0.00619299989193677902
0.107750996947288513 0.0643450021743774414 -0.00332799996249377728
0.0763610005378723145 0.0563150011003017426 0.0131419999524950981
0.0269719995558261871 0.0891269966959953308 0.0117110004648566246
0.0472479984164237976 0.111914001405239105 -0.00540600018575787544
0.0611060000956058502 0.070240996778011322 0.0112929996103048325
0.094362996518611908 0.0732949972152709961 0.00283199991099536419
0.0322230011224746704 0.10419599711894989 0.00839400012046098709
0.11113400012254715 0.0880910009145736694 -0.00705899996683001518
0.0559119991958141327 0.09143800288438797 0.00606400007382035255
0.0634149983525276184 0.0975650027394294739 -0.00295999995432794094
0.0733359977602958679 0.0740630030632019043 0.0079429997131228447
0.00738900015130639076 0.0606280006468296051 -0.0202319994568824768
0.0544600002467632294 0.102344997227191925 -0.000845999980811029673
0.0798889994621276855 0.079198002815246582 0.00243999995291233063
0.0373510010540485382 0.0683540031313896179 0.0100950002670288086
0.041808001697063446 0.0656350031495094299 0.0102469995617866516
0.0390210002660751343 0.108455002307891846 0.00363799999468028545
0.0847420021891593933 0.0439740009605884552 0.0125810001045465469
0.0934659987688064575 0.0780899971723556519 0.00152599997818470001
0.0330139994621276855 0.0443020015954971313 0.0121189998462796211
0.067285001277923584 0.0982189998030662537 -0.00774399982765316963
0.0730279982089996338 0.057261001318693161 0.0133720003068447113
0.0517529994249343872 0.087167002260684967 0.00914799980819225311
0.097300998866558075 0.0759039968252182007 0.00112999998964369297
0.0464450009167194366 0.0605049990117549896 0.00984099972993135452
0.00145500001963227987 0.0654869973659515381 -0.0180610008537769318
0.0422950014472007751 0.105278000235557556 0.00407100003212690353
0.0552709996700286865 0.0621160008013248444 0.0113949999213218689
0.0460480004549026489 0.0683009997010231018 0.0113089997321367264
0.0431069992482662201 0.0978389978408813477 0.0076419999822974205
0.0751470029354095459 0.0850270017981529236 0.000546000024769455194
0.0539570003747940063 0.0612209998071193695 0.0111670000478625298
0.0693629980087280273 0.0353219993412494659 0.0214830003678798676
0.0161630008369684219 0.0641179978847503662 -0.000743000011425465345
0.0455880016088485718 0.109898999333381653 -0.00163199997041374445
0.0394009985029697418 0.0699620023369789124 0.0107850003987550735
0.0301019996404647827 0.102265998721122742 0.00956900045275688171
0.0902149975299835205 0.0520329996943473816 0.00870800018310546875
0.0441819988191127777 0.108860000967979431 0.00034200001391582191
0.031911998987197876 0.0543030016124248505 0.00167100003454834223
0.115463003516197205 0.0799209997057914734 -0.0085049998015165329
0.0947460010647773743 0.0304809994995594025 0.000661000027321279049
0.117403499782085419 0.0738485008478164673 -0.0103505002334713936
0.100134998559951782 0.0278319995850324631 -0.0167750008404254913
0.0831599980592727661 0.0879760012030601501 -0.00292000011540949345
0.0809689983725547791 0.0891069993376731873 -0.00415199995040893555
0.0748900026082992554 0.0788329988718032837 0.0050329999066889286
0.0922089964151382446 0.0361750014126300812 0.00616500014439225197
0.063242003321647644 0.103067003190517426 -0.0109829995781183243
0.0904344990849494934 0.0638585016131401062 0.00666800001636147499
0.114157997071743011 0.0888779982924461365 -0.00856900028884410858
0.0270269997417926788 0.0457709990441799164 -0.00106699997559189796
0.106765002012252808 0.0529620014131069183 -0.00455200020223855972
0.121311001479625702 0.0560990013182163239 -0.029381999745965004
0.0301639996469020844 0.105320997536182404 0.00855899974703788757
0.0557640008628368378 0.0311580002307891846 0.0267510004341602325
0.0885550007224082947 0.100437000393867493 -0.0104040000587701797
0.0726680010557174683 0.0262484997510910034 0.0210769996047019958
0.0710230022668838501 0.101327002048492432 -0.0216160006821155548
0.0188989993184804916 0.0578670017421245575 -0.00538499979302287102
0.0724970027804374695 0.0599099993705749512 0.0122539997100830078
0.0442470014095306396 0.106702499091625214 0.00205500004813075066
0.0230180006474256516 0.049451000988483429 -0.016138000413775444
0.036130998283624649 0.0860809981822967529 0.0116050001233816147
0.0490510016679763794 0.114335998892784119 -0.0119759999215602875
0.0418529994785785675 0.0344870015978813171 0.0252739991992712021
0.128323003649711609 0.0833240002393722534 -0.0189169999212026596
0.130110993981361389 0.0717459991574287415 -0.0281249992549419403
0.0916239991784095764 0.0839399993419647217 -0.000514000013936311007
0.078415997326374054 0.0587610006332397461 0.0118070002645254135
0.0404350012540817261 0.0916000008583068848 0.0103029999881982803
0.0300019998103380203 0.0603189989924430847 0.00441600009799003601
0.0475689992308616638 0.116699002683162689 -0.0153550002723932266
0.0827570036053657532 0.0611010007560253143 0.00994300004094839096
0.0642409995198249817 0.054542001336812973 0.0152719998732209206
0.103261001408100128 0.0374930016696453094 -0.00848099961876869202
0.111256003379821777 0.0807799994945526123 -0.00597999989986419678
0.0928490012884140015 0.106572002172470093 -0.0137679995968937874
0.0587669983506202698 0.104933001101016998 -0.00808400008827447891
0.0741754993796348572 0.063882000744342804 0.0107169998809695244
0.0384620018303394318 0.0467300005257129669 0.0137679995968937874
0.0175659991800785065 0.0529050007462501526 -0.0266389995813369751
0.12826499342918396 0.0678519979119300842 -0.0287410002201795578
0.0568020008504390717 0.0291719995439052582 0.0272359997034072876
0.133895993232727051 0.0735689997673034668 -0.0355480015277862549
0.127667993307113647 0.0667449980974197388 -0.0287950001657009125
0.0759589970111846924 0.0527760013937950134 0.0144729996100068092
0.0784320011734962463 0.0998369976878166199 -0.0146650001406669617
0.0827390030026435852 0.0533749982714653015 0.0121020004153251648
0.0340679995715618134 0.0428819991648197174 0.0147329997271299362
0.0629910007119178772 0.0267970003187656403 0.0259339995682239532
0.0832270011305809021 0.0476729981601238251 0.0129629997536540031
0.0331650003790855408 0.0633269995450973511 0.00726599991321563721
0.033656001091003418 0.105319000780582428 0.00751599995419383049
0.0803060010075569153 0.0623029991984367371 0.010114000178873539
0.0790930017828941345 0.0948700010776519775 -0.00942000001668930054
0.0876405015587806702 0.0563910007476806641 0.00940600037574768066
0.0124939996749162674 0.0701500028371810913 0.0019970000721514225
0.0485359989106655121 0.104216001927852631 0.00146299996413290501
0.086483001708984375 0.115446999669075012 -0.0263250004500150681
0.0975800007581710815 0.035829499363899231 -0.000357999990228563547
0.0206499993801116943 0.0669080018997192383 0.00406900001689791679
0.0275679994374513626 0.0602880008518695831 0.00319599988870322704
0.0727730020880699158 0.0305129997432231903 0.0206710007041692734
0.0401390008628368378 0.0738639980554580688 0.0114209996536374092
0.0810289978981018066 0.0386950001120567322 0.0151920001953840256
0.0607019998133182526 0.0448849983513355255 0.0202229991555213928
0.088670000433921814 0.104921996593475342 -0.0139079997316002846
0.113640502095222473 0.0796039998531341553 -0.00730649987235665321
0.107271000742912292 0.0498499982059001923 -0.00641599996015429497
0.0248920004814863205 0.0483539998531341553 -0.0119679998606443405
0.11297299712896347 0.0586970001459121704 -0.00976200029253959656
0.026170000433921814 0.0647429972887039185 0.00528999976813793182
0.0825079977512359619 0.0783860012888908386 0.00269400002434849739
0.0933990031480789185 0.0617580004036426544 0.00580300018191337585
0.0847200006246566772 0.0326300002634525299 0.0124730002135038376
0.0654229968786239624 0.070401996374130249 0.0107509996742010117
0.121959999203681946 0.0664179995656013489 -0.0180300008505582809
0.102741003036499023 0.0349319986999034882 -0.0102639999240636826
0.0822369977831840515 0.0805379971861839294 0.00149099994450807571
0.0870580002665519714 0.0318219996988773346 0.0102709997445344925
0.0133579997345805168 0.0638710036873817444 -0.00320699997246265411
0.0578380003571510315 0.0308539997786283493 0.0264020003378391266
0.0375090017914772034 0.073434002697467804 0.0111140003427863121
0.0468939989805221558 0.116616003215312958 -0.0136050004512071609
0.0555920004844665527 0.0600019991397857666 0.0113540003076195717
0.0747049972414970398 0.108314000070095062 -0.0342839993536472321
0.0563660003244876862 0.095002003014087677 0.00379200000315904617
0.0981490015983581543 0.100134000182151794 -0.00881799962371587753
0.0376790016889572144 0.0493669994175434113 0.0101810004562139511
0.0605049990117549896 0.103422999382019043 -0.00778600014746189117
0.0833859965205192566 0.108053997159004211 -0.020030999556183815
0.115158997476100922 0.0956349968910217285 -0.0103089995682239532
0.0529199987649917603 0.111161001026630402 -0.0114799998700618744
0.0541570000350475311 0.0302770007401704788 0.0273739993572235107
0.0425730012357234955 0.0880559980869293213 0.0107209999114274979
0.0730900019407272339 0.0356520004570484161 0.0197989996522665024
0.0302629992365837097 0.0801189988851547241 0.011288999579846859
0.0914010033011436462 0.114152997732162476 -0.0208979994058609009
0.103037998080253601 0.0528299994766712189 -0.000792999984696507454
0.0913399979472160339 0.11580599844455719 -0.0226390007883310318
0.0665929988026618958 0.0478800013661384583 0.0182199999690055847
0.0176589991897344589 0.0888919979333877563 0.0111549999564886093
0.0281850006431341171 0.0558830015361309052 0.000113000001874752343
0.125221997499465942 0.0842610001564025879 -0.0157500002533197403
0.0856999978423118591 0.0737359970808029175 0.00465899985283613205
0.0480530001223087311 0.0695940032601356506 0.0115879997611045837
0.0868979990482330322 0.100349001586437225 -0.0108620002865791321
0.0987560003995895386 0.0281639993190765381 -0.00986600015312433243
0.0179990008473396301 0.062746003270149231 -0.000715999980457127094
0.0990080013871192932 0.0319329984486103058 -0.00551499985158443451
0.108889997005462646 0.0393280014395713806 -0.0227559991180896759
0.109346002340316772 0.0469850003719329834 -0.0113559998571872711
0.0242650005966424942 0.047926001250743866 -0.0168670006096363068
0.0654850006103515625 0.0986159965395927429 -0.0062620001845061779
0.0644920021295547485 0.05976099893450737 0.012385999783873558
0.0957610011100769043 0.0899140015244483948 -0.00362799991853535175
0.0714280009269714355 0.0885910019278526306 -9.79999967967160046e-05
0.0171530004590749741 0.0578910000622272491 -0.00726700015366077423
0.0327709987759590149 0.0475829988718032837 0.00722600007429718971
0.115817002952098846 0.0532420016825199127 -0.0179600007832050323
0.0186410006135702133 0.0929619967937469482 0.011638999916613102
0.0873904973268508911 0.0305100008845329285 0.00968299992382526398
0.0262219998985528946 0.0455549992620944977 -0.00415899977087974548
0.0526919998228549957 0.0815180018544197083 0.0104769999161362648
0.0880910009145736694 0.053357001394033432 0.00969500001519918442
0.0110470000654459 0.060972999781370163 -0.0099750002846121788
0.0780799984931945801 0.0858599990606307983 -0.00194200000260025263
0.0820939987897872925 0.0917560011148452759 -0.00578100001439452171
0.0642789974808692932 0.0870319977402687073 0.00497699994593858719
0.0247019995003938675 0.0438879989087581635 -0.00779999978840351105
0.101056002080440521 0.061815999448299408 0.00145500001963227987
0.0191259998828172684 0.0517730005085468292 -0.019520999863743782
0.106504000723361969 0.076076999306678772 -0.00285400007851421833
0.0695480033755302429 0.0785560011863708496 0.00725199980661273003
0.0637099966406822205 0.0958430022001266479 -0.00137600000016391277
0.106260001659393311 0.0644019991159439087 -0.00218400009907782078
0.0149100003764033318 0.0735019966959953308 0.005394000094383955
0.00264699989929795265 0.0641620010137557983 -0.0214210003614425659
0.0605200007557868958 0.0325659997761249542 0.0251620002090930939
0.0224220007658004761 0.0490060001611709595 -0.0235089994966983795
0.10364600270986557 0.106885001063346863 -0.0123870000243186951
0.0945409983396530151 0.0482689999043941498 0.00591100007295608521
0.128946006298065186 0.070165000855922699 -0.0273759998381137848
0.108865998685359955 0.0398240014910697937 -0.0206359997391700745
0.119488999247550964 0.0783670023083686829 -0.0116060003638267517
0.03466000035405159 0.08118399977684021 0.0116579998284578323
0.0269179996103048325 0.0962390005588531494 0.0113120004534721375
0.0482599996030330658 0.042116999626159668 0.0213259998708963394
0.0662380009889602661 0.100028999149799347 -0.0095030004158616066
0.0336779989302158356 0.0614540018141269684 0.0065629999153316021
0.105819001793861389 0.0506989993155002594 -0.00428299978375434875
0.0782530009746551514 0.0243289992213249207 0.0169730000197887421
0.107331998646259308 0.041273999959230423 -0.0130019998177886009
0.0284780003130435944 0.0655950009822845459 0.00665100011974573135
0.0702650025486946106 0.0518900007009506226 0.0160070005804300308
0.0582499988377094269 0.0644420012831687927 0.0117060001939535141
0.0477080009877681732 0.105656996369361877 0.000791999977082014084
0.0636610016226768494 0.0821869969367980957 0.00762799987569451332
0.0880310013890266418 0.0878570005297660828 -0.00236500008031725883
0.105198003351688385 0.0360069982707500458 -0.015533999539911747
0.0756179988384246826 0.027346000075340271 0.0191179998219013214
0.0613819994032382965 0.0955990031361579895 0.000482000003103166819
0.0751459971070289612 0.0897739976644515991 -0.0043000001460313797
0.113563001155853271 0.0460730008780956268 -0.0236200001090764999
0.0267510004341602325 0.0479429997503757477 -0.00597799988463521004
0.0776370018720626831 0.0879890024662017822 -0.00367300002835690975
0.060796000063419342 0.0772499963641166687 0.0100269997492432594
0.000357999990228563547 0.0661080032587051392 -0.0194540005177259445
0.0620630010962486267 0.0502920001745223999 0.0175059996545314789
0.12957899272441864 0.0886840000748634338 -0.0189909990876913071
0.124822996556758881 0.0700049996376037598 -0.0201219990849494934
0.0672099962830543518 0.0420910008251667023 0.0202849991619586945
