ply
format ascii 1.0
element vertex 748
property float x
property float y
property float z
end_header
0.0577185004949569702 -0.106210000813007355 0.0513234995305538177
0.0318720005452632904 -0.171536996960639954 0.0827459990978240967
0.0716750025749206543 -0.128772005438804626 0.0858640000224113464
0.0507510006427764893 -0.116320997476577759 0.060320001095533371
0.0974775031208992004 -0.094183996319770813 0.0198899991810321808
0.109728999435901642 -0.175193995237350464 0.0873809978365898132
0.130124002695083618 -0.0996759980916976929 0.0478800013661384583
0.104363001883029938 -0.115994997322559357 0.087390996515750885
0.0285650007426738739 -0.16663399338722229 0.0859929993748664856
0.0372910015285015106 -0.182750001549720764 0.0680600032210350037
0.113191001117229462 -0.180197998881340027 0.0858160033822059631
0.0919599980115890503 -0.179793506860733032 0.0844015032052993774
0.0439799986779689789 -0.120413996279239655 0.0756419971585273743
0.0420450009405612946 -0.12984900176525116 0.0854609981179237366
0.0752779990434646606 -0.164691999554634094 0.0893409997224807739
0.101282000541687012 -0.168560996651649475 0.0887020006775856018
0.133404001593589783 -0.143981993198394775 0.0760909989476203918
0.0901070013642311096 -0.193684995174407959 0.068850003182888031
0.0999620035290718079 -0.113113999366760254 0.0889210030436515808
0.1053600013256073 -0.17806050181388855 0.0862519964575767517
0.093548998236656189 -0.161359995603561401 0.0893789976835250854
0.0296059995889663696 -0.166932672262191772 0.0859133303165435791
0.0853229984641075134 -0.155256003141403198 0.0896880030632019043
0.0578646659851074219 -0.138835996389389038 0.087738335132598877
0.0802540034055709839 -0.0886500030755996704 0.0241379998624324799
0.0559169985353946686 -0.176284998655319214 0.0824780017137527466
0.041577998548746109 -0.114270001649856567 0.0605130009353160858
0.0522110015153884888 -0.149483993649482727 0.0909020006656646729
0.0596450008451938629 -0.109017997980117798 0.0682459995150566101
0.0571079999208450317 -0.110186003148555756 0.0605930015444755554
0.0929040014743804932 -0.111206002533435822 0.089818999171257019
0.0839909985661506653 -0.131643995642662048 0.0896589979529380798
0.04988899827003479 -0.158353999257087708 0.0904290005564689636
0.083043999969959259 -0.106841996312141418 0.0883800014853477478
0.114208996295928955 -0.184548497200012207 0.0837334990501403809
0.102820001542568207 -0.14760899543762207 0.0853990018367767334
0.0427910014986991882 -0.115087002515792847 0.0495060011744499207
0.077973000705242157 -0.113498002290725708 0.0871409997344017029
0.0355289988219738007 -0.153632998466491699 0.0912310034036636353
0.128031998872756958 -0.133940994739532471 0.0559620000422000885
0.0973735004663467407 -0.138329997658729553 0.0880569964647293091
0.129764005541801453 -0.134680002927780151 0.0481190010905265808
0.0262209996581077576 -0.17314949631690979 0.0801130011677742004
0.0661989971995353699 -0.0845620036125183105 0.0702650025486946106
0.0238140001893043518 -0.160861000418663025 0.0251460000872612
0.0672589987516403198 -0.0906070023775100708 0.0744189992547035217
0.0337149985134601593 -0.133633002638816833 0.0888229981064796448
0.107842996716499329 -0.155286997556686401 0.0875639989972114563
0.0748659968376159668 -0.178080007433891296 0.0836559981107711792
0.0931639969348907471 -0.178014993667602539 0.0854870006442070007
0.0963829979300498962 -0.122989997267723083 0.0892039984464645386
0.0215440001338720322 -0.177252992987632751 0.0729570016264915466
0.0768959969282150269 -0.117922000586986542 0.087117999792098999
0.0975520014762878418 -0.156940996646881104 0.0888030007481575012
0.0630569979548454285 -0.10526999831199646 0.073138996958732605
0.0230860002338886261 -0.175825998187065125 0.0758740007877349854
0.104612000286579132 -0.12743300199508667 0.0861459970474243164
0.120539002120494843 -0.132165998220443726 0.0689700022339820862
0.101628996431827545 -0.166536003351211548 0.0889374986290931702
0.0950250029563903809 -0.0992970019578933716 0.0898170024156570435
0.0455889999866485596 -0.116627499461174011 0.0670254975557327271
0.0260019991546869278 -0.147489994764328003 0.0219950005412101746
0.0497610010206699371 -0.117701001465320587 0.0672319978475570679
0.0928450003266334534 -0.0973649993538856506 0.0897260010242462158
0.0422930009663105011 -0.172167003154754639 0.0837770029902458191
0.0525830015540122986 -0.166936993598937988 0.0878690034151077271
0.0338729992508888245 -0.139139994978904724 0.0228780005127191544
0.0815630033612251282 -0.103601999580860138 0.0876559987664222717
0.0252800006419420242 -0.171788007020950317 0.0813679993152618408
0.0248089991509914398 -0.176405996084213257 0.0380179993808269501
0.109677501022815704 -0.199067994952201843 0.0660300031304359436
0.0642279982566833496 -0.152480006217956543 0.090449996292591095
0.0582390017807483673 -0.128134995698928833 0.0804480016231536865
0.116320997476577759 -0.182382002472877502 0.0850239992141723633
0.122745998203754425 -0.118756003677845001 0.070348002016544342
0.102935001254081726 -0.17184700071811676 0.0881050005555152893
0.117677003145217896 -0.0985829979181289673 0.0821160003542900085
0.117035999894142151 -0.124116003513336182 0.0770799964666366577
0.047699999064207077 -0.115662999451160431 0.0601669996976852417
0.0310260001569986343 -0.178104996681213379 0.0748940035700798035
0.0552459992468357086 -0.12117999792098999 0.0725459977984428406
0.121215999126434326 -0.115751996636390686 0.0741119980812072754
0.0378369987010955811 -0.144602999091148376 0.0912899971008300781
0.0922560021281242371 -0.161610007286071777 0.0894419997930526733
0.101139001548290253 -0.115310996770858765 0.0885069966316223145
0.0609190016984939575 -0.107277996838092804 0.070147000253200531
0.131275996565818787 -0.180912002921104431 0.0863260030746459961
0.109714999794960022 -0.12056799978017807 0.0841749981045722961
0.0240850001573562622 -0.175473004579544067 0.0369339995086193085
0.0545729994773864746 -0.174533993005752563 0.0836509987711906433
0.122974000871181488 -0.125810995697975159 0.0659589990973472595
0.0474379993975162506 -0.118932001292705536 0.0715809985995292664
0.103944003582000732 -0.0949359983205795288 0.0889569967985153198
0.0993150025606155396 -0.0939344987273216248 0.0896899998188018799
0.135671496391296387 -0.141157492995262146 0.0716374963521957397
0.126127004623413086 -0.167243003845214844 0.0880689993500709534
0.0623200014233589172 -0.0980649963021278381 0.0686199963092803955
0.0481600016355514526 -0.116099998354911804 0.0624569989740848541
0.045662999153137207 -0.115005999803543091 0.0573940016329288483
0.0576245002448558807 -0.176988005638122559 0.0821575000882148743
0.0584929995238780975 -0.186305999755859375 0.0703400000929832458
0.039769001305103302 -0.131372004747390747 0.0868000015616416931
0.0640899986028671265 -0.112861998379230499 0.0769530013203620911
0.1141510009765625 -0.148461997509002686 0.0839309990406036377
0.0577629990875720978 -0.145119994878768921 0.0898410007357597351
0.124583996832370758 -0.179477006196975708 0.0865570008754730225
0.0251429993659257889 -0.155307993292808533 0.023090999573469162
0.0598450005054473877 -0.0963400006294250488 0.0531169995665550232
0.118095003068447113 -0.1846189945936203 0.0840379968285560608
0.0585910007357597351 -0.101724997162818909 0.0534179992973804474
0.053497999906539917 -0.148923993110656738 0.0907609984278678894
0.110620997846126556 -0.107863001525402069 0.0853639990091323853
0.0693090036511421204 -0.11925700306892395 0.0831129997968673706
0.0463109984993934631 -0.166828006505966187 0.0875030010938644409
0.0662660002708435059 -0.162251994013786316 0.0897660031914710999
0.0304969996213912964 -0.133449003100395203 0.0246670003980398178
0.0614220015704631805 -0.0979589968919754028 0.0663139969110488892
0.0890759974718093872 -0.141706004738807678 0.0896399989724159241
0.104409001767635345 -0.160641998052597046 0.0887940004467964172
0.129263997077941895 -0.158537000417709351 0.0862409994006156921
0.0881000012159347534 -0.119503997266292572 0.089760996401309967
0.0928950011730194092 -0.0927269980311393738 0.020038999617099762
0.13577599823474884 -0.137687996029853821 0.0645989999175071716
0.0956209972500801086 -0.164758995175361633 0.0891999974846839905
0.139994993805885315 -0.142354503273963928 0.071770496666431427
0.103293001651763916 -0.175642997026443481 0.0870480015873908997
0.126874998211860657 -0.09989900141954422 0.0706920027732849121
0.0834679976105690002 -0.114851497113704681 0.0889535024762153625
0.14113299548625946 -0.146302998065948486 0.0763550028204917908
0.109723001718521118 -0.171183004975318909 0.088289998471736908
0.035695001482963562 -0.181207001209259033 0.0709419995546340942
0.0730009973049163818 -0.142465502023696899 0.0878299996256828308
0.0951759964227676392 -0.131863996386528015 0.0890289992094039917
0.0274599995464086533 -0.179950997233390808 0.0698819980025291443
0.0348960012197494507 -0.174796998500823975 0.080141998827457428
0.122051000595092773 -0.14590899646282196 0.0807199999690055847
0.111219502985477448 -0.0991275012493133545 0.0860730037093162537
0.141771495342254639 -0.139713004231452942 0.0660490021109580994
0.0907910019159317017 -0.0944200009107589722 0.0894280001521110535
0.0970370024442672729 -0.197242006659507751 0.0633350014686584473
0.107618503272533417 -0.112142503261566162 0.0863670036196708679
0.113692998886108398 -0.196530997753143311 0.0724890008568763733
0.126037001609802246 -0.11582300066947937 0.0634189993143081665
0.0573309995234012604 -0.107286997139453888 0.0564879998564720154
0.102407000958919525 -0.180170997977256775 0.0851129963994026184
0.0794200003147125244 -0.114331997931003571 0.0877650007605552673
0.111473999917507172 -0.199247002601623535 0.0665810033679008484
0.133397996425628662 -0.139202997088432312 0.0693079978227615356
0.0776979997754096985 -0.181127995252609253 0.0817549973726272583
0.0916400030255317688 -0.191534996032714844 0.0732489973306655884
0.11787550151348114 -0.17151699960231781 0.088164500892162323
0.137688994407653809 -0.136160001158714294 0.0512030012905597687
0.113076001405715942 -0.188644006848335266 0.0808510035276412964
0.107196003198623657 -0.0990379974246025085 0.0877839997410774231
0.124426998198032379 -0.198819994926452637 0.0723289996385574341
0.0583784990012645721 -0.102609999477863312 0.0538255013525485992
0.0571199990808963776 -0.124444000422954559 0.0766450017690658569
0.0657740011811256409 -0.169799000024795532 0.0874340012669563293
0.0753780007362365723 -0.189590007066726685 0.0708990022540092468
0.0263020005077123642 -0.167800992727279663 0.0849379971623420715
0.137494996190071106 -0.155719995498657227 0.0840379968285560608
0.0679979994893074036 -0.191467002034187317 0.0606030002236366272
0.0502500012516975403 -0.125824004411697388 0.0802870020270347595
0.0930190011858940125 -0.175853997468948364 0.0864680036902427673
0.0557379983365535736 -0.128583997488021851 0.0815265029668807983
0.0661709979176521301 -0.117101997137069702 0.0801620036363601685
0.126916006207466125 -0.113274000585079193 0.0622249990701675415
0.0311879999935626984 -0.14683300256729126 0.0217940006405115128
0.112478002905845642 -0.194462001323699951 0.0749839991331100464
0.0641200020909309387 -0.0977549999952316284 0.0720489993691444397
0.101993001997470856 -0.158381000161170959 0.0887039974331855774
0.0999559983611106873 -0.0934529975056648254 0.0896499976515769958
0.0748450011014938354 -0.118248999118804932 0.0862469971179962158
0.0282359998673200607 -0.165545001626014709 0.0866639986634254456
0.0713969990611076355 -0.191836997866630554 0.0624830015003681183
0.0843579992651939392 -0.166902005672454834 0.0889630019664764404
0.127704992890357971 -0.20479699969291687 0.0601110011339187622
0.0618730001151561737 -0.0880040004849433899 0.0517319999635219574
0.0367549993097782135 -0.15420299768447876 0.0911479964852333069
0.0553390011191368103 -0.18409399688243866 0.073246002197265625
0.0831009969115257263 -0.0919649973511695862 0.0872059985995292664
0.0258060004562139511 -0.157176002860069275 0.0902820006012916565
0.0414449982345104218 -0.178696006536483765 0.0770720019936561584
0.126056000590324402 -0.170772001147270203 0.0880659967660903931
0.12327200174331665 -0.173968002200126648 0.0878050029277801514
0.0426889993250370026 -0.143767997622489929 0.0908289998769760132
0.110013000667095184 -0.159592002630233765 0.0882880017161369324
0.125446006655693054 -0.176092997193336487 0.0874190032482147217
0.0920984968543052673 -0.152538493275642395 0.0886629968881607056
0.0840480029582977295 -0.189836993813514709 0.0734779983758926392
0.0618490017950534821 -0.184091001749038696 0.0752959996461868286
0.0360359996557235718 -0.181348994374275208 0.0707940012216567993
0.129417002201080322 -0.199692994356155396 0.0725340023636817932
0.137727007269859314 -0.136472001671791077 0.0480110011994838715
0.0983629971742630005 -0.192913994193077087 0.073228001594543457
0.113774999976158142 -0.131689995527267456 0.0787750035524368286
0.101430997252464294 -0.151913002133369446 0.0872320011258125305
0.0672160014510154724 -0.0930650010704994202 0.0751269981265068054
0.0640370026230812073 -0.151794001460075378 0.0904000028967857361
0.12471800297498703 -0.122036002576351166 0.0630109980702400208
0.130762994289398193 -0.150275006890296936 0.0820700004696846008
0.129519000649452209 -0.192616000771522522 0.0800599977374076843
0.0276609994471073151 -0.181434005498886108 0.0656329989433288574
0.0938339978456497192 -0.114844664931297302 0.0897426679730415344
0.0757530033588409424 -0.096213996410369873 0.0839210003614425659
0.0340280011296272278 -0.165664002299308777 0.0871099978685379028
0.105104997754096985 -0.144654005765914917 0.0839350000023841858
0.0736770033836364746 -0.133133992552757263 0.0872370004653930664
0.122919999063014984 -0.197126001119613647 0.0742459967732429504
0.0998430028557777405 -0.15781499445438385 0.0887740030884742737
0.125246003270149231 -0.149032995104789734 0.0822980031371116638
0.0295729991048574448 -0.181977003812789917 0.0651979967951774597
0.0847370028495788574 -0.171836003661155701 0.08760099858045578
0.059946499764919281 -0.154724493622779846 0.0906694978475570679
0.0980350002646446228 -0.116870999336242676 0.0891539976000785828
0.101249001920223236 -0.197317004203796387 0.0658710002899169922
0.129573002457618713 -0.136693999171257019 0.0659570023417472839
0.119980998337268829 -0.146730005741119385 0.0817679986357688904
0.0753064975142478943 -0.14825400710105896 0.0890304967761039734
0.0841209962964057922 -0.101783998310565948 0.0883509963750839233
0.0695794969797134399 -0.176881998777389526 0.0838449969887733459
0.0344120003283023834 -0.179526999592781067 0.0736469998955726624
0.134232997894287109 -0.169318005442619324 0.0877600014209747314
0.0362959988415241241 -0.113481000065803528 0.0634139999747276306
0.0405879989266395569 -0.1843080073595047 0.0654520019888877869
0.0910649970173835754 -0.108722999691963196 0.0897919982671737671
0.111812002956867218 -0.117299996316432953 0.0832730010151863098
0.0726300030946731567 -0.191841006278991699 0.0635859966278076172
0.124903999269008636 -0.107804000377655029 0.0710060000419616699
0.0739620029926300049 -0.172024995088577271 0.086957000195980072
0.0321910008788108826 -0.15680299699306488 0.0905560031533241272
0.107679001986980438 -0.143189996480941772 0.0825224965810775757
0.120191000401973724 -0.115107998251914978 0.0757213309407234192
0.132649004459381104 -0.184778004884719849 0.0850090011954307556
0.0696569979190826416 -0.135931000113487244 0.0856999978423118591
0.0787220001220703125 -0.123663999140262604 0.0882420018315315247
0.0289030000567436218 -0.136785998940467834 0.0234179999679327011
0.0993190035223960876 -0.100101001560688019 0.0895619988441467285
0.0518070012331008911 -0.169627994298934937 0.0864859968423843384
0.0626500025391578674 -0.14203999936580658 0.0883919969201087952
0.123558998107910156 -0.170468002557754517 0.0881500020623207092
0.114859998226165771 -0.154486998915672302 0.0865480005741119385
0.123271003365516663 -0.127156004309654236 0.0640200003981590271
0.117977999150753021 -0.13326600193977356 0.0729900002479553223
0.104098998010158539 -0.155873998999595642 0.0880640000104904175
0.129357993602752686 -0.103238001465797424 0.0615729987621307373
0.0649859979748725891 -0.172279998660087585 0.0861809998750686646
0.056586001068353653 -0.111472003161907196 0.0506949983537197113
0.0767590031027793884 -0.150061994791030884 0.0893149971961975098
0.10316699743270874 -0.16307300329208374 0.0889929980039596558
0.137795001268386841 -0.136122003197669983 0.0528710000216960907
0.0649299994111061096 -0.0842289999127388 0.0424130000174045563
0.0472839996218681335 -0.16853700578212738 0.0866909995675086975
0.117248997092247009 -0.120071999728679657 0.0779030025005340576
0.0766870006918907166 -0.0964500010013580322 0.0845189988613128662
0.0729900002479553223 -0.101199999451637268 0.082780003547668457
0.109714999794960022 -0.105829998850822449 0.0860610008239746094
0.12594999372959137 -0.10826999694108963 0.0686369985342025757
0.0618060007691383362 -0.188215002417564392 0.0675370022654533386
0.0303809996694326401 -0.126699000597000122 0.028378000482916832
0.0453910008072853088 -0.141534000635147095 0.0901210010051727295
0.138015002012252808 -0.147542998194694519 0.0783919990062713623
0.0725219994783401489 -0.0913060009479522705 0.0805760025978088379
0.084738999605178833 -0.129708006978034973 0.0896859988570213318
0.0674069970846176147 -0.184818997979164124 0.0758590027689933777
0.110250003635883331 -0.153220996260643005 0.0866570025682449341
0.111427001655101776 -0.174533993005752563 0.0876130014657974243
0.0661289989948272705 -0.12205900251865387 0.0811379998922348022
0.0966079980134963989 -0.190658003091812134 0.0758009999990463257
0.127892002463340759 -0.196606993675231934 0.0760380029678344727
0.0622290000319480896 -0.122513003647327423 0.0774620026350021362
0.0215470008552074432 -0.177867993712425232 0.0716859996318817139
0.12608000636100769 -0.114624999463558197 0.0642810016870498657
0.123301498591899872 -0.1029525026679039 0.0752869993448257446
0.0593780018389225006 -0.127330005168914795 0.0794050022959709167
0.0400470010936260223 -0.164015993475914001 0.0883750021457672119
0.0812529996037483215 -0.0941490009427070618 0.0866589993238449097
0.079167000949382782 -0.0899090021848678589 0.0851040035486221313
0.109054997563362122 -0.114100001752376556 0.0854339972138404846
0.136754006147384644 -0.144273996353149414 0.0754190012812614441
0.0322570018470287323 -0.149332001805305481 0.0916979983448982239
0.0417740009725093842 -0.123263999819755554 0.0799669995903968811
0.12874700129032135 -0.163491994142532349 0.0874930024147033691
0.113339997828006744 -0.163010001182556152 0.0884810015559196472
0.0518045015633106232 -0.156440496444702148 0.0907149985432624817
0.0875770002603530884 -0.12203100323677063 0.0897649973630905151
0.11415400356054306 -0.177182003855705261 0.0869340002536773682
0.0948209986090660095 -0.195592001080513 0.0667830035090446472
0.0595359988510608673 -0.146123006939888 0.089895002543926239
0.0996249988675117493 -0.152744993567466736 0.0876889973878860474
0.10095600038766861 -0.18167799711227417 0.0841519981622695923
0.0669300034642219543 -0.182099997997283936 0.0789510011672973633
0.0889659970998764038 -0.153542995452880859 0.089277997612953186
0.0958335027098655701 -0.158843502402305603 0.0891415029764175415
0.0230679996311664581 -0.178036004304885864 0.0416419990360736847
0.116305001080036163 -0.135675996541976929 0.0749749988317489624
0.0770799964666366577 -0.157122999429702759 0.0900029987096786499
0.115043997764587402 -0.0971499979496002197 0.0842010006308555603
0.127922996878623962 -0.176480993628501892 0.0873600021004676819
0.101911000907421112 -0.17261900007724762 0.0879049971699714661
0.0542079992592334747 -0.123245999217033386 0.075956001877784729
0.0767709985375404358 -0.135718002915382385 0.0884670019149780273
0.0312009993940591812 -0.136504992842674255 0.0235590003430843353
0.102876998484134674 -0.192035004496574402 0.0756350010633468628
0.124050997197628021 -0.101698003709316254 0.0746690034866333008
0.044153999537229538 -0.125365003943443298 0.0814680010080337524
0.118330001831054688 -0.131133005023002625 0.0731180012226104736
0.119672998785972595 -0.202308997511863708 0.0628990009427070618
0.0946429967880249023 -0.191923007369041443 0.0735739991068840027
0.0591729991137981415 -0.141197994351387024 0.0885109975934028625
0.0654949992895126343 -0.0922710001468658447 0.0722490027546882629
0.0989660024642944336 -0.16960500180721283 0.0885289981961250305
0.0206669997423887253 -0.176688998937606812 0.0402280017733573914
0.128790006041526794 -0.188373997807502747 0.0829019993543624878
0.116691000759601593 -0.190595999360084534 0.0798270031809806824
0.0831890031695365906 -0.167695999145507812 0.0887940004467964172
0.0363640002906322479 -0.112873002886772156 0.0576750002801418304
0.0991439968347549438 -0.121821001172065735 0.0886470004916191101
0.0808679983019828796 -0.115512996912002563 0.0883250012993812561
0.112304002046585083 -0.195586994290351868 0.0734610036015510559
0.105572998523712158 -0.128423005342483521 0.0855330005288124084
0.0321969985961914062 -0.177049994468688965 0.0767920017242431641
0.127453997731208801 -0.202288001775741577 0.0673339962959289551
0.101403996348381042 -0.18954700231552124 0.0781090036034584045
0.129555001854896545 -0.137719005346298218 0.068268999457359314
0.0676280036568641663 -0.128131002187728882 0.0833680033683776855
0.120683997869491577 -0.121908001601696014 0.072745002806186676
0.142067998647689819 -0.144038006663322449 0.0734200030565261841
0.123167499899864197 -0.165053501725196838 0.088079497218132019
0.115653999149799347 -0.165947005152702332 0.0885099992156028748
0.0558080002665519714 -0.122394002974033356 0.0742010027170181274
0.0456349998712539673 -0.15270000696182251 0.0911649987101554871
0.0587820000946521759 -0.162826001644134521 0.0895479992032051086
0.103445999324321747 -0.194501996040344238 0.0724119991064071655
0.0792199969291687012 -0.11677899956703186 0.0878920033574104309
0.0553530007600784302 -0.113811999559402466 0.05709800124168396
0.103472001850605011 -0.138156995177268982 0.0854550004005432129
0.0447029992938041687 -0.151145994663238525 0.0912640020251274109
0.0505760014057159424 -0.150968000292778015 0.0910279974341392517
0.0633245036005973816 -0.106463000178337097 0.0739789977669715881
0.0297685004770755768 -0.135186493396759033 0.0239749997854232788
0.120733000338077545 -0.172023996710777283 0.0880720019340515137
0.119939498603343964 -0.174960494041442871 0.087605498731136322
0.0614719986915588379 -0.157783001661300659 0.0904489979147911072
0.0766379982233047485 -0.105736002326011658 0.0857030004262924194
0.0839729979634284973 -0.127149000763893127 0.0895299986004829407
0.0536869987845420837 -0.161316007375717163 0.0898419991135597229
0.121924996376037598 -0.130612999200820923 0.06621599942445755
0.0962209999561309814 -0.175826996564865112 0.0866559967398643494
0.0733359977602958679 -0.183959007263183594 0.0782890021800994873
0.0234255008399486542 -0.169066503643989563 0.030242500826716423
0.0697550028562545776 -0.107148997485637665 0.0813060030341148376
0.0720290020108222961 -0.157168999314308167 0.090217001736164093
0.101929500699043274 -0.198727995157241821 0.0618689991533756256
0.104492001235485077 -0.135488003492355347 0.0852340012788772583
0.0606690011918544769 -0.180481001734733582 0.0793880000710487366
0.0689420029520988464 -0.125967994332313538 0.0839219987392425537
0.0253960005939006805 -0.154167994856834412 0.0227979999035596848
0.0772000029683113098 -0.141925007104873657 0.0889419987797737122
0.134762004017829895 -0.174134001135826111 0.0876649990677833557
0.0315870009362697601 -0.150845006108283997 0.0218690000474452972
0.12890799343585968 -0.105715997517108917 0.0608699992299079895
0.0758550018072128296 -0.112822003662586212 0.0861269980669021606
0.0577279999852180481 -0.117821000516414642 0.0697889998555183411
0.112043000757694244 -0.115565001964569092 0.0833910033106803894
0.119382001459598541 -0.170247003436088562 0.0882780030369758606
0.0509609989821910858 -0.175565004348754883 0.0823270007967948914
0.0641660019755363464 -0.0984890013933181763 0.0724089965224266052
0.0556159988045692444 -0.153292000293731689 0.0908579975366592407
0.034118998795747757 -0.1223440021276474 0.0811280012130737305
0.0743509978055953979 -0.0969770029187202454 0.0830570012331008911
0.0506080016493797302 -0.161137998104095459 0.0898109972476959229
0.103037998080253601 -0.0992359966039657593 0.0889400020241737366
0.0521799996495246887 -0.117591999471187592 0.065438002347946167
0.0656810030341148376 -0.115322999656200409 0.0793080031871795654
0.0531329996883869171 -0.127588003873825073 0.0812740027904510498
0.048259001225233078 -0.145090997219085693 0.0906210020184516907
0.064820997416973114 -0.168822005391120911 0.0877989977598190308
0.03223399817943573 -0.131353005766868591 0.0257559996098279953
0.104428999125957489 -0.170932993292808533 0.0883020013570785522
0.0451319999992847443 -0.122922003269195557 0.0785840004682540894
0.115681000053882599 -0.111078999936580658 0.0814009979367256165
0.0610129982233047485 -0.0922849997878074646 0.0504669994115829468
0.0293540004640817642 -0.174768999218940735 0.0789759978652000427
0.0309459995478391647 -0.159565001726150513 0.0237269997596740723
0.0433100014925003052 -0.118862003087997437 0.0733949989080429077
0.0334689989686012268 -0.156442999839782715 0.0906890034675598145
0.0687379986047744751 -0.163670003414154053 0.0894979983568191528
0.0577379986643791199 -0.187461003661155701 0.0672169998288154602
0.133541002869606018 -0.135185003280639648 0.0518564991652965546
0.0613449998199939728 -0.0902860015630722046 0.051764998584985733
0.0658570006489753723 -0.15801200270652771 0.0903500020503997803
0.0545170009136199951 -0.158923998475074768 0.0903490036725997925
0.0452945008873939514 -0.120605997741222382 0.0754244998097419739
0.0609100013971328735 -0.0976459980010986328 0.0645600035786628723
0.128784999251365662 -0.140683993697166443 0.0735120028257369995
0.078446999192237854 -0.101815000176429749 0.0861549973487854004
0.100045002996921539 -0.138844996690750122 0.0870300009846687317
0.0663440003991127014 -0.151149004697799683 0.0901850014925003052
0.0909070000052452087 -0.167986005544662476 0.088794998824596405
0.122303001582622528 -0.117301002144813538 0.0717869997024536133
0.0769859999418258667 -0.170608997344970703 0.0876979976892471313
0.0440399982035160065 -0.140388995409011841 0.0899510011076927185
0.0642910003662109375 -0.189836993813514709 0.0642250031232833862
0.142078995704650879 -0.14360499382019043 0.0728050023317337036
0.0561040006577968597 -0.164855003356933594 0.088862001895904541
0.114234000444412231 -0.152884006500244141 0.086026996374130249
0.105732500553131104 -0.172543495893478394 0.0879859998822212219
0.065125003457069397 -0.108958996832370758 0.0771259963512420654
0.0590379983186721802 -0.130559995770454407 0.0824550017714500427
0.0339969992637634277 -0.142184004187583923 0.0912420004606246948
0.0596939995884895325 -0.107119001448154449 0.0673350021243095398
0.126739993691444397 -0.184321001172065735 0.0848269984126091003
0.0622240006923675537 -0.0859429985284805298 0.0532339997589588165
0.0830409973859786987 -0.102222003042697906 0.088039003312587738
0.0839999988675117493 -0.124422997236251831 0.0894559994339942932
0.090199001133441925 -0.184106498956680298 0.0811809971928596497
0.0642089992761611938 -0.103178001940250397 0.0741700008511543274
0.11954999715089798 -0.187745004892349243 0.0823130011558532715
0.12609100341796875 -0.118032000958919525 0.0608870014548301697
0.0429020002484321594 -0.114641003310680389 0.0610300004482269287
0.127339005470275879 -0.148993998765945435 0.0818810015916824341
0.0539520010352134705 -0.1556520015001297 0.0907910019159317017
0.0260739997029304504 -0.180959999561309814 0.0660749971866607666
0.0496819987893104553 -0.180456995964050293 0.076912999153137207
0.115048997104167938 -0.178782999515533447 0.0864289999008178711
0.0812389999628067017 -0.185147002339363098 0.078648000955581665
0.104828998446464539 -0.196568995714187622 0.0693299993872642517
0.0902379974722862244 -0.116825997829437256 0.0898180007934570312
0.0610640011727809906 -0.146237000823020935 0.0897919982671737671
0.0607689991593360901 -0.0924879983067512512 0.0526119992136955261
0.103435002267360687 -0.154361993074417114 0.0877579972147941589
0.0648180022835731506 -0.14650300145149231 0.0895050019025802612
0.0642480030655860901 -0.126846000552177429 0.0805699974298477173
0.112217999994754791 -0.16165199875831604 0.0884120017290115356
0.133770003914833069 -0.160732999444007874 0.0864100009202957153
0.118166998028755188 -0.138116002082824707 0.0744419991970062256
0.126113995909690857 -0.173161998391151428 0.0878759995102882385
0.0490860007703304291 -0.116871997714042664 0.0649959966540336609
0.138989001512527466 -0.136449500918388367 0.0513965003192424774
0.129001006484031677 -0.195263996720314026 0.0776719972491264343
0.0571580007672309875 -0.154666006565093994 0.0907500013709068298
0.0320289991796016693 -0.120246000587940216 0.0344929993152618408
0.126405999064445496 -0.133469000458717346 0.0585430003702640533
0.110951997339725494 -0.131909996271133423 0.0813629999756813049
0.107478000223636627 -0.162952005863189697 0.088794998824596405
0.113346002995967865 -0.122956998646259308 0.0810730010271072388
0.107698999345302582 -0.185239002108573914 0.0826309993863105774
0.0634440034627914429 -0.0891629979014396667 0.0663219988346099854
0.0940880030393600464 -0.187234997749328613 0.0790409967303276062
0.105393998324871063 -0.192901000380516052 0.075177997350692749
0.0418989993631839752 -0.129517003893852234 0.0852750018239021301
0.0352040007710456848 -0.160611003637313843 0.0894680023193359375
0.130238994956016541 -0.151806995272636414 0.0831179991364479065
0.0682310014963150024 -0.131143003702163696 0.0842140018939971924
0.0400759987533092499 -0.138380005955696106 0.0898009985685348511
0.0590180009603500366 -0.139563992619514465 0.0878970026969909668
0.139678999781608582 -0.138021007180213928 0.0627209991216659546
0.0520379990339279175 -0.126130998134613037 0.0801120027899742126
0.115693002939224243 -0.12076299637556076 0.0793720036745071411
0.0367560014128684998 -0.118562996387481689 0.075625002384185791
0.0829119980335235596 -0.16158999502658844 0.0897049978375434875
0.053507000207901001 -0.16717199981212616 0.0878230035305023193
0.0395869985222816467 -0.173044994473457336 0.0826859995722770691
0.0384950004518032074 -0.11377599835395813 0.0622610002756118774
0.0906070023775100708 -0.137549996376037598 0.0895759984850883484
0.035165000706911087 -0.1230119988322258 0.0321579985320568085
0.0323869995772838593 -0.1514119952917099 0.0915390029549598694
0.0858400017023086548 -0.0944639965891838074 0.0883599966764450073
0.0372435003519058228 -0.136886999011039734 0.0896139964461326599
0.117318503558635712 -0.179912999272346497 0.0861169993877410889
0.0970819965004920959 -0.145850002765655518 0.0875409990549087524
0.123420000076293945 -0.113589003682136536 0.0713139995932579041
0.0617580004036426544 -0.0878849998116493225 0.0543659999966621399
0.0566839985549449921 -0.110826998949050903 0.0510540008544921875
0.0643189996480941772 -0.0952489972114562988 0.0713780000805854797
0.123241998255252838 -0.12091200053691864 0.0682070031762123108
0.104285001754760742 -0.125357002019882202 0.0865190029144287109
0.0687900036573410034 -0.186392992734909058 0.0739850029349327087
0.070384003221988678 -0.104129999876022339 0.0812520012259483337
0.105659998953342438 -0.12358199805021286 0.0860619992017745972
0.088039003312587738 -0.0891060009598731995 0.021056000143289566
0.0620290003716945648 -0.133831992745399475 0.0843060016632080078
0.100028999149799347 -0.165914997458457947 0.089023001492023468
0.0876159965991973877 -0.15719999372959137 0.0894830003380775452
0.0972229987382888794 -0.173603996634483337 0.0875030010938644409
0.043281998485326767 -0.179819002747535706 0.0760319977998733521
0.0756909996271133423 -0.131782993674278259 0.0878549963235855103
0.0375190004706382751 -0.115804001688957214 0.0701270028948783875
0.139101997017860413 -0.15008699893951416 0.0802550017833709717
0.0721179991960525513 -0.107794001698493958 0.0832379981875419617
0.0849049985408782959 -0.119529999792575836 0.0894189998507499695
0.110501997172832489 -0.142675995826721191 0.0810599997639656067
0.0878619998693466187 -0.153734996914863586 0.089438997209072113
0.0286679994314908981 -0.181177005171775818 0.0672869980335235596
0.121546998620033264 -0.163086503744125366 0.0879629999399185181
0.100126996636390686 -0.129485994577407837 0.0878089964389801025
0.0680089965462684631 -0.11316700279712677 0.0810030028223991394
0.0413650013506412506 -0.170173004269599915 0.0850989967584609985
0.115750998258590698 -0.20158599317073822 0.0624370016157627106
0.0818599984049797058 -0.187386006116867065 0.0762329995632171631
0.09782399982213974 -0.143172994256019592 0.0874959975481033325
0.0756080001592636108 -0.153970003128051758 0.0899000018835067749
0.128206506371498108 -0.142577007412910461 0.0760490000247955322
0.051773998886346817 -0.123112998902797699 0.0766239985823631287
0.126825004816055298 -0.0992259979248046875 0.0386019982397556305
0.10283699631690979 -0.105696998536586761 0.0886449962854385376
0.127039000391960144 -0.179931998252868652 0.0864930003881454468
0.109595999121665955 -0.198535993695259094 0.0672909989953041077
0.123933501541614532 -0.13589400053024292 0.0677194967865943909
0.120876498520374298 -0.129028499126434326 0.0693309977650642395
0.0568739995360374451 -0.112245000898838043 0.0617699995636940002
0.123479001224040985 -0.124729998409748077 0.0651950016617774963
0.102737002074718475 -0.124521002173423767 0.0872630029916763306
0.0282129999250173569 -0.177062004804611206 0.0755859985947608948
0.0952529981732368469 -0.120903998613357544 0.0894580036401748657
0.0674569979310035706 -0.155142992734909058 0.0903820022940635681
0.073160998523235321 -0.147820994257926941 0.0890220031142234802
0.0599949993193149567 -0.0959390029311180115 0.0523709990084171295
0.124167002737522125 -0.104850001633167267 0.0734080001711845398
0.0501880012452602386 -0.129479005932807922 0.0835559964179992676
0.118298999965190887 -0.178139999508857727 0.0867709964513778687
0.0299859996885061264 -0.142112001776695251 0.0915199965238571167
0.0693690031766891479 -0.0914499983191490173 0.0773660019040107727
0.112668998539447784 -0.102278999984264374 0.0849170014262199402
0.0569064989686012268 -0.157168000936508179 0.0905724987387657166
0.0551810003817081451 -0.115175001323223114 0.061779998242855072
0.0789410024881362915 -0.171448007225990295 0.0874779969453811646
0.0893329977989196777 -0.177329003810882568 0.0855360031127929688
0.0925799980759620667 -0.104865998029708862 0.0898159965872764587
0.125374004244804382 -0.10491199791431427 0.0713699981570243835
0.129208996891975403 -0.134794995188713074 0.0598109997808933258
0.0785610005259513855 -0.122061997652053833 0.0880730003118515015
0.10255199670791626 -0.183063998818397522 0.083486996591091156
0.0418189987540245056 -0.118575997650623322 0.0735450014472007751
0.0722369998693466187 -0.171728998422622681 0.0869780033826828003
0.0619410015642642975 -0.0886370018124580383 0.0498940013349056244
0.0591679997742176056 -0.184985995292663574 0.0730739980936050415
0.0990810021758079529 -0.103828996419906616 0.0894680023193359375
0.0639280006289482117 -0.121651999652385712 0.0790119990706443787
0.0502460002899169922 -0.137756004929542542 0.0883269980549812317
0.0333819985389709473 -0.143714994192123413 0.0219950005412101746
0.102724000811576843 -0.109723001718521118 0.088423997163772583
0.0608370006084442139 -0.177532002329826355 0.0821959972381591797
0.0939859971404075623 -0.107846997678279877 0.0898180007934570312
0.0361110009253025055 -0.113062001764774323 0.0610320009291172028
0.128407999873161316 -0.136662006378173828 0.0665870010852813721
0.116644002497196198 -0.0985449999570846558 0.0828879997134208679
0.100146003067493439 -0.198266997933387756 0.0621329993009567261
0.0412710011005401611 -0.142171993851661682 0.0906480029225349426
0.120532996952533722 -0.10872100293636322 0.0771239995956420898
0.0344510003924369812 -0.122005999088287354 0.0806820020079612732
0.112414002418518066 -0.198056995868682861 0.0695189982652664185
0.0340720005333423615 -0.133992001414299011 0.0246530007570981979
0.131793007254600525 -0.134754002094268799 0.0528259985148906708
0.122256003320217133 -0.146310001611709595 0.0809860005974769592
0.0945329964160919189 -0.185114994645118713 0.081004999577999115
0.109555996954441071 -0.195573002099990845 0.0726620033383369446
0.0219720005989074707 -0.178966999053955078 0.0443559996783733368
0.0982739999890327454 -0.176942005753517151 0.0863180011510848999
0.13726399838924408 -0.139439001679420471 0.0678599998354911804
0.0521269999444484711 -0.124649003148078918 0.078446999192237854
0.108168996870517731 -0.197102993726730347 0.0696490034461021423
0.034671001136302948 -0.162729993462562561 0.0886079967021942139
0.0757130011916160583 -0.173690006136894226 0.0863099992275238037
0.0841289982199668884 -0.145835995674133301 0.0898199975490570068
0.10294400155544281 -0.1887349933385849 0.0791829973459243774
0.065835997462272644 -0.178176999092102051 0.0823929980397224426
0.125352993607521057 -0.190718993544578552 0.0809520035982131958
0.0495980009436607361 -0.172732993960380554 0.0843150019645690918
0.0610870011150836945 -0.091724000871181488 0.0588079988956451416
0.0196219999343156815 -0.179993003606796265 0.0643090009689331055
0.0947780013084411621 -0.096267998218536377 0.0898149982094764709
0.0609409995377063751 -0.0939669981598854065 0.0611989982426166534
0.0584320016205310822 -0.143650993704795837 0.0893820002675056458
0.101782999932765961 -0.174309000372886658 0.0874229967594146729
0.10482499748468399 -0.193246006965637207 0.0746079981327056885
0.11951100081205368 -0.0965619981288909912 0.028712000697851181
0.0956029966473579407 -0.137950003147125244 0.088593997061252594
0.0442229993641376495 -0.134739995002746582 0.0878409966826438904
0.0617160014808177948 -0.0884549990296363831 0.0572989992797374725
0.123545996844768524 -0.123742997646331787 0.0656670033931732178
0.0931779965758323669 -0.195134997367858887 0.0670609995722770691
0.0390230007469654083 -0.11412300169467926 0.0501610003411769867
0.026652999222278595 -0.166258007287979126 0.0275630000978708267
0.070410996675491333 -0.142484992742538452 0.0876199975609779358
0.0237889997661113739 -0.174593999981880188 0.0358400009572505951
0.0534100010991096497 -0.137280002236366272 0.0876760035753250122
0.115800999104976654 -0.192686006426811218 0.0777259990572929382
0.0224539991468191147 -0.170996993780136108 0.0321890003979206085
0.12706400454044342 -0.107757002115249634 0.0660990029573440552
0.0588500015437602997 -0.165220007300376892 0.088853001594543457
0.126325994729995728 -0.138045996427536011 0.070410996675491333
0.0588649995625019073 -0.101204000413417816 0.0513780005276203156
0.0754159986972808838 -0.0880689993500709534 0.0823590010404586792
0.139559000730514526 -0.145155996084213257 0.0755919963121414185
0.128723993897438049 -0.171560004353523254 0.0879539996385574341
0.0947149991989135742 -0.124842002987861633 0.0894059985876083374
0.136574000120162964 -0.151805996894836426 0.0819670036435127258
0.124007999897003174 -0.196121007204055786 0.0757580026984214783
0.0433409996330738068 -0.126427993178367615 0.0826139971613883972
0.071613997220993042 -0.169572994112968445 0.0878340005874633789
0.0287439990788698196 -0.16189199686050415 0.0249109994620084763
0.112124003469944 -0.130752995610237122 0.0805749967694282532
0.127029001712799072 -0.201518997550010681 0.0687630027532577515
0.067316003143787384 -0.0947789996862411499 0.0757929980754852295
0.120076999068260193 -0.197646006941795349 0.0727550014853477478
0.0721940025687217712 -0.191412001848220825 0.064745001494884491
0.0614309981465339661 -0.0904690027236938477 0.0592150017619132996
0.126883998513221741 -0.160681992769241333 0.087086997926235199
0.0982460007071495056 -0.0962190032005310059 0.0199519991874694824
0.0366850011050701141 -0.113955996930599213 0.0652130022644996643
0.0924689993262290955 -0.158781006932258606 0.0893419981002807617
0.0265989992767572403 -0.166180998086929321 0.0275240000337362289
0.0569889992475509644 -0.122303001582622528 0.0741550028324127197
0.089264996349811554 -0.167728006839752197 0.0888340026140213013
0.121697999536991119 -0.129405006766319275 0.0672079995274543762
0.0747009962797164917 -0.167375996708869934 0.0886759981513023376
0.0452239997684955597 -0.132393002510070801 0.086465001106262207
0.108167998492717743 -0.183261007070541382 0.0839129984378814697
0.0398040004074573517 -0.116037003695964813 0.0692790001630783081
0.113732002675533295 -0.164556995034217834 0.0885559991002082825
0.109530001878738403 -0.125825002789497375 0.0835089981555938721
0.124387003481388092 -0.121322996914386749 0.0648140013217926025
0.113699503242969513 -0.198988005518913269 0.0681720003485679626
0.127121001482009888 -0.203792005777359009 0.0633940026164054871
0.0697479993104934692 -0.109338000416755676 0.0817179977893829346
0.104240000247955322 -0.107697002589702606 0.0880940034985542297
0.0515009984374046326 -0.179937005043029785 0.0780100002884864807
0.0728029981255531311 -0.167454004287719727 0.0886040031909942627
0.0820790007710456848 -0.0966959968209266663 0.0872339978814125061
0.121054999530315399 -0.192202001810073853 0.0791079998016357422
0.125470995903015137 -0.163708001375198364 0.087788999080657959
0.0495879985392093658 -0.120431996881961823 0.0733850002288818359
0.0531629994511604309 -0.17572900652885437 0.0825259983539581299
0.0788400024175643921 -0.152346998453140259 0.0896060019731521606
0.0421289987862110138 -0.149021998047828674 0.0913550034165382385
0.020031999796628952 -0.179480001330375671 0.0666349977254867554
0.0525600016117095947 -0.183633998036384583 0.0730430036783218384
0.0627470016479492188 -0.0849340036511421204 0.0594890005886554718
0.114038996398448944 -0.194242998957633972 0.075643002986907959
0.0361859984695911407 -0.172414004802703857 0.082681998610496521
0.0791030004620552063 -0.163378998637199402 0.0895740017294883728
0.125378996133804321 -0.195986002683639526 0.0761820003390312195
0.0385649986565113068 -0.179706007242202759 0.037693999707698822
0.0711740031838417053 -0.162295997142791748 0.0897900015115737915
0.0927539989352226257 -0.140013992786407471 0.0891409963369369507
0.08588399738073349 -0.170921996235847473 0.0879649966955184937
0.0999599993228912354 -0.161467999219894409 0.0890939980745315552
0.0787229984998703003 -0.189799994230270386 0.0717440024018287659
0.0837564989924430847 -0.194166004657745361 0.0639484971761703491
0.084376998245716095 -0.103807002305984497 0.0885590016841888428
0.0580530017614364624 -0.108011998236179352 0.0627709999680519104
0.0626780018210411072 -0.0842460021376609802 0.0572220012545585632
0.049265000969171524 -0.115961998701095581 0.0531889982521533966
0.0933649986982345581 -0.102385997772216797 0.0898159965872764587
0.111296996474266052 -0.1412619948387146 0.0801210030913352966
0.119785003364086151 -0.101214997470378876 0.0797440037131309509
0.0239010006189346313 -0.167524993419647217 0.0289530009031295776
0.0998210012912750244 -0.131808996200561523 0.0877249985933303833
0.1298380047082901 -0.181665003299713135 0.0860439985990524292
0.0632560029625892639 -0.169024005532264709 0.0876210033893585205
0.119901001453399658 -0.188971996307373047 0.081510499119758606
0.125275999307632446 -0.202640995383262634 0.0654449984431266785
0.0453240014612674713 -0.123503997921943665 0.0792009979486465454
0.0453639999032020569 -0.18194599449634552 0.0733869969844818115
0.0605459995567798615 -0.0945869982242584229 0.0500410012900829315
0.0713820010423660278 -0.133368000388145447 0.0862570032477378845
0.123245000839233398 -0.106072001159191132 0.0744069963693618774
0.129686996340751648 -0.15717799961566925 0.0857129991054534912
0.10282299667596817 -0.158325999975204468 0.0886299982666969299
0.069453999400138855 -0.184285998344421387 0.0770289972424507141
0.0641790032386779785 -0.115272998809814453 0.0777050033211708069
0.0360840000212192535 -0.155702993273735046 0.0908590033650398254
0.0621250011026859283 -0.149712994694709778 0.0902990028262138367
0.121399000287055969 -0.182973995804786682 0.0850899964570999146
0.0879819989204406738 -0.170068994164466858 0.0882619991898536682
0.116621002554893494 -0.18343999981880188 0.0845590010285377502
0.0489519983530044556 -0.132372006773948669 0.0857940018177032471
0.0330439992249011993 -0.17008499801158905 0.084104001522064209
0.083687998354434967 -0.193654000759124756 0.0655800029635429382
0.0912339985370635986 -0.0908439978957176208 0.0893670022487640381
0.0623290017247200012 -0.189658001065254211 0.0633170008659362793
0.10023999959230423 -0.188022002577781677 0.0793709978461265564
0.122899003326892853 -0.114620000123977661 0.0718230009078979492
0.0732600018382072449 -0.141340002417564392 0.0877669975161552429
0.0533999986946582794 -0.116178996860980988 0.04996500164270401
0.0609630011022090912 -0.140853002667427063 0.0881759971380233765
0.0460599996149539948 -0.175262004137039185 0.0817689970135688782
0.112195000052452087 -0.18442399799823761 0.0836239978671073914
0.0266580004245042801 -0.164783000946044922 0.0266670007258653641
0.0646229982376098633 -0.103402003645896912 0.0748369991779327393
0.0517540015280246735 -0.135333001613616943 0.0869859978556632996
0.12902599573135376 -0.17961999773979187 0.0866340026259422302
0.128350004553794861 -0.183736994862556458 0.0852010026574134827
0.069216996431350708 -0.107054002583026886 0.0808390006422996521
0.113802999258041382 -0.168807998299598694 0.0885009989142417908
0.0624319985508918762 -0.0903450027108192444 0.0640190020203590393
0.126613005995750427 -0.111634001135826111 0.0647950023412704468
0.0400470010936260223 -0.177515000104904175 0.0781980007886886597
0.0907879993319511414 -0.146225005388259888 0.0892509967088699341
0.0713059976696968079 -0.114331997931003571 0.0837289988994598389
0.110145002603530884 -0.113378003239631653 0.0849110037088394165
0.0621460005640983582 -0.185380995273590088 0.0734639987349510193
0.0744810029864311218 -0.107727997004985809 0.0847529992461204529
0.100354000926017761 -0.18751700222492218 0.079851001501083374
0.0747559964656829834 -0.140626996755599976 0.0882190018892288208
0.143130004405975342 -0.140790998935699463 0.0676349997520446777
0.105783998966217041 -0.127373993396759033 0.0855489969253540039
0.119047001004219055 -0.157612994313240051 0.0870580002665519714
0.0861359983682632446 -0.0989520028233528137 0.0887150019407272339
0.0511250011622905731 -0.134795993566513062 0.0868000015616416931
0.0854509994387626648 -0.166032999753952026 0.0891479998826980591
0.119995996356010437 -0.0965310037136077881 0.0291109997779130936
0.118412002921104431 -0.141238003969192505 0.077404998242855072
0.131354004144668579 -0.158506006002426147 0.0859799981117248535
0.123884998261928558 -0.129656001925468445 0.0598549991846084595
0.0492240004241466522 -0.169378995895385742 0.0863950029015541077
0.0767180025577545166 -0.152970001101493835 0.0897229984402656555
0.141120001673698425 -0.141123995184898376 0.0692680031061172485
0.0601539984345436096 -0.0972210019826889038 0.060965999960899353
0.0782120004296302795 -0.171836003661155701 0.0873019993305206299
0.110835999250411987 -0.148274004459381104 0.0843850001692771912
0.136438995599746704 -0.135886996984481812 0.0552570000290870667
0.10189799964427948 -0.118518002331256866 0.0880549997091293335
0.0301840007305145264 -0.144041001796722412 0.0219889990985393524
0.0792720019817352295 -0.150665000081062317 0.0896070003509521484
0.121973998844623566 -0.202985003590583801 0.0622939988970756531
0.140294000506401062 -0.152511999011039734 0.081725001335144043
0.141920998692512512 -0.137299999594688416 0.0565840005874633789
0.134286999702453613 -0.175148993730545044 0.0875450000166893005
0.058414999395608902 -0.105801999568939209 0.0620869994163513184
0.0720539987087249756 -0.0929979979991912842 0.080504000186920166
0.075870998203754425 -0.122412003576755524 0.0871229991316795349
0.0782879963517189026 -0.189166992902755737 0.0726950019598007202
0.138806998729705811 -0.139375999569892883 0.0669189989566802979
0.0264159999787807465 -0.177256003022193909 0.0747189968824386597
0.122910000383853912 -0.111111998558044434 0.073129996657371521
0.101094000041484833 -0.154212996363639832 0.0879419967532157898
0.0926849991083145142 -0.134515002369880676 0.0893800035119056702
0.0747689977288246155 -0.168202996253967285 0.0884440019726753235
0.113867998123168945 -0.106565997004508972 0.083553999662399292
0.105789996683597565 -0.146019995212554932 0.0840729996562004089
0.0940269976854324341 -0.104726999998092651 0.0898180007934570312
0.0595469996333122253 -0.101667001843452454 0.0628999993205070496
0.0885410010814666748 -0.194537997245788574 0.0659999996423721313
0.0925209969282150269 -0.119539998471736908 0.0897599980235099792
0.11729700118303299 -0.169570997357368469 0.0883679986000061035
