ply
format ascii 1.0
element vertex 701
property float x
property float y
property float z
end_header
0.0162259992212057114 -0.0459429994225502014 0.135545000433921814
-0.00962700042873620987 -0.0647070035338401794 0.125540003180503845
0.0823559984564781189 -0.0265089999884366989 0.127408996224403381
0.0559069998562335968 0.0211539994925260544 0.101430997252464294
0.063770003616809845 0.0175170004367828369 0.106720000505447388
0.048381999135017395 -0.0351149998605251312 0.128433004021644592
-0.00329799996688961983 0.0393380001187324524 0.11283399909734726
0.0537369996309280396 -0.00921900011599063873 0.132790997624397278
0.0500099994242191315 0.0033340000081807375 0.130456000566482544
-0.00705099990591406822 0.00181499996688216925 0.143831998109817505
0.0346020013093948364 0.0168580003082752228 0.12754000723361969
0.0238370001316070557 -0.05877700075507164 0.135613992810249329
-0.0186909995973110199 -0.00234899995848536491 0.0759529992938041687
0.00903099961578845978 0.0349569991230964661 0.114375002682209015
0.0356430001556873322 -0.0573850013315677643 0.132075995206832886
-0.0110419997945427895 -0.030575999990105629 0.115404002368450165
0.0605189986526966095 0.0161390006542205811 0.113355003297328949
0.0480060018599033356 0.00752600003033876419 0.12892499566078186
0.0685885027050971985 -0.012653999961912632 0.129934996366500854
0.0242550000548362732 0.0309389997273683548 0.106356002390384674
0.0524189993739128113 -0.0598409995436668396 0.112942002713680267
0.0797320008277893066 0.00365399988368153572 0.118629999458789825
0.0488069988787174225 -0.0465679988265037537 0.124948002398014069
-0.00592500017955899239 -0.0311890002340078354 0.120361998677253723
0.0375009998679161072 -0.0634979978203773499 0.129925996065139771
-0.0130009995773434639 -0.0506910011172294617 0.114473000168800354
0.0447250008583068848 -0.0132210003212094307 0.134449005126953125
-0.00891099963337182999 0.00727300019934773445 0.144405007362365723
0.074230000376701355 0.013418000191450119 0.107451997697353363
0.00188600004184991121 -0.0179290007799863815 0.136117994785308838
0.0217409990727901459 -0.0493590012192726135 0.136022001504898071
0.0122750001028180122 -0.0627740025520324707 0.135725006461143494
0.0339380018413066864 -0.0301089994609355927 0.135413005948066711
-0.00778400013223290443 -0.0015829999465495348 0.143404006958007812
0.0778639987111091614 -0.0298790000379085541 0.127281993627548218
0.00151450000703334808 -0.0240669995546340942 0.131148993968963623
0.0238770004361867905 -0.0144849997013807297 0.136805996298789978
-0.0136230001226067543 -0.0477459989488124847 0.110188998281955719
0.0616130009293556213 0.018515000119805336 0.10594400018453598
0.00197000009939074516 0.0365590006113052368 0.117997996509075165
0.0574439987540245056 -0.0200629997998476028 0.131758004426956177
0.00743900006636977196 -0.0615280009806156158 0.134680002927780151
-0.0230340007692575455 0.00134600000455975533 0.0762989968061447144
-0.0275779999792575836 -0.0102559998631477356 0.081849999725818634
0.0706150010228157043 -0.0563179999589920044 0.0960280001163482666
0.0398910008370876312 0.0100560002028942108 0.130390003323554993
0.0876839980483055115 0.0100490003824234009 0.102693997323513031
0.0627359971404075623 0.0189469996839761734 0.101175002753734589
0.0593720003962516785 -0.0535879991948604584 0.0985990017652511597
0.0571819990873336792 0.0179430004209280014 0.112369999289512634
0.0237029995769262314 0.014860999770462513 0.133457005023956299
0.0559520013630390167 -0.0546730011701583862 0.106027998030185699
0.0230969991534948349 0.018185000866651535 0.131472006440162659
-0.0224970001727342606 -0.0186509992927312851 0.133417993783950806
0.039737999439239502 -0.00189399998635053635 0.134942993521690369
0.0482620000839233398 -0.00017050000315066427 0.132294505834579468
0.0529239997267723083 0.0108930002897977829 0.124462001025676727
0.00467900000512599945 -0.0520169995725154877 0.132633000612258911
0.0119890002533793449 0.0199389997869729996 0.134691998362541199
0.00889400020241737366 -0.00409599998965859413 0.140800997614860535
0.0485079996287822723 -0.076237998902797699 0.10930199921131134
0.0445990003645420074 0.02239999920129776 0.113245002925395966
0.0260665006935596466 -0.0165529996156692505 0.13600100576877594
0.0169140007346868515 0.0315739996731281281 0.116558000445365906
0.0243480000644922256 -0.0352310016751289368 0.136006996035575867
0.0935150012373924255 0.00939499959349632263 0.0961280018091201782
0.0542766675353050232 0.0173266660422086716 0.115839667618274689
-0.00590000022202730179 -0.00927099958062171936 0.140839993953704834
0.00279400008730590343 0.0352139994502067566 0.121049001812934875
-0.0106429997831583023 -0.0345669984817504883 0.108747996389865875
0.0509834997355937958 -0.0651225000619888306 0.112403497099876404
0.0821280032396316528 0.00781899970024824142 0.112309999763965607
-0.000500999973155558109 -0.0461790002882480621 0.128477007150650024
0.0731159970164299011 0.000171000006957910955 0.124108999967575073
0.0683349967002868652 0.0012959999730810523 0.125190004706382751
0.0853559970855712891 -0.0366059988737106323 0.124468997120857239
0.0478719994425773621 -0.0199599992483854294 0.132929995656013489
0.0288249999284744263 -0.00268999999389052391 0.137417003512382507
-0.00758600002154707909 -0.0192159991711378098 0.134700000286102295
0.0492885001003742218 -0.0475209988653659821 0.124113999307155609
-0.0212110001593828201 -0.000495999993290752172 0.0761739984154701233
0.0591289997100830078 0.00655200006440281868 0.125266999006271362
-0.000407000014092773199 -0.0241889990866184235 0.130772992968559265
0.0465135015547275543 0.0154464999213814735 0.123133003711700439
-0.0242209993302822113 -0.00918800011277198792 0.080048002302646637
-0.00993300043046474457 -0.0646039992570877075 0.125202000141143799
-0.00918800011277198792 -0.0358889997005462646 0.113015003502368927
0.0230800006538629532 0.0307749994099140167 0.111103996634483337
0.0693989992141723633 -0.0182220004498958588 0.13007199764251709
0.0070850001648068428 -0.0373219996690750122 0.131578996777534485
0.039057999849319458 -0.0325560010969638824 0.133857995271682739
-0.00809700042009353638 0.0408940017223358154 0.108615003526210785
0.0111899999901652336 -0.0702579990029335022 0.135840997099876404
-0.014690999872982502 -0.0070549999363720417 0.142239004373550415
0.0438230000436306 0.0249749999493360519 0.100969001650810242
-0.00191700004506856203 -0.0454149991273880005 0.127149000763893127
0.0522280000150203705 -0.0497400015592575073 0.119470998644828796
0.0772389993071556091 -0.0118310004472732544 0.127734005451202393
0.0703539997339248657 -0.0284109991043806076 0.12844499945640564
0.0325010009109973907 -0.0290150009095668793 0.135680004954338074
0.0273049995303153992 0.0191939994692802429 0.128799006342887878
-0.017312999814748764 0.00739500019699335098 0.0748630017042160034
0.0694599971175193787 -0.0392949990928173065 0.123392999172210693
-0.0141209997236728668 -0.0191130004823207855 0.134133994579315186
0.00469199987128376961 0.012833000160753727 0.140386998653411865
0.000521000009030103683 -0.0365800000727176666 0.126909002661705017
0.0456909984350204468 0.0216049998998641968 0.114220000803470612
-0.0178040005266666412 -0.0572180002927780151 0.100561998784542084
0.0619570016860961914 -0.0389560014009475708 0.123352997004985809
0.00770500022917985916 -0.0595280006527900696 0.134592995047569275
-0.0037179999053478241 -0.0218240004032850266 0.132705003023147583
0.0648090019822120667 0.01750200055539608 0.105494000017642975
0.0166749991476535797 0.0302850008010864258 0.120053000748157501
-0.00172199995722621679 -0.033137001097202301 0.123783998191356659
0.0519669987261295319 -0.00314699998125433922 0.132154002785682678
0.0245510004460811615 -0.0701690018177032471 0.134756997227668762
-0.00753000006079673767 -0.0239129997789859772 0.129919007420539856
0.0549549981951713562 0.00916699972003698349 0.125020995736122131
0.0309890005737543106 -0.0323520004749298096 0.135744005441665649
-0.0124735003337264061 -0.0644354969263076782 0.122309498488903046
0.0849559977650642395 -0.0144339995458722115 0.126374006271362305
0.0837970003485679626 0.00810499954968690872 0.110660001635551453
0.0306609999388456345 -0.045839998871088028 0.135093003511428833
0.0173879992216825485 0.0210020001977682114 0.131666004657745361
0.0321989990770816803 -0.0131620001047849655 0.13624100387096405
0.0832760035991668701 0.011649000458419323 0.102677002549171448
0.0317550003528594971 -0.038704998791217804 0.135318994522094727
0.0173330008983612061 0.0229770001024007797 0.129933997988700867
0.0532130002975463867 -0.0498729981482028961 0.117775000631809235
0.0104630002751946449 0.0175560005009174347 0.136681005358695984
0.0143579998984932899 0.0303259994834661484 0.121857002377510071
0.0919189974665641785 -0.0109329996630549431 0.123356997966766357
0.079690001904964447 0.0125019997358322144 0.104185998439788818
0.0874219983816146851 -0.0221740007400512695 0.126797005534172058
0.0785539969801902771 0.0122029995545744896 0.10636100172996521
0.0682659968733787537 -0.0197059996426105499 0.130215004086494446
0.0758299976587295532 -0.0563479997217655182 0.102481000125408173
0.0220410004258155823 0.0315969996154308319 0.107349999248981476
-0.00666399998590350151 0.039570000022649765 0.118313997983932495
0.0655030012130737305 -0.0306540001183748245 0.12803100049495697
0.0587619990110397339 -0.0111130001023411751 0.131895005702972412
0.0797130018472671509 -0.0502200014889240265 0.114647001028060913
0.0187420006841421127 0.0133560001850128174 0.135978996753692627
0.0497720018029212952 -0.0161210000514984131 0.133405998349189758
-0.0153099996969103813 -0.0589369982481002808 0.114999003708362579
0.0115653332322835922 0.0287056658416986465 0.126406669616699219
-0.000495999993290752172 0.0267204996198415756 0.13475799560546875
0.0509830005466938019 0.0153280002996325493 0.120833002030849457
0.051098998636007309 0.00759299984201788902 0.127750992774963379
0.0436399988830089569 -0.0639839991927146912 0.124729998409748077
0.0515969991683959961 -0.0663760006427764893 0.109108000993728638
-0.00496800011023879051 -0.0427369996905326843 0.123327001929283142
0.0526500009000301361 -0.0656009986996650696 0.104446999728679657
0.00789199955761432648 0.0134460004046559334 0.13931100070476532
-0.00393099989742040634 0.00753499986603856087 0.143396005034446716
0.0979589968919754028 -0.000199000001884996891 0.113491997122764587
0.0872839987277984619 -0.0265695005655288696 0.126648500561714172
0.0214189998805522919 0.0310759991407394409 0.112424999475479126
-0.00946199987083673477 -0.0480539985001087189 0.119537003338336945
0.074498496949672699 -0.0200280006974935532 0.129136994481086731
0.0480439998209476471 -0.0800819993019104004 0.105685003101825714
0.0707570016384124756 -0.00218200008384883404 0.126232996582984924
0.00381999998353421688 -0.0331609994173049927 0.128704994916915894
0.0274250004440546036 0.0293000005185604095 0.110968001186847687
0.0658560022711753845 -0.0143139995634555817 0.130661994218826294
-0.0159719996154308319 -0.0587639994919300079 0.113269001245498657
0.00572700006887316704 0.026000000536441803 0.132606998085975647
0.0654990002512931824 -0.0130829997360706329 0.130657002329826355
0.0548340007662773132 0.0175700001418590546 0.115039996802806854
-0.0121569996699690819 -0.0397260002791881561 0.105265997350215912
-0.00858699996024370193 -0.0420459993183612823 0.11794000118970871
-0.0187529996037483215 -0.0603540018200874329 0.100004002451896667
0.0510109998285770416 0.0136709995567798615 0.122712999582290649
0.0473369993269443512 -0.0809660032391548157 0.108079999685287476
0.0787049978971481323 -0.0528020001947879791 0.111009001731872559
-0.0177055001258850098 -0.0570780001580715179 0.102973498404026031
0.00506100011989474297 0.00258799991570413113 0.141846001148223877
0.0442705005407333374 -0.0484525002539157867 0.128426998853683472
-0.00557200005277991295 0.0401620008051395416 0.11094299703836441
0.0139859998598694801 -0.0104149999096989632 0.138919994235038757
0.0619776658713817596 -0.00522299995645880699 0.13004167377948761
0.0239330008625984192 -0.00157900003250688314 0.138336002826690674
0.0451290011405944824 -0.0567709989845752716 0.125479996204376221
0.0628319978713989258 -0.0215339995920658112 0.13080500066280365
0.00885900016874074936 -0.0230000000447034836 0.132753998041152954
-0.00479099992662668228 0.00304350000806152821 0.143591001629829407
-0.0275539997965097427 -0.0260589998215436935 0.114050999283790588
0.0840990021824836731 -0.0281160008162260056 0.126912996172904968
-0.00143900001421570778 0.00674699991941452026 0.142941996455192566
-0.0104834996163845062 -0.0428115017712116241 0.114661499857902527
0.0389689989387989044 -0.0211169999092817307 0.134945005178451538
0.0666399970650672913 -0.0044359997846186161 0.128489002585411072
0.0872780010104179382 0.0042500002309679985 0.114077001810073853
0.0295543335378170013 -0.00121233332902193069 0.13715033233165741
0.0518564991652965546 0.00266949995420873165 0.130138501524925232
-0.00337500008754432201 0.00335399992763996124 0.143362998962402344
0.0719610005617141724 0.000995000009424984455 0.124040000140666962
0.0210570003837347031 0.00671300012618303299 0.137725993990898132
0.0174263324588537216 0.0196269992738962173 0.132725998759269714
0.0814459994435310364 -0.0452609993517398834 0.119552001357078552
0.0182370003312826157 0.0121689997613430023 0.136665001511573792
-0.0061114998534321785 -0.0173384994268417358 0.136282995343208313
-0.00334100006148219109 0.0234869997948408127 0.138224005699157715
0.00781499966979026794 -0.0101889995858073235 0.13955099880695343
-0.00480799982324242592 -0.023264000192284584 0.131116002798080444
0.0731189996004104614 -0.00373900006525218487 0.126210004091262817
0.0904690027236938477 -0.00999999977648258209 0.123429998755455017
-0.0126949995756149292 -0.043000001460313797 0.108055002987384796
-0.00431399978697299957 -0.0122490003705024719 0.139406993985176086
0.0567129999399185181 -0.0544649995863437653 0.1032710000872612
0.00897600036114454269 0.0355640016496181488 0.110536001622676849
0.0179689992219209671 -0.00806200038641691208 0.138955995440483093
-0.00734499981626868248 -0.0415150001645088196 0.119695998728275299
0.0792590007185935974 -0.0461420007050037384 0.118684999644756317
0.0843819975852966309 0.0042249998077750206 0.115688003599643707
0.0715150013566017151 -0.0154320001602172852 0.129587993025779724
0.0494044981896877289 -0.0440730005502700806 0.125128492712974548
0.00156300002709031105 0.0371170006692409515 0.116415500640869141
0.058292001485824585 -0.0515390001237392426 0.107565999031066895
-0.00881399959325790405 -0.0465210005640983582 0.119804002344608307
-0.0167820006608963013 0.00148199999239295721 0.0748789981007575989
0.0579935014247894287 0.0190529990941286087 0.108599498867988586
0.016969999298453331 -0.0488170012831687927 0.13576999306678772
0.00666500022634863853 -0.0486599989235401154 0.133046999573707581
0.0767280012369155884 0.0141660002991557121 0.101701997220516205
-0.0069645000621676445 -0.0390699990093708038 0.119098998606204987
0.0647030025720596313 -0.00868999958038330078 0.130186006426811218
-0.0126780001446604729 0.0258140005171298981 0.0808589980006217957
0.0774660035967826843 -0.0330599993467330933 0.126344993710517883
-0.0177190005779266357 -0.0578560009598731995 0.1053600013256073
-0.0179159995168447495 -0.0228470005095005035 0.128967002034187317
0.0505679994821548462 0.0224890001118183136 0.105076998472213745
0.0701034963130950928 -0.00765600008890032768 0.128535002470016479
0.0404260009527206421 -0.0519209988415241241 0.130347996950149536
0.0920749977231025696 -0.0119690001010894775 0.123719997704029083
0.035645999014377594 -0.0423780009150505066 0.133992001414299011
-0.0246019996702671051 -0.014519999735057354 0.0836089998483657837
0.0820029973983764648 -0.00875800009816884995 0.125517994165420532
0.0508010014891624451 0.000842000008560717106 0.131226003170013428
0.0119660003110766411 -0.036146998405456543 0.133619993925094604
-0.00350000010803341866 -0.0478999987244606018 0.12644900381565094
0.011632000096142292 0.024122999981045723 0.131577998399734497
0.00783099979162216187 0.0359780006110668182 0.109856002032756805
-0.00494199991226196289 -0.039207998663187027 0.122025996446609497
0.0347400009632110596 -0.0377090014517307281 0.134710997343063354
0.0350259989500045776 -0.0274199992418289185 0.135361000895500183
0.0236360002309083939 -0.0682189986109733582 0.135116994380950928
-0.0148050002753734589 -0.0258259996771812439 0.125074997544288635
0.0263640005141496658 0.0303509999066591263 0.104442000389099121
0.0610559992492198944 0.0192530006170272827 0.103206001222133636
0.0427090004086494446 -0.0318619981408119202 0.13246600329875946
0.0328090004622936249 -0.0400560013949871063 0.135018005967140198
0.0461769998073577881 -0.0308200009167194366 0.130786001682281494
0.0494159981608390808 -0.0692069977521896362 0.113242000341415405
0.0142839998006820679 -0.0464340001344680786 0.1352120041847229
0.0633419975638389587 0.018512999638915062 0.103065997362136841
0.0701450034976005554 0.0143900001421570778 0.108935996890068054
0.0537759996950626373 -0.0295289997011423111 0.129084005951881409
0.0917159989476203918 0.000214999992749653757 0.116187997162342072
0.0546480007469654083 0.0201350003480911255 0.109035998582839966
0.0481830015778541565 0.00600299984216690063 0.129752501845359802
0.0398579984903335571 0.0223949998617172241 0.117352001368999481
0.0612509995698928833 0.0189559999853372574 0.104423001408576965
0.000645999971311539412 0.028511999174952507 0.132590994238853455
0.0644370019435882568 -0.0542029999196529388 0.0988000035285949707
0.0510619990527629852 0.00113099999725818634 0.131032004952430725
-0.0209049992263317108 0.00735899992287158966 0.0754889994859695435
-0.0162259992212057114 -0.0654980018734931946 0.117201000452041626
0.0568130016326904297 -0.0445830002427101135 0.117757998406887054
-0.0135719999670982361 -0.01053600013256073 0.140518993139266968
0.0345049984753131866 -0.0211009997874498367 0.135737001895904541
0.0820910036563873291 -0.0172460004687309265 0.127527996897697449
0.0587100014090538025 0.00120499997865408659 0.128593996167182922
0.0502609983086585999 -0.0581989996135234833 0.118423998355865479
0.056862998753786087 -0.035693001002073288 0.125499993562698364
0.0454410016536712646 -0.0219870004802942276 0.132725998759269714
0.0256820004433393478 -0.0294690001755952835 0.135989993810653687
0.0396389998495578766 0.0142489997670054436 0.127513006329536438
0.0144130000844597816 0.0108000002801418304 0.138315007090568542
0.0487550012767314911 -0.0731069967150688171 0.111749999225139618
0.0131449997425079346 -0.0612850002944469452 0.135765999555587769
0.0357660017907619476 -0.0467850007116794586 0.133462995290756226
-0.0196020007133483887 -0.0642549991607666016 0.105963997542858124
0.0673940032720565796 -0.0229150000959634781 0.129975005984306335
0.0545280016958713531 0.0191300008445978165 0.111974999308586121
0.0181029997766017914 0.0165180005133152008 0.134522005915641785
-0.0262320004403591156 -0.0261320006102323532 0.116221003234386444
-0.00206399988383054733 -0.0371990017592906952 0.124641001224517822
0.0122210001572966576 0.0279520004987716675 0.127058997750282288
0.0725789964199066162 -0.0125080002471804619 0.129011005163192749
0.0495770014822483063 -0.0395600013434886932 0.126269996166229248
-0.00427900021895766258 -0.0632499977946281433 0.129556000232696533
-0.0144339995458722115 -0.0468580015003681183 0.104679003357887268
0.012303999625146389 0.00163800001610070467 0.140485003590583801
0.0170350000262260437 -0.00447800010442733765 0.139532998204231262
0.0322284996509552002 -0.0621275007724761963 0.132971495389938354
-0.0146810002624988556 -0.0597190000116825104 0.116745002567768097
-0.0119839999824762344 -0.0192395001649856567 0.134248495101928711
0.00222899997606873512 -0.0669329985976219177 0.13354000449180603
0.0129310004413127899 -0.0401289984583854675 0.134363994002342224
0.000475999986520037055 0.024457000195980072 0.136103004217147827
0.063295997679233551 -0.0350590012967586517 0.125973999500274658
0.0600529983639717102 -0.0144899999722838402 0.131791993975639343
0.0397900007665157318 -0.0544589981436729431 0.130257993936538696
0.0667899996042251587 -0.0465719997882843018 0.116616003215312958
0.0153839997947216034 0.0336080007255077362 0.109218001365661621
0.076600000262260437 -0.0406389981508255005 0.122662000358104706
0.0174349993467330933 -0.0650539994239807129 0.136008992791175842
0.0278159994632005692 0.0144520001485943794 0.132192999124526978
0.0507999993860721588 -0.0694409981369972229 0.108542002737522125
0.0336700007319450378 0.0210519991815090179 0.123535998165607452
-0.00930000003427267075 -0.0227339994162321091 0.131001994013786316
0.049100000411272049 0.0214269999414682388 0.111354999244213104
0.0747649967670440674 -0.0155520001426339149 0.128938004374504089
0.0518844984471797943 -0.0387725010514259338 0.124522000551223755
-0.0201970003545284271 -0.028370000422000885 0.112438999116420746
0.0540920011699199677 -0.0309779997915029526 0.1283549964427948
-0.00988849997520446777 0.0397499985992908478 0.0999194979667663574
0.0824910029768943787 -0.0385009981691837311 0.123773001134395599
-0.00798099953681230545 0.010948999784886837 0.143928006291389465
0.0959239974617958069 0.00869399961084127426 0.0953539982438087463
0.0360840000212192535 -0.0503260008990764618 0.132875993847846985
-0.0203655008226633072 -0.000361999991582706571 0.0759365037083625793
0.0681859999895095825 -0.0433450005948543549 0.120149999856948853
-0.01307700015604496 -0.0423329994082450867 0.104218997061252594
0.00663099996745586395 0.0360679998993873596 0.112709000706672668
0.0753690004348754883 -0.0299139991402626038 0.127541005611419678
0.0654319971799850464 0.0153480004519224167 0.110973000526428223
-0.0109919998794794083 -0.0539710000157356262 0.119972996413707733
0.0305739995092153549 -0.0446350015699863434 0.135187000036239624
0.0548750013113021851 -0.0515559986233711243 0.113237001001834869
0.00124200002755969763 -0.00336700002662837505 0.141934007406234741
0.0713400021195411682 0.00984600000083446503 0.116107001900672913
0.0600599981844425201 0.0143659999594092369 0.116704002022743225
0.0386550016701221466 -0.0250000003725290298 0.134709998965263367
0.0536370016634464264 0.00747099984437227249 0.126821994781494141
0.021053999662399292 0.00892200041562318802 0.137050002813339233
0.00145300000440329313 -0.056871999055147171 0.131782993674278259
0.0502130016684532166 -0.0730189979076385498 0.105728000402450562
0.0434990003705024719 -0.0194090008735656738 0.133741006255149841
0.0468919984996318817 -0.0807790011167526245 0.110076002776622772
-0.00233749998733401299 -0.00314299995079636574 0.142424494028091431
0.0448770001530647278 0.0104339998215436935 0.128234997391700745
0.042125999927520752 -0.0668750032782554626 0.125380992889404297
-0.00843000039458274841 -0.0244730003178119659 0.129041001200675964
-0.0158354993909597397 0.00693299993872642517 0.0745925009250640869
0.0242519993335008621 -0.0655239969491958618 0.13516099750995636
0.0295279994606971741 -0.0793540030717849731 0.131738007068634033
0.00273899990133941174 0.0155889997258782387 0.140034005045890808
-0.000498000008519738913 0.0376800000667572021 0.117137998342514038
0.0524899996817111969 -0.0664810016751289368 0.103125996887683868
0.0847840011119842529 -0.0211430005729198456 0.127266004681587219
0.0558670014142990112 0.0153050003573298454 0.117964997887611389
0.0955149978399276733 0.0021200000774115324 0.11207900196313858
0.0610830001533031464 -0.0170889999717473984 0.131564006209373474
0.0267319995909929276 -0.0395659990608692169 0.135938003659248352
0.0470959991216659546 -0.0705299973487854004 0.117319002747535706
0.0371720008552074432 0.0173659995198249817 0.125808998942375183
-0.0128830000758171082 -0.0109449997544288635 0.140285998582839966
0.00781700015068054199 -0.0407130010426044464 0.132469996809959412
0.0355679988861083984 0.0104809999465942383 0.131721004843711853
0.0435989983379840851 -0.0522679984569549561 0.128036007285118103
0.0476859994232654572 -0.0244839992374181747 0.131605997681617737
0.070044003427028656 -0.00995699968189001083 0.129125997424125671
0.0856769979000091553 0.00719999987632036209 0.110863998532295227
0.0466779991984367371 0.0231509990990161896 0.108505003154277802
0.0370239987969398499 0.0261729992926120758 0.110036000609397888
0.0540799982845783234 0.014348999597132206 0.120295003056526184
0.0427399985492229462 -0.0779630020260810852 0.120617002248764038
0.0416380017995834351 -0.00753000006079673767 0.135131999850273132
-0.00495300022885203362 0.0394689999520778656 0.115943998098373413
0.0309629999101161957 0.0218470003455877304 0.124076001346111298
-0.00516900001093745232 0.0310159996151924133 0.13294200599193573
0.0507850013673305511 0.0192889999598264694 0.11482200026512146
0.0485239997506141663 0.00883499998599290848 0.12790699303150177
0.0810279995203018188 0.00999800022691488266 0.109241999685764313
0.0621239989995956421 -0.0145479999482631683 0.131420999765396118
0.0525010004639625549 -0.00508099980652332306 0.132449999451637268
0.0189999993890523911 0.00606600008904933929 0.13838900625705719
0.0406400002539157867 0.0170629993081092834 0.124412000179290771
0.0305829998105764389 -0.0437560006976127625 0.135241001844406128
0.0821150019764900208 -0.0186810009181499481 0.127649500966072083
0.00373100000433623791 -0.0065729999914765358 0.140955999493598938
-0.0108120003715157509 0.0328149981796741486 0.0873019993305206299
-0.0101600000634789467 -0.0132755003869533539 0.138905003666877747
0.0398249998688697815 -0.0791250020265579224 0.123818002641201019
0.0328719988465309143 -0.00961699988692998886 0.136614993214607239
0.0648420006036758423 -0.0535920001566410065 0.102342002093791962
0.0272269994020462036 0.0212660003453493118 0.126791000366210938
0.00965300016105175018 -0.0079279998317360878 0.139989003539085388
0.0286650005728006363 -5.40000000910367817e-05 0.137189000844955444
0.0483039990067481995 -0.0452959984540939331 0.125811994075775146
0.0343119986355304718 0.0255880001932382584 0.115074001252651215
-0.0267830006778240204 -0.0223549995571374893 0.0940029993653297424
0.0589720010757446289 -0.04859200119972229 0.112240001559257507
0.0510170012712478638 -0.0200270004570484161 0.132576003670692444
0.00932400021702051163 -0.0473590008914470673 0.133917003870010376
0.0738129988312721252 -0.0529390014708042145 0.109209001064300537
-0.00108700001146644354 0.0387310013175010681 0.111346997320652008
0.0794389992952346802 0.00730900000780820847 0.114684998989105225
0.0882660001516342163 0.00777800008654594421 0.107900999486446381
-0.0202629994601011276 -0.0267650000751018524 0.119980998337268829
-0.00999800022691488266 0.0134594999253749847 0.144007503986358643
0.0938905030488967896 -0.0104000000283122063 0.122529998421669006
0.00897399988025426865 0.00771299982443451881 0.140542000532150269
-0.00294049992226064205 0.00121749995741993189 0.143141001462936401
0.0718180015683174133 -0.0313809998333454132 0.127358004450798035
-0.01307700015604496 -0.0418739989399909973 0.101778998970985413
0.00788599997758865356 -0.00691499980166554451 0.140420004725456238
0.0278220009058713913 -0.023281000554561615 0.136004000902175903
0.0535789988934993744 -0.0538909994065761566 0.114559002220630646
0.031922999769449234 -0.0667229965329170227 0.132469996809959412
-0.0301680006086826324 -0.0244420003145933151 0.102530002593994141
-0.00766499992460012436 0.040567498654127121 0.114578500390052795
0.0357180014252662659 0.0274229999631643295 0.103881999850273132
0.0495949983596801758 -0.0569359995424747467 0.120077997446060181
0.019540000706911087 0.0195589996874332428 0.131923004984855652
0.0444860011339187622 -0.0717009976506233215 0.120885998010635376
0.0783369988203048706 -0.047357998788356781 0.117459997534751892
0.0819519981741905212 -0.000939999998081475496 0.121423996984958649
0.051082998514175415 -0.0658790022134780884 0.111442998051643372
-0.025281999260187149 -0.0143079999834299088 0.0837310031056404114
0.0534060001373291016 -0.00187699997331947088 0.131392002105712891
0.0213660001754760742 0.0263379998505115509 0.123701997101306915
0.0172300003468990326 0.0303649995476007462 0.119437001645565033
-0.00294100004248321056 0.0391039997339248657 0.113784000277519226
0.0441970005631446838 -0.0623649992048740387 0.124668002128601074
0.0775720030069351196 -0.0557219982147216797 0.105219997465610504
0.0474179983139038086 -0.0176229998469352722 0.133482992649078369
0.0223584994673728943 -0.0542444996535778046 0.135927006602287292
0.0497720018029212952 -0.0627669990062713623 0.116800002753734589
0.0681810006499290466 0.000557999999728053808 0.125687003135681152
0.0924139991402626038 0.00982700008898973465 0.0955739989876747131
0.0705259963870048523 -0.0529629997909069061 0.107791997492313385
-0.00545800011605024338 0.0268900003284215927 0.136756002902984619
0.0553320012986660004 -0.0343015007674694061 0.126389995217323303
0.00283799995668232441 0.0331909991800785065 0.125210002064704895
0.0720800012350082397 -0.00583000015467405319 0.127382993698120117
0.0200629997998476028 0.0322230011224746704 0.10729999840259552
0.0449570007622241974 -0.0290859993547201157 0.131760001182556152
0.0343299992382526398 -0.0243769995868206024 0.135627999901771545
0.0341529995203018188 -0.0738869979977607727 0.130017995834350586
0.0837764963507652283 -0.000820000015664845705 0.1206045001745224
-0.0176929999142885208 0.0271419994533061981 0.0816240012645721436
0.037172999233007431 -0.0364880003035068512 0.134085997939109802
0.00505700008943676949 0.0135099999606609344 0.140077993273735046
0.0603279992938041687 0.00251000002026557922 0.127400994300842285
0.0691019967198371887 -0.0349350012838840485 0.125943005084991455
-0.0207380000501871109 -0.0214690007269382477 0.130237996578216553
-0.0284770000725984573 -0.00492000021040439606 0.0794759988784790039
0.0665239989757537842 0.00234299991279840469 0.125229001045227051
0.00654400000348687172 -0.0416390001773834229 0.131999000906944275
0.0709590017795562744 0.0122349997982382774 0.112712003290653229
0.00471800006926059723 -0.0174310002475976944 0.136453002691268921
0.0146380001679062843 0.0293240007013082504 0.123443000018596649
0.0467809997498989105 -0.0777949988842010498 0.113196998834609985
0.0293480008840560913 -0.0536289997398853302 0.134843006730079651
0.07875099778175354 -0.0188260003924369812 0.128338992595672607
0.0037630000151693821 -0.0430409982800483704 0.130709007382392883
0.0764539986848831177 -0.0159779991954565048 0.128624007105827332
-0.00219999998807907104 0.0206870008260011673 0.139374002814292908
-0.00996000040322542191 -0.032586999237537384 0.113275997340679169
0.046847999095916748 -0.0847999975085258484 0.103265002369880676
-0.0147099997848272324 0.0202639997005462646 0.0777380019426345825
0.0150159997865557671 0.00613400014117360115 0.139375001192092896
0.0427439995110034943 -0.0610929988324642181 0.126458004117012024
0.0748940035700798035 -0.0574470013380050659 0.0967470034956932068
0.0293780006468296051 -0.0670130029320716858 0.133511006832122803
0.0809760019183158875 0.0134540004655718803 0.0962919965386390686
0.051157001405954361 -0.0679740011692047119 0.108911998569965363
0.0345720015466213226 0.0177800003439188004 0.126671001315116882
0.00410600006580352783 -0.0590719990432262421 0.133313998579978943
0.0424159988760948181 -0.0510639995336532593 0.129194006323814392
0.044826999306678772 -0.0528689995408058167 0.126871004700660706
-0.00906599964946508408 -0.00360599998384714127 0.143050998449325562
0.00980699993669986725 -0.00291200005449354649 0.140795007348060608
-0.0139549998566508293 -0.0464529991149902344 0.107101000845432281
0.0447500012814998627 -0.0384129993617534637 0.130245000123977661
0.0333269983530044556 0.0198660008609294891 0.125121995806694031
-0.00553299998864531517 -0.0452780015766620636 0.123571000993251801
-0.00892200041562318802 0.0214510001242160797 0.0781700015068054199
0.037521999329328537 -0.038545999675989151 0.133755996823310852
0.049433000385761261 -0.0373690016567707062 0.127028003334999084
0.0387849994003772736 -0.0217989999800920486 0.13493800163269043
0.0149849997833371162 -0.0736970007419586182 0.135995000600814819
0.0450979992747306824 -0.0543350018560886383 0.126208007335662842
0.0322039984166622162 0.0152679998427629471 0.129886999726295471
0.03767399862408638 0.0161339994519948959 0.126791000366210938
0.00802099984139204025 -0.0555300004780292511 0.134320005774497986
0.031279001384973526 0.0127090001478791237 0.131963998079299927
-0.0238589998334646225 -0.0117750000208616257 0.0813919976353645325
0.0745360031723976135 -0.0556659996509552002 0.103500001132488251
-0.000652000016998499632 -0.0137799996882677078 0.138539999723434448
0.0670979991555213928 -0.0399589985609054565 0.122855998575687408
0.085892997682094574 0.00277999998070299625 0.116483002901077271
0.00824199989438056946 -0.00187000003643333912 0.141130998730659485
0.000514000013936311007 0.0317859984934329987 0.12887999415397644
0.0647530034184455872 -0.00555300014093518257 0.129373997449874878
0.0699089989066123962 -0.0419169999659061432 0.121494002640247345
0.0475249998271465302 -0.08180999755859375 0.105562001466751099
0.0594290010631084442 -0.0176790002733469009 0.131768003106117249
0.0750200003385543823 -0.045331999659538269 0.119015000760555267
0.0508910007774829865 -0.0715219974517822266 0.103802002966403961
0.0576759986579418182 0.00513399997726082802 0.12680700421333313
0.0279300007969141006 0.027518000453710556 0.116333000361919403
0.070004001259803772 -0.0562679991126060486 0.094273000955581665
0.0463300012052059174 -0.0242459997534751892 0.131961002945899963
0.0420319996774196625 -0.000644000014290213585 0.134093999862670898
0.0652529969811439514 0.01501499954611063 0.111801996827125549
0.0159224998205900192 -0.0223434995859861374 0.133960500359535217
0.0505039989948272705 -0.072186000645160675 0.105438001453876495
-0.0223120003938674927 -0.0275229997932910919 0.114386998116970062
0.00816099997609853745 -0.0453939996659755707 0.133256003260612488
0.0597819983959197998 0.0192120000720024109 0.105636999011039734
-0.00685299979522824287 0.0118180001154541969 0.143549993634223938
0.0805210024118423462 -0.00413199979811906815 0.123928003013134003
-0.0155560001730918884 -0.050124000757932663 0.103221997618675232
0.0562514998018741608 0.020542999729514122 0.105108000338077545
0.0411190018057823181 0.0251340009272098541 0.108216002583503723
0.0180430002510547638 0.0254110004752874374 0.126927003264427185
0.0719589963555335999 -0.0291479993611574173 0.128071993589401245
0.0458629988133907318 -0.0775739997625350952 0.11547599732875824
-0.0134020000696182251 -0.0486730001866817474 0.111821003258228302
-0.00858800020068883896 0.015977000817656517 0.143104001879692078
0.0654530003666877747 0.011981000192463398 0.116732999682426453
0.0052280002273619175 0.00522099994122982025 0.141690000891685486
0.0050229998305439949 -0.0413759984076023102 0.131138995289802551
0.0477959997951984406 -0.0766609981656074524 0.11135999858379364
0.0686030015349388123 -0.0528890006244182587 0.107013002038002014
-0.0109160002321004868 -0.036556001752614975 0.107295997440814972
-0.0101434998214244843 0.0252509992569684982 0.0805480033159255981
0.0679344981908798218 -0.0265245009213685989 0.129169002175331116
0.0644169971346855164 -0.0409649983048439026 0.121901996433734894
0.0401473343372344971 -0.00121833337470889091 0.134694993495941162
0.0423719994723796844 0.022437000647187233 0.115217000246047974
0.0315999984741210938 -0.0580080002546310425 0.133719995617866516
0.0376010015606880188 -0.0427789986133575439 0.133219003677368164
0.021045999601483345 0.0123509997501969337 0.135702997446060181
0.00294500007294118404 -0.0655419975519180298 0.133645996451377869
0.0855700001120567322 -0.000422000011894851923 0.119558997452259064
0.0339220017194747925 -0.076702997088432312 0.129594996571540833
-0.0038610000628978014 0.0328699983656406403 0.130050003528594971
-0.0279970001429319382 -0.00313899992033839226 0.0786599963903427124
0.0840300023555755615 -0.0467460006475448608 0.118515998125076294
0.0694120004773139954 -0.0536109991371631622 0.105719000101089478
0.0166340004652738571 -0.0162060000002384186 0.136739999055862427
-0.0126480003818869591 0.00280899996869266033 0.144784003496170044
-0.00194999994710087776 -0.0463490001857280731 0.127367004752159119
0.0510360002517700195 -0.0695559978485107422 0.107133001089096069
0.0411069989204406738 -0.0253120008856058121 0.133916005492210388
-0.0120940003544092178 -0.028209000825881958 0.121367000043392181
0.023290000855922699 0.028028000146150589 0.119295001029968262
0.0611260011792182922 -0.0156839992851018906 0.131584003567695618
0.0612910017371177673 -0.0495610013604164124 0.110605001449584961
0.025821000337600708 -0.0201890002936124802 0.135772004723548889
0.0607209987938404083 0.015956999734044075 0.113562002778053284
-0.0187539998441934586 0.010599999688565731 0.0753810033202171326
0.0521019995212554932 -0.0188270006328821182 0.132667005062103271
-0.0106760002672672272 0.0396299995481967926 0.0990480035543441772
0.0464869998395442963 -0.0757130011916160583 0.115370996296405792
0.0421219989657402039 -0.0168740004301071167 0.134443998336791992
-0.00802700035274028778 -0.0521279983222484589 0.123120002448558807
0.0650620013475418091 0.0183969996869564056 0.0982059985399246216
-0.0283259991556406021 -0.0260029993951320648 0.111488997936248779
0.026986999437212944 -0.031800001859664917 0.136016994714736938
0.00591700011864304543 -0.0234779994934797287 0.132145002484321594
0.0232500005513429642 0.02224699966609478 0.12776300311088562
-0.0279290005564689636 -0.0257549993693828583 0.115667000412940979
0.0306419990956783295 -0.031429000198841095 0.135824993252754211
0.0531769990921020508 -0.0471780002117156982 0.11920899897813797
0.0649629980325698853 -0.0189009997993707657 0.130798995494842529
0.0265890005975961685 -0.0256970003247261047 0.135970994830131531
0.044475998729467392 -0.0271010007709264755 0.132311999797821045
-0.0087909996509552002 -0.0268670003861188889 0.125424996018409729
-0.0174550004303455353 -0.024778999388217926 0.125973999500274658
0.0073159998282790184 -0.0384869985282421112 0.131898000836372375
0.0436800010502338409 0.00820900034159421921 0.130103006958961487
0.0151869999244809151 0.0143879996612668037 0.136659994721412659
0.0448330007493495941 -0.0156629998236894608 0.13414900004863739
0.0790989995002746582 -0.044156000018119812 0.120291002094745636
0.0167870000004768372 0.00903400033712387085 0.138199001550674438
0.0445059984922409058 -0.0345770008862018585 0.131095007061958313
0.0171070005744695663 0.0240599997341632843 0.128964006900787354
0.0454449988901615143 -0.0832189992070198059 0.112273000180721283
-0.0177009999752044678 -0.0281230006366968155 0.117565996944904327
0.0541459992527961731 -0.0125190000981092453 0.132873997092247009
0.00766800018027424812 -0.0559680014848709106 0.134247004985809326
-0.000140999996801838279 0.0137820001691579819 0.141435995697975159
-0.0126355001702904701 -0.0168685000389814377 0.136272504925727844
0.0560355000197887421 0.0111509999260306358 0.122764997184276581
-0.020371999591588974 -0.0142379999160766602 0.137882992625236511
-0.0167280007153749466 0.0239819996058940887 0.0796710029244422913
-0.0167929995805025101 0.0274260006844997406 0.0818519964814186096
-0.0230889990925788879 -0.0247249994426965714 0.12359900027513504
0.0647820010781288147 0.00110500003211200237 0.126607000827789307
0.00937100034207105637 0.00200799992308020592 0.141055002808570862
-0.000468999991426244378 0.000540999986696988344 0.142697006464004517
0.0200880002230405807 0.0292450003325939178 0.119405999779701233
0.0853310003876686096 -0.00287399999797344208 0.121444001793861389
0.0474350005388259888 -0.0722149983048439026 0.115658000111579895
0.0248179994523525238 -0.00767799979075789452 0.138041004538536072
0.0327939987182617188 -0.0149710001423954964 0.136011004447937012
0.0652479976415634155 -0.0425640009343624115 0.120572000741958618
0.00144400005228817463 0.0281349997967481613 0.132576003670692444
0.0510660000145435333 -0.0176229998469352722 0.133002996444702148
0.0544649995863437653 -0.0428490005433559418 0.120382003486156464
0.0178169999271631241 0.0301089994609355927 0.119483001530170441
0.0514219999313354492 0.0211520008742809296 0.109549000859260559
0.0354089997708797455 0.0121619999408721924 0.130776003003120422
-0.0139979999512434006 0.0198359992355108261 0.0775220021605491638
-0.0227170009166002274 -0.0109449997544288635 0.0804779976606369019
-0.0189939998090267181 -0.0624100007116794586 0.106252998113632202
0.0755970031023025513 0.0144530003890395164 0.102205000817775726
0.0575110018253326416 -0.0218279995024204254 0.131438001990318298
0.0634529963135719299 0.0169590003788471222 0.108851999044418335
0.05607600137591362 -0.023954000324010849 0.131071999669075012
0.0662039965391159058 -0.041765999048948288 0.121368996798992157
0.0309849996119737625 0.0284829996526241302 0.108970001339912415
0.0244110003113746643 0.0258859992027282715 0.122376002371311188
0.0658880025148391724 -0.0398019999265670776 0.122927002608776093
0.0911820009350776672 0.00955300033092498779 0.0998350009322166443
0.00649400008842349052 0.0180569998919963837 0.13776099681854248
0.054843999445438385 -0.0565709993243217468 0.108134999871253967
0.0970960035920143127 0.00633399980142712593 0.10337500274181366
-0.00203399988822638988 -0.0290929991751909256 0.124927997589111328
0.0376750007271766663 -0.0554290004074573517 0.131319999694824219
0.0268740002065896988 0.00819099973887205124 0.135607004165649414
0.0265709999948740005 -0.00017600000137463212 0.137681007385253906
0.0488260015845298767 -0.0437440015375614166 0.125769004225730896
0.0213649999350309372 -0.0367779992520809174 0.135842993855476379
-0.0115879997611045837 -0.0225200001150369644 0.13083900511264801
0.0108570000156760216 -0.0200449991971254349 0.134880006313323975
-0.0265500005334615707 0.000975999981164932251 0.0771880000829696655
0.0501359999179840088 -0.064226001501083374 0.115153998136520386
0.0834980010986328125 -0.0353740006685256958 0.125077992677688599
0.0115189999341964722 0.00579799991101026535 0.140242993831634521
-0.00278099998831748962 0.0337750017642974854 0.128117993474006653
0.0459799990057945251 -0.0435779988765716553 0.128270998597145081
0.0616820007562637329 -0.0536100007593631744 0.0976319983601570129
0.0240599997341632843 0.0169099997729063034 0.131993994116783142
0.0452050007879734039 -0.0759000033140182495 0.117730997502803802
0.0148339997977018356 0.00386500009335577488 0.139765992760658264
0.0143400002270936966 -0.0560869984328746796 0.135728001594543457
0.0158380009233951569 0.0332400016486644745 0.110995002090930939
0.0560059994459152222 -0.0406289994716644287 0.121550999581813812
0.0387130007147789001 -0.0584699995815753937 0.13015100359916687
0.0150579996407032013 -0.00209499988704919815 0.139997005462646484
-0.00366299995221197605 0.0353399999439716339 0.12615300714969635
-0.00923800002783536911 -0.0326579995453357697 0.114580996334552765
-0.0155680002644658089 -0.0539489984512329102 0.1100739985704422
0.052292998880147934 -0.0558089986443519592 0.116056002676486969
-0.0206930004060268402 -0.0227119997143745422 0.128387004137039185
0.0514420010149478912 -0.062509000301361084 0.1133589968085289
0.0731140002608299255 0.00551000004634261131 0.120022997260093689
-0.00238800002261996269 -0.0694810003042221069 0.131797999143600464
0.0424019992351531982 -0.0391499996185302734 0.131488993763923645
0.026332000270485878 0.0267370007932186127 0.119464002549648285
0.00165500002913177013 0.0207710005342960358 0.13801400363445282
0.0523700006306171417 -0.00905099976807832718 0.133056998252868652
0.0155279999598860741 -0.0153630003333091736 0.137140005826950073
0.0362089984118938446 -0.0736310034990310669 0.128655999898910522
0.0272879991680383682 0.028371000662446022 0.11468999832868576
0.0326809994876384735 -0.0159729998558759689 0.136011004447937012
0.0473730005323886871 -0.0687130019068717957 0.11782199889421463
0.0958589985966682434 0.00279600010253489017 0.110919997096061707
-0.0192649997770786285 -0.0263279993087053299 0.121859997510910034
0.0730030015110969543 0.0156849995255470276 0.100106999278068542
0.0490409992635250092 0.0151429995894432068 0.122110001742839813
-0.00595299992710351944 0.0367069989442825317 0.125314995646476746
0.0808399990200996399 -0.0206010006368160248 0.12799699604511261
0.0213680006563663483 -0.0518589988350868225 0.136020004749298096
-0.010697999969124794 -0.0527609996497631073 0.119860000908374786
-0.0184160005301237106 0.0248409993946552277 0.0801810026168823242
-0.00756700010970234871 -0.0496190004050731659 0.122755996882915497
0.0480290018022060394 0.0157210007309913635 0.121981002390384674
0.0433750003576278687 -0.057551998645067215 0.12687799334526062
-0.0173359997570514679 -0.0257500000298023224 0.124164998531341553
0.0382569991052150726 -0.0564879998564720154 0.130805999040603638
0.0371765010058879852 0.011043500155210495 0.130796000361442566
0.013318999670445919 0.0343500003218650818 0.106002002954483032
0.0557149983942508698 -0.0560799986124038696 0.103404998779296875
0.0130409998819231987 0.0047820000909268856 0.140042006969451904
-0.0213469993323087692 0.0113899996504187584 0.0758529976010322571
-0.00958000030368566513 -0.038697998970746994 0.113842003047466278
-0.00563299981877207756 -0.0272100009024143219 0.125847995281219482
-0.00572999985888600349 -0.0441059991717338562 0.12292499840259552
0.0230560004711151123 -0.0096490001305937767 0.138023003935813904
0.0732600018382072449 -0.0479720011353492737 0.11612199991941452
0.0798550024628639221 -0.0212980005890130997 0.128162994980812073
-0.00623800000175833702 0.0292279999703168869 0.135183006525039673
0.0269830003380775452 0.00468700006604194641 0.136690005660057068
0.0218930002301931381 0.007340999785810709 0.137301996350288391
0.0440110005438327789 -0.0740059986710548401 0.120544999837875366
0.029381999745965004 -0.0495240017771720886 0.135122001171112061
0.0633310005068778992 0.0183680001646280289 0.103785000741481781
0.0727009996771812439 -0.0349510014057159424 0.125827997922897339
-0.023793000727891922 -0.0244100000709295273 0.123937003314495087
0.0194169990718364716 0.0147420000284910202 0.13507099449634552
0.0120780002325773239 -0.0654949992895126343 0.135785996913909912
0.0287679992616176605 0.0156810004264116287 0.130976006388664246
0.083411000669002533 -0.0191719997674226761 0.127418994903564453
