ply
format ascii 1.0
element vertex 91
property float x
property float y
property float z
property float nx
property float ny
property float nz
end_header
-8.53229999542236328 -7.95329999923706055 -5.56239986419677734 -0.576542079448699951 0.179500699043273926 -0.797106444835662842
-8.08520030975341797 -10.6286001205444336 -7.1435999870300293 0.720141053199768066 0.576104164123535156 -0.386653393507003784
-8.58145046234130859 -8.74695014953613281 -5.75404977798461914 0.7519645094871521 0.355253458023071289 0.555287659168243408
-8.29969978332519531 -9.60359954833984375 -5.8498997688293457 0.732868015766143799 0.623171389102935791 -0.27306029200553894
-9.15289974212646484 -8.35519981384277344 -6.34399986267089844 0.750705957412719727 -0.463166356086730957 0.471081167459487915
-9.51319980621337891 -7.31559991836547852 -4.66970014572143555 0.867625892162322998 -0.00873801857233047485 0.497140794992446899
-8.83780002593994141 -9.6697998046875 -6.83279991149902344 0.706021726131439209 0.630529582500457764 -0.322437256574630737
-8.62180042266845703 -8.98600006103515625 -5.90880012512207031 0.909003078937530518 0.416352778673171997 0.0190742071717977524
-9.4342498779296875 -8.99965000152587891 -5.74560022354125977 0.897501528263092041 -0.0105400364845991135 0.440885394811630249
-9.43280029296875 -8.14710044860839844 -5.19570016860961914 -0.690166652202606201 0.232378304004669189 -0.685325026512145996
-9.43999958038330078 -8.35779953002929688 -5.20919990539550781 0.72919917106628418 -0.2066020667552948 0.652368068695068359
-8.21210002899169922 -10.456700325012207 -6.96029996871948242 0.720141053199768066 0.576104164123535156 -0.386653393507003784
-9.21700000762939453 -8.84969997406005859 -6.66800022125244141 0.894931435585021973 0.432626903057098389 -0.10923197865486145
-9.54520034790039062 -8.24219989776611328 -4.69719982147216797 0.708615541458129883 -0.198626518249511719 0.677060902118682861
-8.37454986572265625 -6.37284994125366211 -5.83484983444213867 0.50559687614440918 0.180251806974411011 0.843730449676513672
-10.6888999938964844 -6.20160007476806641 -8.44429969787597656 0.555560827255249023 -0.364863216876983643 -0.747145891189575195
-9.43519973754882812 -7.95629978179931641 -5.11829996109008789 -0.699434399604797363 0.136187642812728882 -0.701601326465606689
-8.62189960479736328 -7.32789993286132812 -5.70959997177124023 -0.563696503639221191 0.11491519957780838 -0.817949116230010986
-2.86249995231628418 -3.91219997406005859 -2.81750011444091797 -0.435969412326812744 0.892961025238037109 0.112032733857631683
-9.92949962615966797 -6.37099981307983398 -3.70830011367797852 0.929303646087646484 -0.00221541197970509529 0.369309872388839722
-8.41349983215332031 -10.3375997543334961 -7.1771998405456543 0.725263357162475586 0.581480562686920166 -0.36861005425453186
-9.34490013122558594 -6.45930004119873047 -6 0.406905949115753174 -0.714667081832885742 -0.568927526473999023
-7.87290000915527344 -10.6875 -6.67570018768310547 0.720141053199768066 0.576104164123535156 -0.386653393507003784
-9.39789962768554688 -7.20100021362304688 -5.15670013427734375 0.725781798362731934 0.086394384503364563 0.682478427886962891
-8.01910018920898438 -9.71860027313232422 -5.51100015640258789 0.618014395236968994 0.608134269714355469 -0.498227745294570923
-9.38360023498535156 -7.0149998664855957 -5.21180009841918945 0.727589726448059082 0.17301565408706665 0.663836359977722168
-9.43980026245117188 -9.13889980316162109 -5.63539981842041016 0.933553457260131836 0.197169199585914612 0.299336284399032593
-9.48639965057373047 -9.54790019989013672 -5.23769998550415039 0.808513343334197998 0.551315605640411377 0.205808922648429871
-9.32940006256103516 -6.1567997932434082 -5.97139978408813477 0.406905949115753174 -0.714667081832885742 -0.568927526473999023
-9.44849967956542969 -8.50699996948242188 -5.19040012359619141 0.746849417686462402 -0.194766432046890259 0.635831773281097412
-12.160400390625 -6.32919979095458984 -9.10459995269775391 -0.0319523140788078308 0.89790642261505127 0.439025133848190308
-13.4645004272460938 -6.21740007400512695 -9.10840034484863281 0.0244221705943346024 0.990973174571990967 0.131816864013671875
-9.58250045776367188 -12.2795000076293945 -6.02720022201538086 0.958126246929168701 0.174573346972465515 0.226976186037063599
-4.84980010986328125 -4.67939996719360352 -7.39620018005371094 -0.0701700001955032349 -0.463925004005432129 -0.8830910325050354
-12.5328998565673828 -6.26560020446777344 -9.15799999237060547 -0.0319523140788078308 0.89790642261505127 0.439025133848190308
-12.2700996398925781 -6.01440000534057617 -9.12650012969970703 0.0623322948813438416 0.988795995712280273 0.135636299848556519
-10.0747995376586914 -6.14620018005371094 -3.49650001525878906 0.929303646087646484 -0.00221541197970509529 0.369309872388839722
-9.33829975128173828 -6.48350000381469727 -5.426300048828125 -0.571868598461151123 -0.192108750343322754 -0.797534048557281494
-9.42860031127929688 -7.05919981002807617 -4.96075010299682617 0.727589726448059082 0.17301565408706665 0.663836359977722168
-7.49170017242431641 -10.9074001312255859 -6.25010013580322266 0.719731748104095459 0.559524178504943848 -0.4109974205493927
-8.64659976959228516 -10.064000129699707 -7.09969997406005859 0.724408805370330811 0.568007767200469971 -0.390639305114746094
-4.95349979400634766 -4.67600011825561523 -7.24289989471435547 -0.0701700001955032349 -0.463925004005432129 -0.8830910325050354
-8.32660007476806641 -8.11919975280761719 -5.34450006484985352 0.723299145698547363 -0.0992629155516624451 0.683363199234008789
-5.65250015258789062 -4.51200008392333984 -7.1483001708984375 -0.0701700001955032349 -0.463925004005432129 -0.8830910325050354
-9.36270046234130859 -6.73549985885620117 -5.28929996490478516 -0.571868598461151123 -0.192108750343322754 -0.797534048557281494
-9.34440040588378906 -6.18475008010864258 -5.24914979934692383 0.847655117511749268 -0.102589383721351624 0.52053457498550415
-8.72799968719482422 -9.96090030670166016 -7.07420015335083008 0.722389459609985352 0.571239590644836426 -0.389665037393569946
-8.92119979858398438 -9.63185024261474609 -6.93629980087280273 0.742394983768463135 0.590621292591094971 -0.31625327467918396
-13.4357004165649414 -5.9748997688293457 -9.11050033569335938 0.0244221705943346024 0.990973174571990967 0.131816864013671875
-6.1800999641418457 -4.61149978637695312 -6.76329994201660156 -0.0701700001955032349 -0.463925004005432129 -0.8830910325050354
-7.9071497917175293 -10.5902500152587891 -6.50654983520507812 0.719731748104095459 0.559524178504943848 -0.4109974205493927
-11.2009000778198242 -6.02689981460571289 -8.77499961853027344 0.0623322948813438416 0.988795995712280273 0.135636299848556519
-4.81500005722045898 -4.78109979629516602 -7.00719976425170898 -0.436199814081192017 0.889549314975738525 0.135763704776763916
-8.61610031127929688 -10.1381998062133789 -7.18249988555908203 0.724408805370330811 0.568007767200469971 -0.390639305114746094
-9.46510028839111328 -8.62629985809326172 -5.11079978942871094 0.746849417686462402 -0.194766432046890259 0.635831773281097412
-9.11680030822753906 -8.868499755859375 -6.53690004348754883 0.97457587718963623 0.194734200835227966 0.11081724613904953
-8.72690010070800781 -10.2256002426147461 -7.7537999153137207 0.724408805370330811 0.568007767200469971 -0.390639305114746094
-8.77350044250488281 -10.074000358581543 -7.42920017242431641 0.724408805370330811 0.568007767200469971 -0.390639305114746094
-4.88159990310668945 -4.78280019760131836 -6.92799997329711914 -0.436199814081192017 0.889549314975738525 0.135763704776763916
-9.42409992218017578 -8.61670017242431641 -5.48439979553222656 0.875491976737976074 -0.122905880212783813 0.467341303825378418
-9.37180042266845703 -7.4505000114440918 -5.58970022201538086 0.890434145927429199 0.0288608204573392868 0.45419609546661377
-14.9499998092651367 -5.94820022583007812 -8.43669986724853516 0.0272457748651504517 0.993305563926696777 0.112257525324821472
-11.0620498657226562 -6.23804998397827148 -8.69384956359863281 -0.0479702576994895935 0.926216065883636475 0.373928636312484741
-11.6309003829956055 -6.32620000839233398 -8.95820045471191406 -0.0319523140788078308 0.89790642261505127 0.439025133848190308
-12.4394998550415039 -6.20629978179931641 -9.14690017700195312 -0.0319523140788078308 0.89790642261505127 0.439025133848190308
-9.14529991149902344 -8.25819969177246094 -6.30450010299682617 0.750705957412719727 -0.463166356086730957 0.471081167459487915
-9.60529994964599609 -7.52120018005371094 -4.42689990997314453 0.913490355014801025 -0.0109192719683051109 0.406713873147964478
-5.31459999084472656 -4.73920011520385742 -6.72520017623901367 -0.0701700001955032349 -0.463925004005432129 -0.8830910325050354
-4.43919992446899414 -4.94820022583007812 -6.85309982299804688 -0.436199814081192017 0.889549314975738525 0.135763704776763916
-8.37779998779296875 -6.72359991073608398 -5.67689990997314453 0.50559687614440918 0.180251806974411011 0.843730449676513672
-8.68420028686523438 -9.85760021209716797 -6.80919981002807617 0.722389459609985352 0.571239590644836426 -0.389665037393569946
-5.89599990844726562 -4.41769981384277344 -7.27570009231567383 -0.226941004395484924 0.82817375659942627 0.512470543384552002
-9.89680004119873047 -6.20419979095458984 -7.59310007095336914 0.794132590293884277 -0.191316023468971252 -0.576846301555633545
-14.7636003494262695 -6.01270008087158203 -8.57310009002685547 0.0244221705943346024 0.990973174571990967 0.131816864013671875
-5.20940017700195312 -4.69199991226196289 -6.92840003967285156 -0.0701700001955032349 -0.463925004005432129 -0.8830910325050354
-8.20489978790283203 -10.5626001358032227 -7.29090023040771484 0.725263357162475586 0.581480562686920166 -0.36861005425453186
-5.17110013961791992 -4.4850001335144043 -7.75029993057250977 -0.191404849290847778 0.747763156890869141 0.635778605937957764
-6.46190023422241211 -4.75430011749267578 -6.50120019912719727 -0.0701700001955032349 -0.463925004005432129 -0.8830910325050354
-10.9849004745483398 -6.06099987030029297 -8.65359973907470703 -0.198150798678398132 0.875814437866210938 0.440097004175186157
-8.28899955749511719 -6.28060007095336914 -5.81769990921020508 0.50559687614440918 0.180251806974411011 0.843730449676513672
-7.8628997802734375 -10.8484001159667969 -7.33379983901977539 0.720141053199768066 0.576104164123535156 -0.386653393507003784
-13.5712003707885742 -5.90579986572265625 -9.08259963989257812 0.0244221705943346024 0.990973174571990967 0.131816864013671875
-9.43249988555908203 -8.80399990081787109 -5.90320014953613281 0.897501528263092041 -0.0105400364845991135 0.440885394811630249
-1.96589994430541992 -17.1919994354248047 -3.67210006713867188 0.746043384075164795 0.665423452854156494 0.0251172836869955063
-9.39929962158203125 -7.48330020904541016 -5.24420022964477539 0.792136728763580322 -0.0053014904260635376 0.610320687294006348
-9.79349994659423828 -6.08150005340576172 -7.43510007858276367 0.794132590293884277 -0.191316023468971252 -0.576846301555633545
-6.17180013656616211 -4.72760009765625 -6.54040002822875977 -0.0701700001955032349 -0.463925004005432129 -0.8830910325050354
-4.88980007171630859 -14.8993997573852539 -2.94799995422363281 0.757393598556518555 0.652891278266906738 0.00937261898070573807
-9.36660003662109375 -7.24030017852783203 -5.5008997917175293 0.761111736297607422 0.138761341571807861 0.633604168891906738
-5.22319984436035156 -4.57870006561279297 -7.29020023345947266 -0.0701700001955032349 -0.463925004005432129 -0.8830910325050354
-8.79360008239746094 -8.22379970550537109 -5.87790012359619141 0.750705957412719727 -0.463166356086730957 0.471081167459487915
