ply
format ascii 1.0
element vertex 621
property float x
property float y
property float z
property uchar red
property uchar green
property uchar blue
end_header
-0.0763370022177696228 -0.0634960010647773743 -0.0531519986689090729 254 75 218
-0.0328840017318725586 -0.135332003235816956 -0.0221260003745555878 254 75 218
-0.0273979995399713516 -0.0709670037031173706 -0.0146340001374483109 254 75 218
-0.0728960037231445312 -0.109751001000404358 -0.0589389987289905548 254 75 218
-0.00784999970346689224 -0.126615002751350403 -0.0604679994285106659 254 75 218
-0.0468199998140335083 -0.0749099999666213989 -0.0245769992470741272 254 75 218
-0.0510779991745948792 -0.0540979988873004913 -0.053309999406337738 254 75 218
-0.0645280033349990845 -0.0910990014672279358 -0.033629000186920166 254 75 218
-0.0788900032639503479 -0.0987920016050338745 -0.0543849989771842957 254 75 218
-0.0562880001962184906 -0.121367000043392181 -0.0470919981598854065 254 75 218
-0.0156919993460178375 -0.0872469991445541382 0.000572999997530132532 254 75 218
-0.0535009987652301788 -0.0925130024552345276 -0.0225050002336502075 254 75 218
-0.027506999671459198 -0.0880670025944709778 -0.00472299987450242043 254 75 218
-0.0586570017039775848 -0.116296000778675079 -0.0396180003881454468 254 75 218
-0.0659800022840499878 -0.0873569995164871216 -0.0353799983859062195 254 75 218
-0.0190980006009340286 -0.0917439982295036316 0.00310699990950524807 254 75 218
-0.0421990007162094116 -0.12985500693321228 -0.0325010009109973907 254 75 218
-0.0804120004177093506 -0.0877669975161552429 -0.0509970001876354218 254 75 218
-0.034990999847650528 -0.122496001422405243 -0.00598500017076730728 254 75 218
-0.0219369996339082718 -0.0978979989886283875 0.00561100011691451073 254 75 218
-0.0512060001492500305 -0.0772449970245361328 -0.0273940004408359528 254 75 218
-0.055847998708486557 -0.0831039994955062866 -0.0275330003350973129 254 75 218
-0.071953997015953064 -0.109748996794223785 -0.0565019994974136353 254 75 218
-0.0662629976868629456 -0.110947996377944946 -0.0463950000703334808 254 75 218
-0.000832999998237937689 -0.132731005549430847 -0.0511140003800392151 254 75 218
-0.0346449986100196838 -0.0633409991860389709 -0.0202660001814365387 254 75 218
-0.058263000100851059 -0.0812959969043731689 -0.030244000256061554 254 75 218
0.0065029999241232872 -0.105814002454280853 -0.0602190010249614716 254 75 218
-0.00715100020170211792 -0.116048999130725861 -0.0683019980788230896 254 75 218
-0.0314420014619827271 -0.108162000775337219 0.00123000005260109901 254 75 218
-0.0167549997568130493 -0.110443003475666046 0.0153620000928640366 254 75 218
-0.0615630000829696655 -0.0820539966225624084 -0.0326309986412525177 254 75 218
-0.0231289993971586227 -0.0564929991960525513 -0.0162170007824897766 254 75 218
-0.0290699992328882217 -0.131459996104240417 -0.00460099987685680389 254 75 218
-0.0754949972033500671 -0.109530001878738403 -0.0659089982509613037 254 75 218
-0.0251650009304285049 -0.136639997363090515 -0.00469900015741586685 254 75 218
-0.032274000346660614 -0.0597530007362365723 -0.0201040003448724747 254 75 218
-0.0227860007435083389 -0.0600339993834495544 -0.0152580002322793007 254 75 218
-0.0318860001862049103 -0.132082998752593994 -0.0108989998698234558 254 75 218
-0.0687469989061355591 -0.0999870002269744873 -0.0404370017349720001 254 75 218
0.0161940008401870728 -0.129231005907058716 -0.0440430007874965668 254 75 218
-0.0781989991664886475 -0.0893729999661445618 -0.048703998327255249 254 75 218
-0.0744440034031867981 -0.0744749978184700012 -0.0462349988520145416 254 75 218
-0.00803400017321109772 -0.0936909988522529602 0.0105779999867081642 254 75 218
-0.0464060008525848389 -0.125337004661560059 -0.0301890000700950623 254 75 218
-0.0556179992854595184 -0.120797999203205109 -0.0425910018384456635 254 75 218
0.0209430009126663208 -0.10577700287103653 -0.0440969988703727722 254 75 218
-0.0751010030508041382 -0.104217998683452606 -0.0537290014326572418 254 75 218
-0.0204109996557235718 -0.100916996598243713 0.00839500036090612411 254 75 218
-0.0140720000490546227 -0.147578001022338867 -0.0116699999198317528 254 75 218
-0.0277609992772340775 -0.0821129977703094482 -0.0100889997556805611 254 75 218
-0.0410329997539520264 -0.130279004573822021 -0.0299059990793466568 254 75 218
-0.0169649999588727951 -0.140689998865127563 -0.0405460000038146973 254 75 218
-0.0225300006568431854 -0.119967997074127197 0.0107289999723434448 254 75 218
-0.0420840010046958923 -0.0690840035676956177 -0.0233970005065202713 254 75 218
-0.0334080010652542114 -0.0478050000965595245 -0.0276609994471073151 254 75 218
-0.0623489990830421448 -0.0768340006470680237 -0.035523001104593277 254 75 218
0.00404299981892108917 -0.114595003426074982 -0.0605150014162063599 254 75 218
0.009081999771296978 -0.10752599686384201 -0.0574799999594688416 254 75 218
-0.0463670007884502411 -0.0747049972414970398 -0.0242619998753070831 254 75 218
-0.0614859983325004578 -0.0495750010013580322 -0.0614360012114048004 254 75 218
-0.0293220002204179764 -0.0904460027813911438 -0.00412699999287724495 254 75 218
-0.018363000825047493 -0.108869999647140503 0.0134570002555847168 254 75 218
-0.0115299997851252556 -0.148349002003669739 -0.0186730008572340012 254 75 218
-0.0729750022292137146 -0.100298002362251282 -0.0465379990637302399 254 75 218
-0.02615400031208992 -0.0953579992055892944 0.00113400002010166645 254 75 218
-0.0397850014269351959 -0.0997639968991279602 -0.00820000004023313522 254 75 218
0.00497800018638372421 -0.140700995922088623 -0.0398500002920627594 254 75 218
-0.0499520003795623779 -0.114335000514984131 -0.0223370008170604706 254 75 218
-0.0617490001022815704 -0.0751350000500679016 -0.0359410010278224945 254 75 218
-0.0635899975895881653 -0.0501139983534812927 -0.0608730018138885498 254 75 218
-0.0422549992799758911 -0.105434998869895935 -0.00999400019645690918 254 75 218
-0.0229609999805688858 -0.125129997730255127 0.00902399979531764984 254 75 218
-0.0123539995402097702 -0.148044005036354065 -0.0183639992028474808 254 75 218
-0.00974700041115283966 -0.12741599977016449 -0.0605400018393993378 254 75 218
-0.000157000002218410373 -0.141549006104469299 -0.040082000195980072 254 75 218
0.00488100014626979828 -0.105397000908851624 -0.0619149990379810333 254 75 218
-0.00232700002379715443 -0.129732996225357056 -0.0548029989004135132 254 75 218
-0.0187430009245872498 -0.142550006508827209 -0.0334969982504844666 254 75 218
-0.0388219989836215973 -0.0505679994821548462 -0.0333999991416931152 254 75 218
-0.0702259987592697144 -0.072297997772693634 -0.0437790006399154663 254 75 218
-0.0679429993033409119 -0.10355299711227417 -0.0413790009915828705 254 75 218
-0.000694999995175749063 -0.137244001030921936 -0.0459400005638599396 254 75 218
-0.0816470012068748474 -0.0839219987392425537 -0.0518499985337257385 254 75 218
-0.0773599967360496521 -0.0881119966506958008 -0.0474920012056827545 254 75 218
-0.0577070005238056183 -0.0895230025053024292 -0.0270729996263980865 254 75 218
-0.0640849992632865906 -0.0936300009489059448 -0.0331920012831687927 254 75 218
0.0230529997497797012 -0.112658001482486725 -0.0427250005304813385 254 75 218
-0.0201249998062849045 -0.0891639962792396545 0.000320999999530613422 254 75 218
0.00640300009399652481 -0.129264995455741882 -0.0504340007901191711 254 75 218
-0.00568599998950958252 -0.132287994027137756 -0.0535669997334480286 254 75 218
-0.0529390014708042145 -0.0824100002646446228 -0.0255810003727674484 254 75 218
-0.0404979996383190155 -0.0866099968552589417 -0.0141669996082782745 254 75 218
-0.0362449996173381805 -0.0811579972505569458 -0.0152460001409053802 254 75 218
-0.0328189991414546967 -0.0396829992532730103 -0.0344420000910758972 254 75 218
-0.0496350005269050598 -0.048914000391960144 -0.0651040002703666687 254 75 218
-0.00975700002163648605 -0.137884005904197693 -0.0470679998397827148 254 75 218
-0.0584050007164478302 -0.0790160000324249268 -0.0314360000193119049 254 75 218
-0.0445589981973171234 -0.0554269999265670776 -0.0413019992411136627 254 75 218
-0.00420100009068846703 -0.113711997866630554 -0.0674529969692230225 254 75 218
-0.0220139995217323303 -0.122097998857498169 0.0109769999980926514 254 75 218
-0.0363559983670711517 -0.12792399525642395 -0.0133610004559159279 254 75 218
-0.0113239996135234833 -0.142938002943992615 -0.0373300015926361084 254 75 218
-0.0182210002094507217 -0.13835500180721283 -0.0456469990313053131 254 75 218
0.0274110008031129837 -0.12507300078868866 -0.0369089990854263306 254 75 218
-0.0450429990887641907 -0.0661190003156661987 -0.0285439994186162949 254 75 218
0.0212500002235174179 -0.135839998722076416 -0.0363789983093738556 254 75 218
-0.0562399998307228088 -0.0587060004472732544 -0.0473480001091957092 254 75 218
-0.0352739989757537842 -0.10055900365114212 -0.00386899989098310471 254 75 218
-0.0568209998309612274 -0.112134002149105072 -0.0311179999262094498 254 75 218
-0.0646620020270347595 -0.108792997896671295 -0.040752999484539032 254 75 218
0.00868800003081560135 -0.138914003968238831 -0.0405380018055438995 254 75 218
-0.0653470009565353394 -0.111681997776031494 -0.0457229986786842346 254 75 218
-0.0409060008823871613 -0.122781999409198761 -0.01536600012332201 254 75 218
-0.0100050000473856926 -0.137477993965148926 -0.047726999968290329 254 75 218
-0.00111800001468509436 -0.151003003120422363 -0.0215900000184774399 254 75 218
-0.0129930004477500916 -0.0932570025324821472 0.00771299982443451881 254 75 218
-0.0520580001175403595 -0.121795997023582458 -0.0357449986040592194 254 75 218
0.00493900012224912643 -0.124257996678352356 -0.0549039989709854126 254 75 218
-0.0464989989995956421 -0.100644998252391815 -0.0145779997110366821 254 75 218
-0.0655929967761039734 -0.106040999293327332 -0.0397429987788200378 254 75 218
-0.021234000101685524 -0.0963060036301612854 0.00514000002294778824 254 75 218
0.015975000336766243 -0.114598996937274933 -0.0498180016875267029 254 75 218
0.0110440002754330635 -0.130848005414009094 -0.0464159995317459106 254 75 218
0.0303739998489618301 -0.104497998952865601 -0.0308929998427629471 254 75 218
-0.0785240009427070618 -0.102288998663425446 -0.0575050003826618195 254 75 218
-0.0556790009140968323 -0.0903059989213943481 -0.0250250007957220078 254 75 218
0.00414999993517994881 -0.104250997304916382 -0.0627179965376853943 254 75 218
-0.0184620004147291183 -0.102789998054504395 0.0108209997415542603 254 75 218
-0.00113800005055963993 -0.149342998862266541 -0.0258430000394582748 254 75 218
-0.0233789999037981033 -0.112816996872425079 0.00974700041115283966 254 75 218
-0.0608889982104301453 -0.064378000795841217 -0.0432440005242824554 254 75 218
-0.00373700005002319813 -0.149287000298500061 -0.0247910004109144211 254 75 218
0.00660199997946619987 -0.143883004784584045 -0.0352809987962245941 254 75 218
-0.0449349991977214813 -0.150352001190185547 -0.0229260008782148361 254 75 218
-0.0716189965605735779 -0.111914999783039093 -0.0620479993522167206 254 75 218
-0.0383079983294010162 -0.0468599982559680939 -0.037340998649597168 254 75 218
-0.0177599992603063583 -0.11058499664068222 0.0145420003682374954 254 75 218
-0.0114719998091459274 -0.135734006762504578 -0.0506139993667602539 254 75 218
-0.0251759998500347137 -0.122667998075485229 0.00702799996361136436 254 75 218
-0.0741560012102127075 -0.0757310017943382263 -0.0455739982426166534 254 75 218
-0.0449829995632171631 -0.123225003480911255 -0.0231279991567134857 254 75 218
-0.0652040019631385803 -0.0638559982180595398 -0.0459979996085166931 254 75 218
-0.0321660004556179047 -0.155076995491981506 -0.033479001373052597 254 75 218
-0.00403500022366642952 -0.143996000289916992 -0.0364009998738765717 254 75 218
-0.0434949994087219238 -0.0548469983041286469 -0.0385450012981891632 254 75 218
-0.0359640009701251984 -0.0430050007998943329 -0.0372349992394447327 254 75 218
-0.0662560015916824341 -0.0797600001096725464 -0.0374340005218982697 254 75 218
-0.010456000454723835 -0.136466994881629944 -0.0493459999561309814 254 75 218
0.00815500039607286453 -0.119277998805046082 -0.055222000926733017 254 75 218
-0.0816349983215332031 -0.0773520022630691528 -0.0520539991557598114 254 75 218
-0.0661349967122077942 -0.0538620017468929291 -0.0565049983561038971 254 75 218
-0.0712999999523162842 -0.0640269964933395386 -0.0495189987123012543 254 75 218
-0.0663309991359710693 -0.111736997961997986 -0.0477969981729984283 254 75 218
-0.0271439999341964722 -0.0594459995627403259 -0.0172359999269247055 254 75 218
-0.0367049984633922577 -0.110858000814914703 -0.00424400018528103828 254 75 218
-0.0271090008318424225 -0.0935560017824172974 -0.000618999998550862074 254 75 218
-0.0367720015347003937 -0.0894929990172386169 -0.00982999987900257111 254 75 218
-0.0152070000767707825 -0.14679400622844696 -0.00982899963855743408 254 75 218
-0.0277570001780986786 -0.128958001732826233 0.000112000001536216587 254 75 218
-0.0460689999163150787 -0.0858630016446113586 -0.0186330005526542664 254 75 218
-0.00940200034528970718 -0.14584900438785553 -0.030920000746846199 254 75 218
-0.0235419999808073044 -0.126287996768951416 0.00778099987655878067 254 75 218
-0.0108629995957016945 -0.130024999380111694 -0.058122001588344574 254 75 218
-0.0105029996484518051 -0.133429005742073059 -0.0537110008299350739 254 75 218
-0.0293780006468296051 -0.0931169986724853516 -0.00246799993328750134 254 75 218
-0.0524599999189376831 -0.0763439983129501343 -0.0288280006498098373 254 75 218
-0.0501700006425380707 -0.114610999822616577 -0.0228889994323253632 254 75 218
0.00266700005158782005 -0.135068997740745544 -0.0471599996089935303 254 75 218
-0.0656960010528564453 -0.0926849991083145142 -0.0348990000784397125 254 75 218
-0.0290040001273155212 -0.123549997806549072 0.00175799999851733446 254 75 218
-0.012814999558031559 -0.0882859975099563599 0.00288700009696185589 254 75 218
-0.0531230010092258453 -0.0569229982793331146 -0.0489679984748363495 254 75 218
-0.0483769997954368591 -0.0738819986581802368 -0.0268970001488924026 254 75 218
-0.0514359995722770691 -0.124182999134063721 -0.0414940007030963898 254 75 218
-0.0742530003190040588 -0.110529996454715729 -0.0656310021877288818 254 75 218
-0.0184940006583929062 -0.143606007099151611 -0.00547200022265315056 254 75 218
-0.0309110004454851151 -0.0738660022616386414 -0.015204000286757946 254 75 218
0.0133800003677606583 -0.141231000423431396 -0.0360569991171360016 254 75 218
0.0210900008678436279 -0.103486999869346619 -0.0431509986519813538 254 75 218
-0.049736998975276947 -0.0720809996128082275 -0.0300249997526407242 254 75 218
-0.0374549999833106995 -0.131667003035545349 -0.0233750008046627045 254 75 218
-0.0568079985678195953 -0.0900290012359619141 -0.0261279996484518051 254 75 218
-0.0331249982118606567 -0.128593996167182922 -0.00833799969404935837 254 75 218
-0.0225290004163980484 -0.131502002477645874 0.00610999995842576027 254 75 218
-0.0566710010170936584 -0.108521997928619385 -0.028341999277472496 254 75 218
-0.0102639999240636826 -0.0923210009932518005 0.00818200036883354187 254 75 218
0.016999000683426857 -0.140166997909545898 -0.0353670008480548859 254 75 218
-0.0648770034313201904 -0.111188001930713654 -0.043983999639749527 254 75 218
-0.0274550002068281174 -0.0738020017743110657 -0.0141510004177689552 254 75 218
-0.0806770026683807373 -0.0745539963245391846 -0.0516970008611679077 254 75 218
-0.0388819985091686249 -0.0623929984867572784 -0.0241449996829032898 254 75 218
-0.0752039998769760132 -0.0840729996562004089 -0.0449629984796047211 254 75 218
-0.0121680004522204399 -0.131947994232177734 -0.0561450012028217316 254 75 218
-0.053318999707698822 -0.0740590021014213562 -0.0309740006923675537 254 75 218
0.0183300003409385681 -0.119588002562522888 -0.0465429984033107758 254 75 218
-0.0641520023345947266 -0.0776370018720626831 -0.0365410000085830688 254 75 218
-0.0278190001845359802 -0.0416239984333515167 -0.0254960004240274429 254 75 218
-0.0320420004427433014 -0.0524189993739128113 -0.0233379993587732315 254 75 218
0.031089000403881073 -0.106443002820014954 -0.031068999320268631 254 75 218
-0.0585389994084835052 -0.0515829995274543762 -0.0579099990427494049 254 75 218
0.0116600003093481064 -0.113940000534057617 -0.053998999297618866 254 75 218
-0.0675240010023117065 -0.0493940003216266632 -0.0626979991793632507 254 75 218
-0.0223500002175569534 -0.13936200737953186 -0.00384399993345141411 254 75 218
-0.0356409996747970581 -0.0425270013511180878 -0.0371319986879825592 254 75 218
0.00579599989578127861 -0.117210999131202698 -0.0579980015754699707 254 75 218
-0.0510520003736019135 -0.0496810004115104675 -0.0623969994485378265 254 75 218
-0.00991300027817487717 -0.0936660021543502808 0.00967799965292215347 254 75 218
-0.0182590000331401825 -0.144005000591278076 -0.0278130006045103073 254 75 218
-0.0619429983198642731 -0.115631997585296631 -0.0456839986145496368 254 75 218
-0.067303001880645752 -0.0473099984228610992 -0.0657119974493980408 254 75 218
-0.0238949991762638092 -0.0514549985527992249 -0.0180360004305839539 254 75 218
-0.00344199989922344685 -0.125712007284164429 -0.0590099990367889404 254 75 218
-0.0585639998316764832 -0.0968350023031234741 -0.02733599953353405 254 75 218
-0.00615700008347630501 -0.0929839983582496643 0.0107230003923177719 254 75 218
-0.0507050007581710815 -0.0647960007190704346 -0.0381290018558502197 254 75 218
-0.0741019994020462036 -0.106712996959686279 -0.0554269999265670776 254 75 218
-0.0685369968414306641 -0.113853000104427338 -0.05912800133228302 254 75 218
-0.0212510004639625549 -0.130586996674537659 0.00864700041711330414 254 75 218
-0.0569229982793331146 -0.0971229970455169678 -0.0255500003695487976 254 75 218
-0.0337949991226196289 -0.120186999440193176 -0.00309500005096197128 254 75 218
-0.0347299985587596893 -0.0438980013132095337 -0.0332010015845298767 254 75 218
-0.0382700003683567047 -0.0507309995591640472 -0.0322219990193843842 254 75 218
-0.037691999226808548 -0.128738000988960266 -0.0172559991478919983 254 75 218
-0.0109630003571510315 -0.145061999559402466 -0.0321790017187595367 254 75 218
-0.0244529992341995239 -0.134319007396697998 0.000165999997989274561 254 75 218
-0.0644590035080909729 -0.0754399970173835754 -0.0378270000219345093 254 75 218
-0.0533730015158653259 -0.095673002302646637 -0.021916000172495842 254 75 218
-0.051309000700712204 -0.111924998462200165 -0.0227799993008375168 254 75 218
-0.0806009992957115173 -0.0664070025086402893 -0.0546079985797405243 254 75 218
-0.0527390018105506897 -0.0845500007271766663 -0.0244139991700649261 254 75 218
-0.0686139985918998718 -0.0959149971604347229 -0.0387500002980232239 254 75 218
0.0224849991500377655 -0.130347996950149536 -0.0388370007276535034 254 75 218
-0.00884999986737966537 -0.149875998497009277 -0.0163139998912811279 254 75 218
-0.0695990025997161865 -0.112010002136230469 -0.0562129989266395569 254 75 218
-0.0223500002175569534 -0.125266000628471375 0.00974200014024972916 254 75 218
-0.0468290001153945923 -0.0613729991018772125 -0.0369249992072582245 254 75 218
-0.0326820015907287598 -0.129755005240440369 -0.00900600012391805649 254 75 218
-0.00230700010433793068 -0.13143099844455719 -0.0530930012464523315 254 75 218
-0.0597050003707408905 -0.105085000395774841 -0.0307190008461475372 254 75 218
-0.0710180029273033142 -0.10015600174665451 -0.043671000748872757 254 75 218
-0.0240039993077516556 -0.0539410002529621124 -0.0173170007765293121 254 75 218
-0.0418099984526634216 -0.150093004107475281 -0.0336970016360282898 254 75 218
-0.0712760016322135925 -0.101758003234863281 -0.0450679995119571686 254 75 218
-0.0752559974789619446 -0.0756999999284744263 -0.0465320013463497162 254 75 218
-0.0408589988946914673 -0.113542996346950531 -0.00966500025242567062 254 75 218
-0.0179719999432563782 -0.106573000550270081 0.0129359997808933258 254 75 218
-0.0292770005762577057 -0.157576993107795715 -0.0306449998170137405 254 75 218
-0.0452670007944107056 -0.0605489984154701233 -0.0343910008668899536 254 75 218
-0.0742259994149208069 -0.0771069973707199097 -0.0451809987425804138 254 75 218
0.00910499971359968185 -0.131264001131057739 -0.0472679995000362396 254 75 218
-0.0180520005524158478 -0.130100995302200317 -0.0600689984858036041 254 75 218
-0.01934099942445755 -0.107629001140594482 0.0122039997950196266 254 75 218
-0.0636880025267601013 -0.0474830009043216705 -0.0650879964232444763 254 75 218
-0.0131839998066425323 -0.0922000035643577576 0.00666800001636147499 254 75 218
-0.0293809995055198669 -0.157627001404762268 -0.0284599997103214264 254 75 218
-0.0368430018424987793 -0.152628004550933838 -0.0285739991813898087 254 75 218
0.0208429992198944092 -0.133251994848251343 -0.0383689999580383301 254 75 218
-0.0340470001101493835 -0.11927100270986557 -0.00301899993792176247 254 75 218
-0.0259150005877017975 -0.0393700003623962402 -0.0249409992247819901 254 75 218
-0.0449399985373020172 -0.109627000987529755 -0.0135359996929764748 254 75 218
0.0188939999788999557 -0.117779001593589783 -0.0464509986340999603 254 75 218
-0.0364940017461776733 -0.0703779980540275574 -0.0187539998441934586 254 75 218
-0.00337700010277330875 -0.146527007222175598 -0.0314759984612464905 254 75 218
-0.0555489994585514069 -0.0820150002837181091 -0.0277500003576278687 254 75 218
-0.0319060012698173523 -0.135976999998092651 -0.021413000300526619 254 75 218
0.00382900005206465721 -0.142876997590065002 -0.0373170003294944763 254 75 218
-0.0386609993875026703 -0.128555998206138611 -0.0189689993858337402 254 75 218
-0.0477319993078708649 -0.0931430011987686157 -0.0170590002089738846 254 75 218
-0.0434769988059997559 -0.122776001691818237 -0.0197780001908540726 254 75 218
-0.0447020009160041809 -0.101179003715515137 -0.0126940002664923668 254 75 218
-0.038756001740694046 -0.0791570022702217102 -0.017162000760436058 254 75 218
-0.0306829996407032013 -0.111244998872280121 0.00222199992276728153 254 75 218
-0.0791810005903244019 -0.103102996945381165 -0.0598889999091625214 254 75 218
-0.0279050003737211227 -0.0459350012242794037 -0.0231209993362426758 254 75 218
-0.0551320016384124756 -0.114322997629642487 -0.0304860007017850876 254 75 218
-0.0380510017275810242 -0.0730680003762245178 -0.0187199991196393967 254 75 218
-0.0357449986040592194 -0.0785719975829124451 -0.0159729998558759689 254 75 218
-0.0104149999096989632 -0.128881007432937622 -0.0592239983379840851 254 75 218
0.0166989993304014206 -0.127452999353408813 -0.0446759983897209167 254 75 218
-0.0649389997124671936 -0.110927000641822815 -0.0437650009989738464 254 75 218
-0.0743210017681121826 -0.0596919991075992584 -0.0546329990029335022 254 75 218
-0.0620750002562999725 -0.054993998259305954 -0.053808998316526413 254 75 218
-0.0708639994263648987 -0.0746539980173110962 -0.0432169996201992035 254 75 218
-0.0335059985518455505 -0.120474003255367279 -0.00283999997191131115 254 75 218
0.00596999982371926308 -0.124458998441696167 -0.0540629997849464417 254 75 218
-0.0708749964833259583 -0.070858001708984375 -0.0450050011277198792 254 75 218
-0.0250749997794628143 -0.102783001959323883 0.00560399983078241348 254 75 218
-0.00293800001963973045 -0.138201996684074402 -0.0453540012240409851 254 75 218
0.00060500000836327672 -0.0905850008130073547 0.0100880004465579987 254 75 218
-0.00586399994790554047 -0.131281003355979919 -0.0547609999775886536 254 75 218
0.0151789998635649681 -0.134986996650695801 -0.040761999785900116 254 75 218
0.0148830004036426544 -0.132214993238449097 -0.0429960004985332489 254 75 218
-0.0321010015904903412 -0.134874001145362854 -0.0177200008183717728 254 75 218
-0.0400030016899108887 -0.073756001889705658 -0.0196839999407529831 254 75 218
0.0254469998180866241 -0.10869300365447998 -0.0393939986824989319 254 75 218
-0.0148339997977018356 -0.0931570008397102356 0.00665999995544552803 254 75 218
-0.0233570002019405365 -0.120370000600814819 0.00972399953752756119 254 75 218
-0.0298340003937482834 -0.0405599996447563171 -0.0286439992487430573 254 75 218
0.0147479996085166931 -0.120122998952865601 -0.0494760014116764069 254 75 218
-0.0248850006610155106 -0.0430580005049705505 -0.0220250003039836884 254 75 218
0.0190750006586313248 -0.115195997059345245 -0.0467090010643005371 254 75 218
-0.0660450011491775513 -0.0505749993026256561 -0.0607200004160404205 254 75 218
-0.00687999976798892021 -0.118786998093128204 -0.0663390010595321655 254 75 218
-0.0604799985885620117 -0.107662998139858246 -0.0332360006868839264 254 75 218
-0.0452019982039928436 -0.0656990036368370056 -0.0290760006755590439 254 75 218
-0.0632809996604919434 -0.103105999529361725 -0.0345790013670921326 254 75 218
-0.0254950001835823059 -0.130280002951622009 0.00253199995495378971 254 75 218
0.0162160005420446396 -0.12949100136756897 -0.0438699983060359955 254 75 218
0.0296480003744363785 -0.112718001008033752 -0.0352759994566440582 254 75 218
-0.0398279987275600433 -0.152281999588012695 -0.01817299984395504 254 75 218
-0.0398299992084503174 -0.126524999737739563 -0.0180200003087520599 254 75 218
-0.0225489996373653412 -0.0483479984104633331 -0.0183140002191066742 254 75 218
-0.033259999006986618 -0.102116003632545471 -0.00165300001390278339 254 75 218
-0.0067289997823536396 -0.135381996631622314 -0.0501330010592937469 254 75 218
-0.071529000997543335 -0.103651002049446106 -0.0469870008528232574 254 75 218
-0.0301569998264312744 -0.137143000960350037 -0.0202060006558895111 254 75 218
-0.0442669987678527832 -0.108473002910614014 -0.0125390002503991127 254 75 218
-0.0108150001615285873 -0.129870995879173279 -0.0582749992609024048 254 75 218
-0.0326079986989498138 -0.0777100026607513428 -0.0149969998747110367 254 75 218
0.0212190002202987671 -0.118441998958587646 -0.0441589988768100739 254 75 218
-0.0681649968028068542 -0.110849000513553619 -0.0500999987125396729 254 75 218
-0.0425739996135234833 -0.102361999452114105 -0.0104430001229047775 254 75 218
-0.00364000000990927219 -0.143469005823135376 -0.037333998829126358 254 75 218
-0.0828370004892349243 -0.0797099992632865906 -0.0530409999191761017 254 75 218
-0.0124199995771050453 -0.0853789970278739929 -0.00033999999868683517 254 75 218
-0.0479330010712146759 -0.0691780000925064087 -0.0300389993935823441 254 75 218
-0.0422249995172023773 -0.050418999046087265 -0.0483149997889995575 254 75 218
-0.0684370025992393494 -0.049924999475479126 -0.062178000807762146 254 75 218
0.0272320006042718887 -0.120880000293254852 -0.0379559993743896484 254 75 218
-0.0356249995529651642 -0.133306995034217834 -0.023423999547958374 254 75 218
-0.0459179989993572235 -0.0767659991979598999 -0.02275799959897995 254 75 218
-0.0148750003427267075 -0.146825000643730164 -0.00778000010177493095 254 75 218
-0.0441580004990100861 -0.0540250018239021301 -0.0439560003578662872 254 75 218
-0.0604490004479885101 -0.0837180018424987793 -0.0311220008879899979 254 75 218
-0.0488240011036396027 -0.113449998199939728 -0.0201719999313354492 254 75 218
-0.0261080004274845123 -0.11998400092124939 0.00657900003716349602 254 75 218
-0.0423219986259937286 -0.050577998161315918 -0.0473060011863708496 254 75 218
-0.0666360035538673401 -0.0748170018196105957 -0.0397850014269351959 254 75 218
-0.0329909995198249817 -0.0800139978528022766 -0.0144029995426535606 254 75 218
-0.05979200080037117 -0.10594400018453598 -0.0312200002372264862 254 75 218
-0.0795390009880065918 -0.0984489992260932922 -0.0551070012152194977 254 75 218
-0.00620900001376867294 -0.148366004228591919 -0.0257680006325244904 254 75 218
-0.0459979996085166931 -0.115511998534202576 -0.0174029991030693054 254 75 218
-0.0469730012118816376 -0.0766540020704269409 -0.0237310007214546204 254 75 218
-0.0614340007305145264 -0.0857869982719421387 -0.0313760004937648773 254 75 218
-0.0201730001717805862 -0.137300997972488403 -0.0474639981985092163 254 75 218
0.0280779991298913956 -0.113155998289585114 -0.0371900014579296112 254 75 218
-0.0416390001773834229 -0.0494190007448196411 -0.0480809994041919708 254 75 218
0.017834000289440155 -0.110846996307373047 -0.0482820011675357819 254 75 218
-0.00974200014024972916 -0.14847099781036377 -0.0217429995536804199 254 75 218
-0.00656899996101856232 -0.136932000517845154 -0.0479549989104270935 254 75 218
-0.0200820006430149078 -0.102820001542568207 0.00961699988692998886 254 75 218
-0.065791003406047821 -0.10699000209569931 -0.0408169999718666077 254 75 218
-0.0184860005974769592 -0.0939619988203048706 0.00522400019690394402 254 75 218
-0.0615249983966350555 -0.06147800013422966 -0.0463149994611740112 254 75 218
-0.075272001326084137 -0.0994340032339096069 -0.0493529997766017914 254 75 218
-0.0570500008761882782 -0.0994310006499290466 -0.0258469991385936737 254 75 218
-0.0277670007199048996 -0.0745190009474754333 -0.0141240004450082779 254 75 218
-0.0146800000220537186 -0.125945001840591431 -0.0641719996929168701 254 75 218
-0.0367989987134933472 -0.0415650010108947754 -0.0448190011084079742 254 75 218
-0.00912099983543157578 -0.149145007133483887 -0.019697999581694603 254 75 218
-0.0250209998339414597 -0.136042997241020203 -0.00339299999177455902 254 75 218
-0.0433269999921321869 -0.129082992672920227 -0.0331710018217563629 254 75 218
-0.0400220006704330444 -0.0468380004167556763 -0.0454810000956058502 254 75 218
-0.0524300001561641693 -0.121489003300666809 -0.0359489992260932922 254 75 218
-0.0693669989705085754 -0.0632240027189254761 -0.0489329993724822998 254 75 218
-0.0750700011849403381 -0.108685001730918884 -0.0618680007755756378 254 75 218
-0.0562830008566379547 -0.0927809998393058777 -0.0251599997282028198 254 75 218
-0.0313730016350746155 -0.101287998259067535 -0.000260000000707805157 254 75 218
-0.0357230007648468018 -0.108434997498989105 -0.00310899992473423481 254 75 218
-0.0486500002443790436 -0.0630109980702400208 -0.0384850017726421356 254 75 218
-0.0503510013222694397 -0.0936100035905838013 -0.0193540006875991821 254 75 218
-0.0419900007545948029 -0.0522480010986328125 -0.0387189984321594238 254 75 218
-0.0138800004497170448 -0.142605006694793701 -0.0371019989252090454 254 75 218
0.0252609997987747192 -0.118964999914169312 -0.0401469990611076355 254 75 218
-0.016475999727845192 -0.144407004117965698 -0.029043000191450119 254 75 218
-0.00491000013425946236 -0.0899790003895759583 0.00773799978196620941 254 75 218
-0.0166270006448030472 -0.0993179976940155029 0.0101730003952980042 254 75 218
-0.041437000036239624 -0.0491070002317428589 -0.0471029989421367645 254 75 218
0.00132499996107071638 -0.122805997729301453 -0.0582670010626316071 254 75 218
-0.023112000897526741 -0.0873600021004676819 -0.00285400007851421833 254 75 218
-0.056860998272895813 -0.111413002014160156 -0.0306109990924596786 254 75 218
-0.00890100002288818359 -0.146723002195358276 -0.0287170000374317169 254 75 218
0.013425000011920929 -0.135723993182182312 -0.0412020012736320496 254 75 218
-0.0401469990611076355 -0.122822001576423645 -0.0141470003873109818 254 75 218
-0.00603700010105967522 -0.138656005263328552 -0.0453630015254020691 254 75 218
-0.0157919991761445999 -0.093731999397277832 0.00661499984562397003 254 75 218
-0.0183559991419315338 -0.17663399875164032 -0.036187000572681427 254 75 218
-0.0360019989311695099 -0.0607360005378723145 -0.0224820002913475037 254 75 218
-0.0525260008871555328 -0.0684939995408058167 -0.0351769998669624329 254 75 218
-0.0204990003257989883 -0.106932997703552246 0.0109759997576475143 254 75 218
-0.0552360005676746368 -0.0609739981591701508 -0.0442330017685890198 254 75 218
-0.0256859995424747467 -0.0860529989004135132 -0.00537100015208125114 254 75 218
-0.0465589985251426697 -0.0563570000231266022 -0.0473879985511302948 254 75 218
-0.0085450001060962677 -0.146042004227638245 -0.0308250002562999725 254 75 218
-0.0660689994692802429 -0.103118002414703369 -0.0384300015866756439 254 75 218
-0.0443830005824565887 -0.0556429997086524963 -0.0400389991700649261 254 75 218
-0.00504900002852082253 -0.116668000817298889 -0.066462002694606781 254 75 218
-0.0711740031838417053 -0.0828500017523765564 -0.04107699915766716 254 75 218
0.0162920001894235611 -0.126361995935440063 -0.0455409996211528778 254 75 218
-0.0338089987635612488 -0.0862609967589378357 -0.00991099979728460312 254 75 218
-0.0765670016407966614 -0.104650996625423431 -0.0570949986577033997 254 75 218
-0.0369750000536441803 -0.113484002649784088 -0.00493399985134601593 254 75 218
-0.0362260006368160248 -0.0635769963264465332 -0.0213070008903741837 254 75 218
-0.000926000007893890142 -0.135609999299049377 -0.0479939989745616913 254 75 218
-0.0392239987850189209 -0.129802003502845764 -0.0230320002883672714 254 75 218
0.020183999091386795 -0.106278002262115479 -0.0451629981398582458 254 75 218
-0.0197359994053840637 -0.0473829992115497589 -0.017141999676823616 254 75 218
0.0218620002269744873 -0.109076999127864838 -0.0437109991908073425 254 75 218
-0.0243280008435249329 -0.0897679999470710754 -0.00151299999561160803 254 75 218
-0.066936001181602478 -0.0574529990553855896 -0.0528380014002323151 254 75 218
-0.0475409999489784241 -0.0561250001192092896 -0.0491160005331039429 254 75 218
-0.0364269986748695374 -0.129848003387451172 -0.0165139995515346527 254 75 218
-0.0418369993567466736 -0.0836710035800933838 -0.0169099997729063034 254 75 218
-0.0280409995466470718 -0.158911004662513733 -0.0274379998445510864 254 75 218
-0.0442809984087944031 -0.0794909968972206116 -0.0202469993382692337 254 75 218
0.0283729992806911469 -0.112655997276306152 -0.0367549993097782135 254 75 218
-0.0265299994498491287 -0.0530590005218982697 -0.0190030001103878021 254 75 218
-0.0280869994312524796 -0.159031003713607788 -0.0243410002440214157 254 75 218
0.0118850003927946091 -0.122955001890659332 -0.0506049990653991699 254 75 218
-0.0782689973711967468 -0.0643860027194023132 -0.0539640001952648163 254 75 218
-0.0543989986181259155 -0.0477100014686584473 -0.0658579990267753601 254 75 218
0.00410000002011656761 -0.120734997093677521 -0.0576039999723434448 254 75 218
0.00878399983048439026 -0.109921999275684357 -0.0574890002608299255 254 75 218
-0.0653970018029212952 -0.114901997148990631 -0.052777998149394989 254 75 218
-0.0593050010502338409 -0.0468380004167556763 -0.0664879977703094482 254 75 218
-0.0531719997525215149 -0.118372999131679535 -0.0318779982626438141 254 75 218
-0.0507710017263889313 -0.123856998980045319 -0.0380420014262199402 254 75 218
-0.0789349973201751709 -0.0827969983220100403 -0.0488779991865158081 254 75 218
-0.0324120000004768372 -0.115261003375053406 7.50000035623088479e-05 254 75 218
0.0276919994503259659 -0.104147002100944519 -0.0345150008797645569 254 75 218
-0.0255079995840787888 -0.08486899733543396 -0.00635799998417496681 254 75 218
-0.0358339995145797729 -0.154336005449295044 -0.0148139996454119682 254 75 218
0.00202100002206861973 -0.133842006325721741 -0.0486860014498233795 254 75 218
-0.0369910001754760742 -0.114891000092029572 -0.00526899984106421471 254 75 218
-0.0790849998593330383 -0.074372999370098114 -0.0502769984304904938 254 75 218
-0.0241010002791881561 -0.124407000839710236 0.00782900024205446243 254 75 218
-0.0608160011470317841 -0.105915002524852753 -0.0326559990644454956 254 75 218
-0.0406990014016628265 -0.0949120000004768372 -0.0104029998183250427 254 75 218
-0.0744469985365867615 -0.072061002254486084 -0.0472019985318183899 254 75 218
-0.0420430004596710205 -0.109387002885341644 -0.010107000358402729 254 75 218
-0.0645830035209655762 -0.112070001661777496 -0.0448030009865760803 254 75 218
0.0187599994242191315 -0.139936000108718872 -0.0346500016748905182 254 75 218
-0.0440719984471797943 -0.103464998304843903 -0.0119529999792575836 254 75 218
-0.0314610004425048828 -0.0874190032482147217 -0.00760000012814998627 254 75 218
-0.000476999994134530425 -0.112778998911380768 -0.0649299994111061096 254 75 218
-0.00855899974703788757 -0.139359995722770691 -0.0445539988577365875 254 75 218
-0.0690599977970123291 -0.111757002770900726 -0.0541029982268810272 254 75 218
-0.0744019970297813416 -0.10089399665594101 -0.0491719990968704224 254 75 218
0.0223670005798339844 -0.104716002941131592 -0.0419990010559558868 254 75 218
-0.0739450007677078247 -0.0797410011291503906 -0.0442910008132457733 254 75 218
-0.0254330001771450043 -0.127341002225875854 0.00466699991375207901 254 75 218
-0.0307659991085529327 -0.105774998664855957 0.00150100002065300941 254 75 218
0.00043799998820759356 -0.112726002931594849 -0.0642130002379417419 254 75 218
-0.0603500008583068848 -0.104427002370357513 -0.0312809981405735016 254 75 218
-0.0459979996085166931 -0.0588430017232894897 -0.0389579981565475464 254 75 218
0.0328279994428157806 -0.109973996877670288 -0.0304790008813142776 254 75 218
0.00246299989521503448 -0.131494000554084778 -0.0507469996809959412 254 75 218
-0.074100002646446228 -0.0605060011148452759 -0.053858000785112381 254 75 218
-0.0315530002117156982 -0.136307001113891602 -0.0216770004481077194 254 75 218
-0.0127699999138712883 -0.14454999566078186 -0.0323959998786449432 254 75 218
-0.0152610000222921371 -0.12538599967956543 -0.0650240033864974976 254 75 218
0.0173569992184638977 -0.104749001562595367 -0.0481880009174346924 254 75 218
-0.054173000156879425 -0.120627999305725098 -0.0382449999451637268 254 75 218
-0.0421059988439083099 -0.121485002338886261 -0.0160559993237257004 254 75 218
0.0121499998494982719 -0.109123997390270233 -0.0542390011250972748 254 75 218
-0.0373100005090236664 -0.078809000551700592 -0.0165919996798038483 254 75 218
-0.0848900005221366882 -0.100226998329162598 -0.0667989999055862427 254 75 218
-0.0308010000735521317 -0.0877930000424385071 -0.00691499980166554451 254 75 218
0.0110269999131560326 -0.127535998821258545 -0.0486739985644817352 254 75 218
-0.0363310016691684723 -0.133322998881340027 -0.0260639991611242294 254 75 218
-0.0393540002405643463 -0.0480460003018379211 -0.0383020006120204926 254 75 218
0.0311569999903440475 -0.110660001635551453 -0.0328980013728141785 254 75 218
-0.0383119992911815643 -0.0859899967908859253 -0.0130310002714395523 254 75 218
-0.00270999991334974766 -0.145925000309944153 -0.032795000821352005 254 75 218
0.00655699986964464188 -0.133276998996734619 -0.0470050014555454254 254 75 218
-0.0306180007755756378 -0.135572001338005066 -0.0155859999358654022 254 75 218
-0.0181109998375177383 -0.136665001511573792 -0.0492050014436244965 254 75 218
-0.0247649997472763062 -0.139669999480247498 -0.0114390002563595772 254 75 218
-0.0676940008997917175 -0.08427400141954422 -0.0374829992651939392 254 75 218
-0.058217998594045639 -0.0746029987931251526 -0.0337940007448196411 254 75 218
-0.0238649994134902954 -0.112259000539779663 0.00919600017368793488 254 75 218
-0.0453470014035701752 -0.0795420035719871521 -0.0209979992359876633 254 75 218
0.00917499978095293045 -0.113972999155521393 -0.0562740005552768707 254 75 218
-0.0724619999527931213 -0.073822997510433197 -0.0448569990694522858 254 75 218
-0.0338810011744499207 -0.127253994345664978 -0.00819600000977516174 254 75 218
-0.0158970002084970474 -0.0985319986939430237 0.0101340003311634064 254 75 218
-0.0470749996602535248 -0.0523630008101463318 -0.0574930012226104736 254 75 218
-0.0158489998430013657 -0.144403994083404541 -0.0299880001693964005 254 75 218
-0.0352669991552829742 -0.0630619972944259644 -0.0208349991589784622 254 75 218
-0.0520900003612041473 -0.0650390014052391052 -0.0384670011699199677 254 75 218
-0.0641319975256919861 -0.0791110023856163025 -0.0359040014445781708 254 75 218
-0.0186769999563694 -0.143079996109008789 -0.0314240008592605591 254 75 218
-0.0431450009346008301 -0.116383001208305359 -0.0138750001788139343 254 75 218
-0.034784998744726181 -0.038557000458240509 -0.0429680012166500092 254 75 218
0.0145749999210238457 -0.132530003786087036 -0.0429750010371208191 254 75 218
-0.0733869969844818115 -0.111322000622749329 -0.0661820024251937866 254 75 218
-0.0156039996072649956 -0.0971200019121170044 0.0093379998579621315 254 75 218
-0.0450309999287128448 -0.103767998516559601 -0.0129349995404481888 254 75 218
-0.0362950004637241364 -0.0619640015065670013 -0.0221120007336139679 254 75 218
-0.0581689998507499695 -0.117677003145217896 -0.0412510000169277191 254 75 218
-0.0296359993517398834 -0.0443000011146068573 -0.0257329996675252914 254 75 218
-0.0248770006000995636 -0.0427929982542991638 -0.0221510007977485657 254 75 218
-0.076219998300075531 -0.0899730026721954346 -0.0465000011026859283 254 75 218
0.00922300014644861221 -0.11761300265789032 -0.05506100133061409 254 75 218
0.0145699996501207352 -0.138594001531600952 -0.0380479991436004639 254 75 218
-0.0317809991538524628 -0.0789799988269805908 -0.0144050000235438347 254 75 218
-0.0411709994077682495 -0.0498079992830753326 -0.0411619991064071655 254 75 218
-0.0264730006456375122 -0.139529004693031311 -0.0172840002924203873 254 75 218
-0.0410550013184547424 -0.120218001306056976 -0.0133560001850128174 254 75 218
-0.00531700020655989647 -0.0890080034732818604 0.00640500010922551155 254 75 218
0.00811900012195110321 -0.142516002058982849 -0.0366009995341300964 254 75 218
0.00136200000997632742 -0.145601004362106323 -0.0335149988532066345 254 75 218
-0.0169159993529319763 -0.110517002642154694 0.0152470003813505173 254 75 218
-0.055704999715089798 -0.121206000447273254 -0.0443620011210441589 254 75 218
0.0111069995909929276 -0.13178899884223938 -0.0456800013780593872 254 75 218
-0.0251870006322860718 -0.119672998785972595 0.0077120000496506691 254 75 218
-0.0148029997944831848 -0.124761000275611877 -0.0655260011553764343 254 75 218
-0.00826499983668327332 -0.149079993367195129 -0.0214339997619390488 254 75 218
-0.0353449992835521698 -0.093020997941493988 -0.00689300009980797768 254 75 218
-0.0794420018792152405 -0.0727780014276504517 -0.0511050000786781311 254 75 218
-0.0820460021495819092 -0.0981210023164749146 -0.0588920004665851593 254 75 218
-0.0194589998573064804 -0.172087997198104858 -0.0317320004105567932 254 75 218
-0.0597070008516311646 -0.119892999529838562 -0.0541610009968280792 254 75 218
-0.0373080000281333923 -0.0498239994049072266 -0.0315020009875297546 254 75 218
-0.0482940003275871277 -0.118846997618675232 -0.0236789993941783905 254 75 218
-0.0123159997165203094 -0.0863960012793540955 0.00093600002583116293 254 75 218
-0.0461970008909702301 -0.0495610013604164124 -0.06590300053358078 254 75 218
0.0021879998967051506 -0.108888998627662659 -0.0638889968395233154 254 75 218
-0.0785840004682540894 -0.061958998441696167 -0.0556490011513233185 254 75 218
-0.0389799997210502625 -0.0450210012495517731 -0.0465749986469745636 254 75 218
-0.0825479999184608459 -0.0988790020346641541 -0.0604959987103939056 254 75 218
0.0245520006865262985 -0.119441002607345581 -0.0407719984650611877 254 75 218
-0.0570279993116855621 -0.103124000132083893 -0.0265629999339580536 254 75 218
-0.0385520011186599731 -0.117202997207641602 -0.00807199999690055847 254 75 218
-0.0147519996389746666 -0.140349000692367554 -0.0421489998698234558 254 75 218
-0.0361500009894371033 -0.131651997566223145 -0.0198079999536275864 254 75 218
-0.016307000070810318 -0.128915995359420776 -0.0612250007688999176 254 75 218
-0.0521959997713565826 -0.10050799697637558 -0.0205809995532035828 254 75 218
-0.0374669991433620453 -0.123429000377655029 -0.0103949997574090958 254 75 218
-0.0259009990841150284 -0.0897269994020462036 -0.00248400005511939526 254 75 218
-0.0305359996855258942 -0.157048001885414124 -0.0224409997463226318 254 75 218
-0.0416439995169639587 -0.0899479985237121582 -0.0132130002602934837 254 75 218
-0.039880998432636261 -0.0505679994821548462 -0.035647999495267868 254 75 218
-0.0303659997880458832 -0.0862229987978935242 -0.0078579997643828392 254 75 218
-0.0784979984164237976 -0.0620200000703334808 -0.0555519983172416687 254 75 218
-0.0427090004086494446 -0.0614899992942810059 -0.0291140004992485046 254 75 218
-0.0287309996783733368 -0.124803997576236725 0.00151500001084059477 254 75 218
-0.0154879996553063393 -0.105502001941204071 0.014449000358581543 254 75 218
0.0276640001684427261 -0.110264003276824951 -0.0371190011501312256 254 75 218
-0.0458160005509853363 -0.0511830002069473267 -0.0610870011150836945 254 75 218
-0.051311001181602478 -0.0643389970064163208 -0.0389369986951351166 254 75 218
-0.0287880003452301025 -0.110457003116607666 0.00413999985903501511 254 75 218
0.0101460004225373268 -0.123380996286869049 -0.0516959987580776215 254 75 218
-0.0771109983325004578 -0.0722730010747909546 -0.0492639988660812378 254 75 218
-0.0707779973745346069 -0.0788979977369308472 -0.041618000715970993 254 75 218
-0.0350929982960224152 -0.0753099992871284485 -0.0165320001542568207 254 75 218
-0.0281499996781349182 -0.0935510024428367615 -0.00134800001978874207 254 75 218
-0.0230500008910894394 -0.0903569981455802917 -0.000299000006634742022 254 75 218
-0.0461869984865188599 -0.0593420006334781647 -0.0385599993169307709 254 75 218
-0.0490560010075569153 -0.100937001407146454 -0.0172160007059574127 254 75 218
-0.065295003354549408 -0.0641739964485168457 -0.0457989983260631561 254 75 218
-0.0526620000600814819 -0.0968829989433288574 -0.0211079996079206467 254 75 218
0.0213019996881484985 -0.113200999796390533 -0.0445969998836517334 254 75 218
-0.0445440001785755157 -0.0528240017592906952 -0.0551559999585151672 254 75 218
-0.0684150010347366333 -0.108069002628326416 -0.0464579984545707703 254 75 218
-0.0198430009186267853 -0.14110100269317627 -0.0375199988484382629 254 75 218
-0.0136620001867413521 -0.144562005996704102 -0.031714998185634613 254 75 218
-0.0708319991827011108 -0.0625070035457611084 -0.0503589995205402374 254 75 218
-0.0302889999002218246 -0.134373992681503296 -0.0117629999294877052 254 75 218
0.00460699992254376411 -0.138624995946884155 -0.042461000382900238 254 75 218
-0.0504410006105899811 -0.117036998271942139 -0.0254250001162290573 254 75 218
0.0135329999029636383 -0.12909400463104248 -0.0459839999675750732 254 75 218
0.00983699969947338104 -0.140143007040023804 -0.038718000054359436 254 75 218
-0.0523400008678436279 -0.105875000357627869 -0.0215799994766712189 254 75 218
0.0030030000489205122 -0.112401001155376434 -0.0621480010449886322 254 75 218
-0.0128100002184510231 -0.138527005910873413 -0.0461140014231204987 254 75 218
-0.0298439990729093552 -0.136240005493164062 -0.0153869995847344398 254 75 218
-0.0249240007251501083 -0.125600993633270264 0.00625400012359023094 254 75 218
-0.047047000378370285 -0.0937130004167556763 -0.0162950009107589722 254 75 218
-0.0834200009703636169 -0.100445002317428589 -0.0641809999942779541 254 75 218
-0.0288360007107257843 -0.0746110007166862488 -0.0144100002944469452 254 75 218
-0.0819820016622543335 -0.0989369973540306091 -0.0596060007810592651 254 75 218
-0.047919001430273056 -0.148729994893074036 -0.0329839996993541718 254 75 218
-0.0474350005388259888 -0.111487999558448792 -0.0173020008951425552 254 75 218
-0.0257990006357431412 -0.137926995754241943 -0.00906800013035535812 254 75 218
-0.0772550031542778015 -0.10229799896478653 -0.0552080012857913971 254 75 218
-0.0202769991010427475 -0.10382399708032608 0.00991700030863285065 254 75 218
-0.0795350000262260437 -0.084122002124786377 -0.0495410002768039703 254 75 218
0.0141240004450082779 -0.140345007181167603 -0.0366009995341300964 254 75 218
-0.0119190001860260963 -0.088330000638961792 0.00328600010834634304 254 75 218
-0.0229139998555183411 -0.111327998340129852 0.00999400019645690918 254 75 218
-0.0509819984436035156 -0.0578950010240077972 -0.0471669994294643402 254 75 218
0.0308090001344680786 -0.109273999929428101 -0.0328489989042282104 254 75 218
-0.0608580000698566437 -0.0577789992094039917 -0.0500000007450580597 254 75 218
-0.0204360000789165497 -0.0859270021319389343 -0.00288800010457634926 254 75 218
-0.0580630004405975342 -0.104083001613616943 -0.0281460005789995193 254 75 218
-0.0233939997851848602 -0.0904819965362548828 -0.000402000005124136806 254 75 218
-0.0202409997582435608 -0.139120995998382568 -0.0430249981582164764 254 75 218
-0.0307769998908042908 -0.0771839991211891174 -0.0145340003073215485 254 75 218
-0.0229979995638132095 -0.0417129993438720703 -0.0211970005184412003 254 75 218
-0.0313219986855983734 -0.131761997938156128 -0.00924600008875131607 254 75 218
-0.00204499997198581696 -0.107825003564357758 -0.0680079981684684753 254 75 218
0.015355999581515789 -0.142390996217727661 -0.0339859984815120697 254 75 218
-0.025138000026345253 -0.0818030014634132385 -0.00923100020736455917 254 75 218
-0.0103350002318620682 -0.0965690016746520996 0.0120500000193715096 254 75 218
-0.0432550013065338135 -0.0841320008039474487 -0.0175800006836652756 254 75 218
-0.0115240002050995827 -0.13820900022983551 -0.0466240011155605316 254 75 218
-0.0547670014202594757 -0.112258002161979675 -0.0280709993094205856 254 75 218
-0.0378959998488426208 -0.0438259989023208618 -0.0427570007741451263 254 75 218
-0.0237760003656148911 -0.0582609996199607849 -0.0160399992018938065 254 75 218
0.00824599992483854294 -0.11982099711894989 -0.0549199990928173065 254 75 218
-0.0219269990921020508 -0.166683003306388855 -0.0346979983150959015 254 75 218
0.00645999982953071594 -0.133303999900817871 -0.0470330007374286652 254 75 218
-0.0392789989709854126 -0.0759880021214485168 -0.0184339992702007294 254 75 218
-0.0658020004630088806 -0.0940359979867935181 -0.0351080000400543213 254 75 218
-0.0282579995691776276 -0.0562749989330768585 -0.0188810005784034729 254 75 218
-0.065961003303527832 -0.110141001641750336 -0.0446260012686252594 254 75 218
-0.0788469985127449036 -0.100224003195762634 -0.0556939989328384399 254 75 218
-0.0554369986057281494 -0.110013999044895172 -0.0274919997900724411 254 75 218
