ply
format ascii 1.0
element vertex 99
property float x
property float y
property float z
property uchar red
property uchar green
property uchar blue
end_header
-0.0856079980731010437 -0.0871800035238265991 -0.057193998247385025 111 75 75
-0.0853229984641075134 -0.0795330032706260681 -0.0556240007281303406 111 75 75
-0.095132000744342804 -0.0731559991836547852 -0.0466969981789588928 111 75 75
-0.0943280011415481567 -0.0814710035920143127 -0.0519570000469684601 111 75 75
-0.0921700000762939453 -0.0884969979524612427 -0.0666799992322921753 111 75 75
-0.0954520031809806824 -0.0824220031499862671 -0.0469719991087913513 111 75 75
-0.0862179994583129883 -0.0898599997162818909 -0.059087999165058136 111 75 75
-0.0829970017075538635 -0.0960360020399093628 -0.0584990009665489197 111 75 75
-0.08352699875831604 -0.0634529963135719299 -0.0583250001072883606 111 75 75
-0.0943519994616508484 -0.0795629993081092834 -0.0511830002069473267 111 75 75
-0.0992949977517127991 -0.0637099966406822205 -0.0370829999446868896 111 75 75
-0.0883779972791671753 -0.0966980010271072388 -0.0683280006051063538 111 75 75
-0.084135003387928009 -0.103376001119613647 -0.0717720016837120056 111 75 75
-0.0821209996938705444 -0.104566998779773712 -0.0696030035614967346 111 75 75
-0.0808520019054412842 -0.106285996735095978 -0.0714360028505325317 111 75 75
-0.0934489965438842773 -0.0645930022001266479 -0.0599999986588954926 111 75 75
-0.0939790010452270508 -0.0720100030303001404 -0.0515669994056224823 111 75 75
-0.0932940021157264709 -0.0615679994225502014 -0.0597140006721019745 111 75 75
-0.121604003012180328 -0.0632919967174530029 -0.0910459980368614197 111 75 75
-0.106889002025127411 -0.0620159991085529327 -0.0844430029392242432 111 75 75
-0.09582500159740448 -0.122795000672340393 -0.0602720007300376892 111 75 75
-0.134645000100135803 -0.0621739998459815979 -0.0910840034484863281 111 75 75
-0.0484980009496212006 -0.0467940010130405426 -0.0739620029926300049 111 75 75
-0.125329002737998962 -0.0626560002565383911 -0.0915800034999847412 111 75 75
-0.100748002529144287 -0.0614620000123977661 -0.0349650010466575623 111 75 75
-0.0933829993009567261 -0.0648349970579147339 -0.0542629994451999664 111 75 75
-0.0749170035123825073 -0.109073996543884277 -0.0625009983777999878 111 75 75
-0.0832659974694252014 -0.0811920017004013062 -0.0534450002014636993 111 75 75
-0.0934790000319480896 -0.0626360028982162476 -0.0524730011820793152 111 75 75
-0.0618010014295578003 -0.0461149998009204865 -0.0676330029964447021 111 75 75
-0.0787879973649978638 -0.106036998331546783 -0.0646710023283958435 111 75 75
-0.122700996696949005 -0.0601439997553825378 -0.0912650004029273987 111 75 75
-0.0938360020518302917 -0.0701500028371810913 -0.0521179996430873871 111 75 75
-0.112008996307849884 -0.0602689981460571289 -0.0877500027418136597 111 75 75
-0.0787290036678314209 -0.106875002384185791 -0.0667570009827613831 111 75 75
-0.0481499992311000824 -0.0478110015392303467 -0.0700720027089118958 111 75 75
-0.0946509987115859985 -0.0862630009651184082 -0.0511079989373683929 111 75 75
-0.0911680012941360474 -0.0886849984526634216 -0.0653690025210380554 111 75 75
-0.0877349972724914551 -0.100740000605583191 -0.0742919966578483582 111 75 75
-0.0943979993462562561 -0.091389000415802002 -0.0563540011644363403 111 75 75
-0.0943399965763092041 -0.0896399989724159241 -0.0577609986066818237 111 75 75
-0.0942189991474151611 -0.0708039999008178711 -0.0499899983406066895 111 75 75
-0.080191001296043396 -0.0971859991550445557 -0.0551100000739097595 111 75 75
-0.0565249994397163391 -0.0451200008392333984 -0.0714830011129379272 111 75 75
-0.0488159991800785065 -0.0478280000388622284 -0.0692799985408782959 111 75 75
-0.13435700535774231 -0.0597489997744560242 -0.0911049991846084595 111 75 75
-0.0943450033664703369 -0.0903529971837997437 -0.0571510009467601776 111 75 75
-0.086161002516746521 -0.101382002234458923 -0.0718249976634979248 111 75 75
-0.0937179997563362122 -0.0745050013065338135 -0.055897001177072525 111 75 75
-0.149499997496604919 -0.0594820007681846619 -0.0843669995665550232 111 75 75
-0.0888329967856407166 -0.0965389981865882874 -0.068953000009059906 111 75 75
-0.0872690007090568542 -0.10225600004196167 -0.0775379985570907593 111 75 75
-0.0872799977660179138 -0.0996090024709701538 -0.0707420036196708679 111 75 75
-0.110573001205921173 -0.0621839985251426697 -0.0869150012731552124 111 75 75
-0.116309002041816711 -0.0632620006799697876 -0.089582003653049469 111 75 75
-0.0495349988341331482 -0.0467600002884864807 -0.0724290013313293457 111 75 75
-0.124394997954368591 -0.0620630010962486267 -0.0914689972996711731 111 75 75
-0.096052996814250946 -0.0752120018005371094 -0.0442689992487430573 111 75 75
-0.0862189978361129761 -0.0732790008187294006 -0.0570960007607936859 111 75 75
-0.0895909965038299561 -0.096097998321056366 -0.0697730034589767456 111 75 75
-0.0942410007119178772 -0.0861670002341270447 -0.054843999445438385 111 75 75
-0.0915289968252182007 -0.0835520029067993164 -0.0634400025010108948 111 75 75
-0.0943529978394508362 -0.0703800022602081299 -0.04922499880194664 111 75 75
-0.0864659994840621948 -0.100639998912811279 -0.0709969997406005859 111 75 75
-0.0531460009515285492 -0.0473919995129108429 -0.0672520026564598083 111 75 75
-0.0443920008838176727 -0.0494819991290569305 -0.0685309991240501404 111 75 75
-0.0839639976620674133 -0.0640039965510368347 -0.0583719983696937561 111 75 75
-0.0837780013680458069 -0.067235998809337616 -0.0567689985036849976 111 75 75
-0.0589599981904029846 -0.0441769994795322418 -0.0727569982409477234 111 75 75
-0.0989679992198944092 -0.0620420016348361969 -0.0759309977293014526 111 75 75
-0.147635996341705322 -0.0601270012557506561 -0.0857309997081756592 111 75 75
-0.0286250002682209015 -0.0391220003366470337 -0.0281750001013278961 111 75 75
-0.0520940013229846954 -0.0469200015068054199 -0.069283999502658844 111 75 75
-0.0820489972829818726 -0.105626001954078674 -0.0729089975357055664 111 75 75
-0.0914530009031295776 -0.0825819969177246094 -0.0630450025200843811 111 75 75
-0.0517110005021095276 -0.0448499992489814758 -0.0775030031800270081 111 75 75
-0.0793550014495849609 -0.105768002569675446 -0.0654599964618682861 111 75 75
-0.0868420004844665527 -0.0985760018229484558 -0.0680920034646987915 111 75 75
-0.0646189972758293152 -0.0475430004298686981 -0.0650120005011558533 111 75 75
-0.0948640033602714539 -0.0954789966344833374 -0.0523770004510879517 111 75 75
-0.109848998486995697 -0.0606100000441074371 -0.0865359976887702942 111 75 75
-0.110668003559112549 -0.0625770017504692078 -0.0869619995355606079 111 75 75
-0.0828899964690208435 -0.0628060027956962585 -0.0581770017743110657 111 75 75
-0.0944000035524368286 -0.0835779979825019836 -0.0520920008420944214 111 75 75
-0.0786290019750595093 -0.108483999967575073 -0.0733380019664764404 111 75 75
-0.135711997747421265 -0.0590579994022846222 -0.0908259972929954529 111 75 75
-0.0943249985575675964 -0.0880400016903877258 -0.0590320006012916565 111 75 75
-0.0196589995175600052 -0.17192000150680542 -0.0367209985852241516 111 75 75
-0.0939930006861686707 -0.0748329982161521912 -0.0524419993162155151 111 75 75
-0.0944849997758865356 -0.085069999098777771 -0.0519040003418922424 111 75 75
-0.0979349985718727112 -0.0608149990439414978 -0.0743509978055953979 111 75 75
-0.0934090018272399902 -0.0610590018332004547 -0.0525100007653236389 111 75 75
-0.0617179982364177704 -0.0472760014235973358 -0.0654039978981018066 111 75 75
-0.0488980002701282501 -0.148993998765945435 -0.0294799990952014923 111 75 75
-0.0936660021543502808 -0.0724029988050460815 -0.0550090000033378601 111 75 75
-0.0936269983649253845 -0.0673549994826316833 -0.0528930015861988068 111 75 75
-0.0522320009768009186 -0.0457869991660118103 -0.0729020014405250549 111 75 75
-0.0860209986567497253 -0.0877590030431747437 -0.057886999100446701 111 75 75
-0.0879359990358352661 -0.0822380036115646362 -0.0587790012359619141 111 75 75
