ply
format ascii 1.0
element vertex 422
property float x
property float y
property float z
property uchar red
property uchar green
property uchar blue
end_header
-0.138671994209289551 -0.161537006497383118 -0.0229649990797042847 111 111 183
-0.0957859978079795837 -0.120348997414112091 -0.0533739998936653137 111 111 183
-0.100047998130321503 -0.0699929967522621155 -0.0363829992711544037 111 111 183
-0.115740001201629639 -0.0860290005803108215 -0.0245379991829395294 111 111 183
-0.106546998023986816 -0.125156998634338379 -0.0318749994039535522 111 111 183
-0.112057998776435852 -0.091268002986907959 -0.0265089999884366989 111 111 183
-0.121311001479625702 -0.170601993799209595 -0.0243139993399381638 111 111 183
-0.13007800281047821 -0.128745004534721375 -0.0221710000187158585 111 111 183
-0.10033000260591507 -0.10426899790763855 -0.0382889993488788605 111 111 183
-0.0974999964237213135 -0.150215998291969299 -0.0504020005464553833 111 111 183
-0.151566997170448303 -0.0592040009796619415 -0.0826290026307106018 111 111 183
-0.135739997029304504 -0.158993005752563477 -0.0225409995764493942 111 111 183
-0.101691000163555145 -0.072070002555847168 -0.0343910008668899536 111 111 183
-0.117196999490261078 -0.112655997276306152 -0.0245740003883838654 111 111 183
-0.116037003695964813 -0.0909520015120506287 -0.0245309993624687195 111 111 183
-0.104120001196861267 -0.0634820014238357544 -0.0313749983906745911 111 111 183
-0.165929004549980164 -0.146568000316619873 -0.0427910014986991882 111 111 183
-0.156319007277488708 -0.162303999066352844 -0.0318990014493465424 111 111 183
-0.0964680016040802002 -0.140434995293617249 -0.0552080012857913971 111 111 183
-0.101580001413822174 -0.141665995121002197 -0.0389680005609989166 111 111 183
-0.112411998212337494 -0.136702999472618103 -0.0277100000530481339 111 111 183
-0.131906002759933472 -0.163930997252464294 -0.0223869998008012772 111 111 183
-0.109872996807098389 -0.09743499755859375 -0.0280729997903108597 111 111 183
-0.120039001107215881 -0.111713998019695282 -0.0235610008239746094 111 111 183
-0.104909002780914307 -0.116755999624729156 -0.033135000616312027 111 111 183
-0.102174997329711914 -0.0969109982252120972 -0.0352329984307289124 111 111 183
-0.14892500638961792 -0.166585996747016907 -0.0264999996870756149 111 111 183
-0.10088600218296051 -0.152183994650840759 -0.0410440005362033844 111 111 183
-0.170718997716903687 -0.140468999743461609 -0.0345430001616477966 111 111 183
-0.103013001382350922 -0.0856849998235702515 -0.0336019992828369141 111 111 183
-0.0978389978408813477 -0.153537005186080933 -0.049405999481678009 111 111 183
-0.137917995452880859 -0.135822996497154236 -0.0228569991886615753 111 111 183
-0.110754996538162231 -0.0712909996509552002 -0.0266479998826980591 111 111 183
-0.174233004450798035 -0.145006999373435974 -0.0417240001261234283 111 111 183
-0.146078005433082581 -0.161636993288993835 -0.0251969993114471436 111 111 183
-0.17044299840927124 -0.145636007189750671 -0.0427759997546672821 111 111 183
-0.109035000205039978 -0.0967689976096153259 -0.0286090001463890076 111 111 183
-0.103313997387886047 -0.109546996653079987 -0.0345290005207061768 111 111 183
-0.142344996333122253 -0.150431007146835327 -0.0239090006798505783 111 111 183
-0.167526006698608398 -0.145662993192672729 -0.0423149988055229187 111 111 183
-0.138153001666069031 -0.128791004419326782 -0.0229160003364086151 111 111 183
-0.101138003170490265 -0.105461001396179199 -0.0371630005538463593 111 111 183
-0.108203999698162079 -0.120742000639438629 -0.0301959998905658722 111 111 183
-0.172453999519348145 -0.143992006778717041 -0.0396700017154216766 111 111 183
-0.0962110012769699097 -0.090700000524520874 -0.045662999153137207 111 111 183
-0.112429000437259674 -0.0903789997100830078 -0.0262749996036291122 111 111 183
-0.158591002225875854 -0.168158993124961853 -0.0340179987251758575 111 111 183
-0.161033004522323608 -0.160667002201080322 -0.0374250002205371857 111 111 183
-0.0969389975070953369 -0.152455002069473267 -0.0586990006268024445 111 111 183
-0.160209000110626221 -0.157427996397018433 -0.0364390015602111816 111 111 183
-0.111561998724937439 -0.0866649970412254333 -0.0266500003635883331 111 111 183
-0.160748004913330078 -0.165545001626014709 -0.0367639996111392975 111 111 183
-0.133301004767417908 -0.161131992936134338 -0.0223910007625818253 111 111 183
-0.12431199848651886 -0.138499006628990173 -0.0229380000382661819 111 111 183
-0.101124003529548645 -0.152386993169784546 -0.0406350009143352509 111 111 183
-0.1631460040807724 -0.161754995584487915 -0.0408100001513957977 111 111 183
-0.0971210002899169922 -0.152462005615234375 -0.0611260011792182922 111 111 183
-0.098678000271320343 -0.150043994188308716 -0.0459679998457431793 111 111 183
-0.123106002807617188 -0.124764002859592438 -0.0229759998619556427 111 111 183
-0.128657996654510498 -0.119079999625682831 -0.0221480000764131546 111 111 183
-0.117577001452445984 -0.100164003670215607 -0.0241640005260705948 111 111 183
-0.0982929989695549011 -0.142819002270698547 -0.0461620017886161804 111 111 183
-0.104919001460075378 -0.166776001453399658 -0.035847000777721405 111 111 183
-0.102629996836185455 -0.130028992891311646 -0.0366009995341300964 111 111 183
-0.0956870019435882568 -0.119819000363349915 -0.054028000682592392 111 111 183
-0.0969720035791397095 -0.117816001176834106 -0.0469629988074302673 111 111 183
-0.103661000728607178 -0.0889760032296180725 -0.0330700017511844635 111 111 183
-0.0971599966287612915 -0.148322999477386475 -0.0517090000212192535 111 111 183
-0.124782003462314606 -0.105233997106552124 -0.0223789997398853302 111 111 183
-0.106703996658325195 -0.0984060019254684448 -0.0305410008877515793 111 111 183
-0.105461999773979187 -0.132501006126403809 -0.0333390012383460999 111 111 183
-0.158949002623558044 -0.159338995814323425 -0.0347689986228942871 111 111 183
-0.109780997037887573 -0.172070994973182678 -0.0309740006923675537 111 111 183
-0.112278997898101807 -0.170109003782272339 -0.0289329998195171356 111 111 183
-0.0948819965124130249 -0.103676997125148773 -0.0569519996643066406 111 111 183
-0.168502002954483032 -0.147719994187355042 -0.0470400005578994751 111 111 183
-0.0970899984240531921 -0.101088002324104309 -0.0445059984922409058 111 111 183
-0.144614994525909424 -0.131365999579429626 -0.0248980000615119934 111 111 183
-0.101172998547554016 -0.134946003556251526 -0.0391580015420913696 111 111 183
-0.0982519984245300293 -0.171312004327774048 -0.0511110015213489532 111 111 183
-0.116359002888202667 -0.111024998128414154 -0.0248889997601509094 111 111 183
-0.110746003687381744 -0.162956997752189636 -0.0298350006341934204 111 111 183
-0.117017000913619995 -0.0706489980220794678 -0.0237300004810094833 111 111 183
-0.108661003410816193 -0.167686000466346741 -0.0318129993975162506 111 111 183
-0.11787000298500061 -0.0840580016374588013 -0.0237070005387067795 111 111 183
-0.132137998938560486 -0.150628998875617981 -0.0222929995507001877 111 111 183
-0.118078999221324921 -0.0602900013327598572 -0.0231819991022348404 111 111 183
-0.102269001305103302 -0.108034998178482056 -0.0357640013098716736 111 111 183
-0.101667001843452454 -0.08528900146484375 -0.0351959988474845886 111 111 183
-0.163020998239517212 -0.159280002117156982 -0.0407540015876293182 111 111 183
-0.173412993550300598 -0.138083994388580322 -0.0320810005068778992 111 111 183
-0.0991529971361160278 -0.0989729985594749451 -0.039891999214887619 111 111 183
-0.143739998340606689 -0.147309005260467529 -0.0244219992309808731 111 111 183
-0.0974700003862380981 -0.154780000448226929 -0.0515220016241073608 111 111 183
-0.0984119996428489685 -0.130722001194953918 -0.0444150008261203766 111 111 183
-0.104110002517700195 -0.126014992594718933 -0.0344850011169910431 111 111 183
-0.100336998701095581 -0.0816420018672943115 -0.0367430001497268677 111 111 183
-0.137364000082015991 -0.140323996543884277 -0.0227390006184577942 111 111 183
-0.0977760031819343567 -0.0835679993033409119 -0.0411560013890266418 111 111 183
-0.15926399827003479 -0.16064000129699707 -0.0350879989564418793 111 111 183
-0.133112996816635132 -0.120981000363826752 -0.0221849996596574783 111 111 183
-0.124889999628067017 -0.150360003113746643 -0.0229979995638132095 111 111 183
-0.100505001842975616 -0.115979999303817749 -0.0388359986245632172 111 111 183
-0.099720001220703125 -0.162168994545936584 -0.0445730015635490417 111 111 183
-0.122092001140117645 -0.10249599814414978 -0.0228499993681907654 111 111 183
-0.0987799987196922302 -0.110694997012615204 -0.0415709987282752991 111 111 183
-0.140887007117271423 -0.132709994912147522 -0.0235869996249675751 111 111 183
-0.0993169993162155151 -0.0956199988722801208 -0.0393310002982616425 111 111 183
-0.165132999420166016 -0.164226993918418884 -0.0449859984219074249 111 111 183
-0.117487996816635132 -0.160271003842353821 -0.0256220009177923203 111 111 183
-0.172839000821113586 -0.147084996104240417 -0.0469110012054443359 111 111 183
-0.0955929979681968689 -0.119286999106407166 -0.0552560016512870789 111 111 183
-0.109223999083042145 -0.132370993494987488 -0.0298449993133544922 111 111 183
-0.102122001349925995 -0.141412004828453064 -0.0381340011954307556 111 111 183
-0.169319003820419312 -0.148451000452041626 -0.0499409995973110199 111 111 183
-0.117237001657485962 -0.164980992674827576 -0.0258579999208450317 111 111 183
-0.1005840003490448 -0.129958003759384155 -0.0398100018501281738 111 111 183
-0.0964749976992607117 -0.134857997298240662 -0.0526809990406036377 111 111 183
-0.135295003652572632 -0.159167006611824036 -0.0224879998713731766 111 111 183
-0.111689001321792603 -0.130421996116638184 -0.0279799997806549072 111 111 183
-0.0971210002899169922 -0.156453996896743774 -0.0554459989070892334 111 111 183
-0.112035997211933136 -0.149176999926567078 -0.0283850003033876419 111 111 183
-0.116572000086307526 -0.149648994207382202 -0.0257729999721050262 111 111 183
-0.099881000816822052 -0.107253998517990112 -0.0392530001699924469 111 111 183
-0.0955820009112358093 -0.118713997304439545 -0.0549429990351200104 111 111 183
-0.0970880016684532166 -0.0732619985938072205 -0.0416620001196861267 111 111 183
-0.175260007381439209 -0.142625004053115845 -0.0376549996435642242 111 111 183
-0.0969320014119148254 -0.104024000465869904 -0.0452780015766620636 111 111 183
-0.102935001254081726 -0.159665003418922424 -0.0381570011377334595 111 111 183
-0.100120000541210175 -0.0955979973077774048 -0.0380150005221366882 111 111 183
-0.114306002855300903 -0.0940010026097297668 -0.0254009999334812164 111 111 183
-0.116443000733852386 -0.0670949965715408325 -0.0238649994134902954 111 111 183
-0.117407999932765961 -0.138401001691818237 -0.0251020006835460663 111 111 183
-0.0985110029578208923 -0.141332000494003296 -0.0453960001468658447 111 111 183
-0.157966002821922302 -0.142842993140220642 -0.0339340008795261383 111 111 183
-0.144085004925727844 -0.152902007102966309 -0.0245019998401403427 111 111 183
-0.100172996520996094 -0.168418005108833313 -0.0440809987485408783 111 111 183
-0.124415002763271332 -0.129271999001502991 -0.0227819997817277908 111 111 183
-0.117591999471187592 -0.107919000089168549 -0.0243260003626346588 111 111 183
-0.145275995135307312 -0.164703994989395142 -0.0248399991542100906 111 111 183
-0.0991429984569549561 -0.130926996469497681 -0.0427160002291202545 111 111 183
-0.114193998277187347 -0.155936002731323242 -0.0272220000624656677 111 111 183
-0.101962998509407043 -0.122363001108169556 -0.0370760001242160797 111 111 183
-0.141418993473052979 -0.0598269999027252197 -0.0890630036592483521 111 111 183
-0.143939003348350525 -0.151886999607086182 -0.024457000195980072 111 111 183
-0.0985919982194900513 -0.164499998092651367 -0.0483210012316703796 111 111 183
-0.173636004328727722 -0.142814993858337402 -0.0378400012850761414 111 111 183
-0.0976099967956542969 -0.162826001644134521 -0.0529740005731582642 111 111 183
-0.0992380008101463318 -0.0885860025882720947 -0.0389109998941421509 111 111 183
-0.1031079962849617 -0.136013999581336975 -0.03633899986743927 111 111 183
-0.096308000385761261 -0.121371001005172729 -0.0502500012516975403 111 111 183
-0.107587002217769623 -0.11990000307559967 -0.0306809991598129272 111 111 183
-0.13072599470615387 -0.168960005044937134 -0.0224740002304315567 111 111 183
-0.105053000152111053 -0.112264998257160187 -0.0327499993145465851 111 111 183
-0.115050002932548523 -0.0715029984712600708 -0.0244859997183084488 111 111 183
-0.0974680036306381226 -0.152420997619628906 -0.0510310009121894836 111 111 183
-0.111164003610610962 -0.0903029963374137878 -0.0269799996167421341 111 111 183
-0.10333000123500824 -0.12463100254535675 -0.0353920012712478638 111 111 183
-0.0967399999499320984 -0.121367000043392181 -0.0483260005712509155 111 111 183
-0.0978540033102035522 -0.0688600018620491028 -0.0398060008883476257 111 111 183
-0.120158001780509949 -0.141523003578186035 -0.0241090003401041031 111 111 183
-0.116277001798152924 -0.151738002896308899 -0.02596299909055233 111 111 183
-0.107615001499652863 -0.161475002765655518 -0.0325030013918876648 111 111 183
-0.145486995577812195 -0.167350992560386658 -0.0248949993401765823 111 111 183
-0.103455998003482819 -0.139577001333236694 -0.0361079983413219452 111 111 183
-0.103509001433849335 -0.0924900025129318237 -0.0334130004048347473 111 111 183
-0.160897001624107361 -0.149663999676704407 -0.0378010012209415436 111 111 183
-0.115561999380588531 -0.0859630033373832703 -0.024617999792098999 111 111 183
-0.10699000209569931 -0.0781320035457611084 -0.0294950008392333984 111 111 183
-0.106881998479366302 -0.168387994170188904 -0.0336310006678104401 111 111 183
-0.0997309982776641846 -0.128810003399848938 -0.0412399992346763611 111 111 183
-0.165914997458457947 -0.168584004044532776 -0.0466810017824172974 111 111 183
-0.122519999742507935 -0.140751004219055176 -0.0233880002051591873 111 111 183
-0.1025409996509552 -0.132571995258331299 -0.0369060002267360687 111 111 183
-0.145985007286071777 -0.157594993710517883 -0.0252039991319179535 111 111 183
-0.10468599945306778 -0.0755100026726722717 -0.0313859991729259491 111 111 183
-0.128317996859550476 -0.104800999164581299 -0.0220449995249509811 111 111 183
-0.0973389968276023865 -0.150953993201255798 -0.0513660013675689697 111 111 183
-0.0966740027070045471 -0.0806870013475418091 -0.0432690009474754333 111 111 183
-0.105237998068332672 -0.0763449966907501221 -0.0309139993041753769 111 111 183
-0.132312998175621033 -0.134338006377220154 -0.0222200006246566772 111 111 183
-0.099357999861240387 -0.165234997868537903 -0.0459159985184669495 111 111 183
-0.142000004649162292 -0.168041005730628967 -0.0237230006605386734 111 111 183
-0.101392000913619995 -0.104778997600078583 -0.0367369987070560455 111 111 183
-0.111616998910903931 -0.131017997860908508 -0.0280479993671178818 111 111 183
-0.151604995131492615 -0.153803005814552307 -0.028348999097943306 111 111 183
-0.0984100028872489929 -0.15426500141620636 -0.0474100001156330109 111 111 183
-0.0959820002317428589 -0.120144002139568329 -0.0516549982130527496 111 111 183
-0.169302999973297119 -0.146648004651069641 -0.0450499989092350006 111 111 183
-0.119259998202323914 -0.0808779969811439514 -0.0232219994068145752 111 111 183
-0.125030994415283203 -0.157975003123283386 -0.023081999272108078 111 111 183
-0.123783998191356659 -0.0631780028343200684 -0.0220180004835128784 111 111 183
-0.148797005414962769 -0.148222997784614563 -0.0267280004918575287 111 111 183
-0.121361002326011658 -0.161605998873710632 -0.0241010002791881561 111 111 183
-0.0994239971041679382 -0.149657994508743286 -0.0439039990305900574 111 111 183
-0.115671999752521515 -0.116741999983787537 -0.0253509990870952606 111 111 183
-0.166595995426177979 -0.149183005094528198 -0.0470530018210411072 111 111 183
-0.177162006497383118 -0.147209003567695618 -0.0479450002312660217 111 111 183
-0.0982860028743743896 -0.0989470034837722778 -0.0415199995040893555 111 111 183
-0.0970520004630088806 -0.120420999825000763 -0.0470779985189437866 111 111 183
-0.0947510004043579102 -0.0921629965305328369 -0.0521650016307830811 111 111 183
-0.150277003645896912 -0.141746997833251953 -0.0277219992130994797 111 111 183
-0.0982649996876716614 -0.169175997376441956 -0.05059099942445755 111 111 183
-0.138538002967834473 -0.149445995688438416 -0.0229589994996786118 111 111 183
-0.165953993797302246 -0.145288005471229553 -0.0410530008375644684 111 111 183
-0.150644004344940186 -0.0589979998767375946 -0.0834470018744468689 111 111 183
-0.137108996510505676 -0.130556002259254456 -0.0227049998939037323 111 111 183
-0.122001998126506805 -0.0945980027318000793 -0.022752000018954277 111 111 183
-0.147182002663612366 -0.137957006692886353 -0.025999000295996666 111 111 183
-0.104301996529102325 -0.165042996406555176 -0.036527000367641449 111 111 183
-0.0998530015349388123 -0.1542930006980896 -0.0434090010821819305 111 111 183
-0.132186993956565857 -0.158093005418777466 -0.0223319996148347855 111 111 183
-0.107796996831893921 -0.127678006887435913 -0.0308330003172159195 111 111 183
-0.129024997353553772 -0.168794006109237671 -0.0226029995828866959 111 111 183
-0.155511006712913513 -0.144232004880905151 -0.0317099988460540771 111 111 183
-0.1657399982213974 -0.154161006212234497 -0.0480049997568130493 111 111 183
-0.11278899759054184 -0.0867410004138946533 -0.0259659998118877411 111 111 183
-0.112366996705532074 -0.0804769992828369141 -0.0260179992765188217 111 111 183
-0.095775999128818512 -0.1188960000872612 -0.0529480017721652985 111 111 183
-0.0968199968338012695 -0.12157999724149704 -0.0480760000646114349 111 111 183
-0.160021007061004639 -0.161843001842498779 -0.0359929986298084259 111 111 183
-0.111433997750282288 -0.134966000914573669 -0.0283049996942281723 111 111 183
-0.111413002014160156 -0.0794470012187957764 -0.0265209991484880447 111 111 183
-0.106012001633644104 -0.0696569979190826416 -0.0299360007047653198 111 111 183
-0.149155005812644958 -0.144003003835678101 -0.026994999498128891 111 111 183
-0.0996470004320144653 -0.11419600248336792 -0.040222998708486557 111 111 183
-0.166190996766090393 -0.154585003852844238 -0.0497770011425018311 111 111 183
-0.0967879965901374817 -0.117939002811908722 -0.0476340018212795258 111 111 183
-0.101758003234863281 -0.16887199878692627 -0.0408199988305568695 111 111 183
-0.106035999953746796 -0.0605809986591339111 -0.02956400066614151 111 111 183
-0.10398700088262558 -0.149874001741409302 -0.0360380001366138458 111 111 183
-0.0993240028619766235 -0.145037993788719177 -0.0436719991266727448 111 111 183
-0.0957420021295547485 -0.124434001743793488 -0.0573160015046596527 111 111 183
-0.0981959998607635498 -0.16075800359249115 -0.0491530001163482666 111 111 183
-0.0967490002512931824 -0.128232002258300781 -0.0494990013539791107 111 111 183
-0.111097000539302826 -0.110583998262882233 -0.0277019999921321869 111 111 183
-0.122262999415397644 -0.139413997530937195 -0.0234360005706548691 111 111 183
-0.0963210016489028931 -0.0680140033364295959 -0.0428230017423629761 111 111 183
-0.0974809974431991577 -0.163046002388000488 -0.0605649985373020172 111 111 183
-0.101346999406814575 -0.116177998483181 -0.0375780016183853149 111 111 183
-0.129371002316474915 -0.113785997033119202 -0.022076999768614769 111 111 183
-0.0989309996366500854 -0.158296003937721252 -0.0462529994547367096 111 111 183
-0.106078997254371643 -0.065133996307849884 -0.029706999659538269 111 111 183
-0.0952450037002563477 -0.110564000904560089 -0.0549530014395713806 111 111 183
-0.115336999297142029 -0.169367998838424683 -0.0269789993762969971 111 111 183
-0.158034995198249817 -0.159055992960929871 -0.0337480008602142334 111 111 183
-0.114756003022193909 -0.158084005117416382 -0.0269709993153810501 111 111 183
-0.163628995418548584 -0.160123005509376526 -0.0418529994785785675 111 111 183
-0.10488399863243103 -0.123874999582767487 -0.0335250012576580048 111 111 183
-0.105007998645305634 -0.065191999077796936 -0.0306310001760721207 111 111 183
-0.110143996775150299 -0.0709479972720146179 -0.0269920006394386292 111 111 183
-0.133313000202178955 -0.140989005565643311 -0.0222919993102550507 111 111 183
-0.158959999680519104 -0.159094005823135376 -0.034791998565196991 111 111 183
-0.128849998116493225 -0.12938399612903595 -0.0222239997237920761 111 111 183
-0.11623699963092804 -0.153420001268386841 -0.0260240007191896439 111 111 183
-0.16754700243473053 -0.144255995750427246 -0.0397789999842643738 111 111 183
-0.0976440012454986572 -0.167182996869087219 -0.0605310015380382538 111 111 183
-0.0997209995985031128 -0.155828997492790222 -0.0438410006463527679 111 111 183
-0.140896007418632507 -0.152210995554924011 -0.0234910007566213608 111 111 183
-0.103283002972602844 -0.07675199955701828 -0.0328550003468990326 111 111 183
-0.10116499662399292 -0.0771849974989891052 -0.0353569984436035156 111 111 183
-0.118187002837657928 -0.0998449996113777161 -0.0239320006221532822 111 111 183
-0.101416997611522675 -0.113984003663063049 -0.0373240001499652863 111 111 183
-0.11334499716758728 -0.146700993180274963 -0.0274270009249448776 111 111 183
-0.111790001392364502 -0.132951006293296814 -0.0279980003833770752 111 111 183
-0.132816001772880554 -0.166232004761695862 -0.0223970003426074982 111 111 183
-0.117384001612663269 -0.0853869989514350891 -0.0239140000194311142 111 111 183
-0.145091995596885681 -0.135502994060516357 -0.0250659994781017303 111 111 183
-0.0977640002965927124 -0.17129400372505188 -0.0601469986140727997 111 111 183
-0.102848999202251434 -0.122845999896526337 -0.0358970016241073608 111 111 183
-0.112850002944469452 -0.0822310000658035278 -0.0257990006357431412 111 111 183
-0.16619400680065155 -0.167248994112014771 -0.0478419996798038483 111 111 183
-0.16639399528503418 -0.163160994648933411 -0.0491469986736774445 111 111 183
-0.13663800060749054 -0.157282993197441101 -0.0226440001279115677 111 111 183
-0.110063999891281128 -0.066775001585483551 -0.0269039999693632126 111 111 183
-0.0960360020399093628 -0.129350006580352783 -0.0597160011529922485 111 111 183
-0.141920998692512512 -0.162716001272201538 -0.0237269997596740723 111 111 183
-0.165726006031036377 -0.148132994771003723 -0.0444820001721382141 111 111 183
-0.11250700056552887 -0.122901000082492828 -0.0271910000592470169 111 111 183
-0.0963549986481666565 -0.0979709997773170471 -0.0461339987814426422 111 111 183
-0.122578002512454987 -0.0641530007123947144 -0.0221900008618831635 111 111 183
-0.130327999591827393 -0.122262001037597656 -0.0221090000122785568 111 111 183
-0.0973490029573440552 -0.0842920020222663879 -0.0421519987285137177 111 111 183
-0.174907997250556946 -0.145732000470161438 -0.0434059984982013702 111 111 183
-0.107148997485637665 -0.143981993198394775 -0.0321560017764568329 111 111 183
-0.149060994386672974 -0.167476996779441833 -0.0265619996935129166 111 111 183
-0.116535000503063202 -0.071461997926235199 -0.02392599917948246 111 111 183
-0.119291000068187714 -0.0629710033535957336 -0.0228889994323253632 111 111 183
-0.119281001389026642 -0.0996690019965171814 -0.0235559996217489243 111 111 183
-0.0957340002059936523 -0.119829997420310974 -0.0536330007016658783 111 111 183
-0.160256996750831604 -0.149737998843193054 -0.0369030013680458069 111 111 183
-0.133187994360923767 -0.159162998199462891 -0.0223760008811950684 111 111 183
-0.114868000149726868 -0.13310299813747406 -0.026171000674366951 111 111 183
-0.0963789969682693481 -0.106027998030185699 -0.0472740009427070618 111 111 183
-0.0972810015082359314 -0.161915004253387451 -0.057594001293182373 111 111 183
-0.10093100368976593 -0.0924149975180625916 -0.0365860015153884888 111 111 183
-0.101738996803760529 -0.0859619975090026855 -0.0351440012454986572 111 111 183
-0.164144992828369141 -0.158213004469871521 -0.0431369990110397339 111 111 183
-0.111281000077724457 -0.148653000593185425 -0.028870999813079834 111 111 183
-0.110051997005939484 -0.154413998126983643 -0.0300489999353885651 111 111 183
-0.10897500067949295 -0.14657999575138092 -0.0305920001119375229 111 111 183
-0.119231998920440674 -0.0599850006401538849 -0.0228519998490810394 111 111 183
-0.120826996862888336 -0.094850003719329834 -0.0230340007692575455 111 111 183
-0.151379004120826721 -0.147359997034072876 -0.0283310003578662872 111 111 183
-0.147752001881599426 -0.138089999556541443 -0.026312999427318573 111 111 183
-0.09954100102186203 -0.0721990019083023071 -0.0372919999063014984 111 111 183
-0.0971570014953613281 -0.0973109975457191467 -0.0438789986073970795 111 111 183
-0.116668999195098877 -0.150254994630813599 -0.0257440004497766495 111 111 183
-0.123219996690750122 -0.098999999463558197 -0.0225750003010034561 111 111 183
-0.0983780026435852051 -0.089703001081943512 -0.0405340008437633514 111 111 183
-0.100074000656604767 -0.12399899959564209 -0.0402439981698989868 111 111 183
-0.126516997814178467 -0.0614110007882118225 -0.0217620003968477249 111 111 183
-0.0978040024638175964 -0.171933993697166443 -0.0545540004968643188 111 111 183
-0.124086998403072357 -0.109825000166893005 -0.0225620009005069733 111 111 183
-0.117673002183437347 -0.100492998957633972 -0.0241349991410970688 111 111 183
-0.095673002302646637 -0.117230996489524841 -0.0608780011534690857 111 111 183
-0.104322999715805054 -0.0664430037140846252 -0.0313189998269081116 111 111 183
-0.0958449989557266235 -0.125560998916625977 -0.0587779991328716278 111 111 183
-0.150763005018234253 -0.166982993483543396 -0.0275219995528459549 111 111 183
-0.146337002515792847 -0.147731006145477295 -0.025488000363111496 111 111 183
-0.163102999329566956 -0.154679000377655029 -0.0412390008568763733 111 111 183
-0.15396900475025177 -0.157306000590324402 -0.0300050005316734314 111 111 183
-0.107147000730037689 -0.141946002840995789 -0.0320670008659362793 111 111 183
-0.117798998951911926 -0.0959210023283958435 -0.0239899996668100357 111 111 183
-0.130972996354103088 -0.144117996096611023 -0.0222619995474815369 111 111 183
-0.153916001319885254 -0.167450994253158569 -0.0297079998999834061 111 111 183
-0.154220998287200928 -0.147300004959106445 -0.0304589997977018356 111 111 183
-0.0980810001492500305 -0.139491006731987 -0.0463420003652572632 111 111 183
-0.101090997457504272 -0.141555994749069214 -0.0398310013115406036 111 111 183
-0.10068800300359726 -0.152588993310928345 -0.041437000036239624 111 111 183
-0.135065004229545593 -0.120916999876499176 -0.0223970003426074982 111 111 183
-0.119997002184391022 -0.157021000981330872 -0.0245040003210306168 111 111 183
-0.142021998763084412 -0.146754994988441467 -0.0238359998911619186 111 111 183
-0.102503001689910889 -0.142869994044303894 -0.0376619994640350342 111 111 183
-0.101162999868392944 -0.110129997134208679 -0.0374430008232593536 111 111 183
-0.107235997915267944 -0.128915995359420776 -0.0314060002565383911 111 111 183
-0.116782002151012421 -0.0818250030279159546 -0.0240589994937181473 111 111 183
-0.163499996066093445 -0.150590002536773682 -0.0423050001263618469 111 111 183
-0.111014999449253082 -0.167067006230354309 -0.0297820009291172028 111 111 183
-0.119047001004219055 -0.064758002758026123 -0.0229899995028972626 111 111 183
-0.164871007204055786 -0.164691001176834106 -0.0442330017685890198 111 111 183
-0.0983730033040046692 -0.101283997297286987 -0.0415530018508434296 111 111 183
-0.135294005274772644 -0.127546995878219604 -0.0224350001662969589 111 111 183
-0.103367999196052551 -0.140549004077911377 -0.0362760014832019806 111 111 183
-0.108592003583908081 -0.120388001203536987 -0.029875999316573143 111 111 183
-0.104644998908042908 -0.0985250025987625122 -0.0324920006096363068 111 111 183
-0.109739996492862701 -0.0605060011148452759 -0.0269080009311437607 111 111 183
-0.0965820029377937317 -0.0672480016946792603 -0.0421850010752677917 111 111 183
-0.11278899759054184 -0.0983169972896575928 -0.0263069998472929001 111 111 183
-0.0969460010528564453 -0.152481004595756531 -0.0557060018181800842 111 111 183
-0.162653997540473938 -0.146775007247924805 -0.0397990010678768158 111 111 183
-0.144947007298469543 -0.0616960003972053528 -0.0874110013246536255 111 111 183
-0.0959900021553039551 -0.0922179967164993286 -0.046553000807762146 111 111 183
-0.0966430008411407471 -0.134858995676040649 -0.0628990009427070618 111 111 183
-0.14137500524520874 -0.137863993644714355 -0.0236990004777908325 111 111 183
-0.0965849980711936951 -0.143695995211601257 -0.0587849989533424377 111 111 183
-0.169824004173278809 -0.140092998743057251 -0.0340429991483688354 111 111 183
-0.114592999219894409 -0.090244002640247345 -0.0251729991286993027 111 111 183
-0.106086000800132751 -0.073568001389503479 -0.0300290007144212723 111 111 183
-0.0951559990644454956 -0.107891000807285309 -0.0543950013816356659 111 111 183
-0.104245997965335846 -0.0720459967851638794 -0.0316389985382556915 111 111 183
-0.116765998303890228 -0.0813829973340034485 -0.0240550003945827484 111 111 183
-0.110780999064445496 -0.151947006583213806 -0.0293790008872747421 111 111 183
-0.119508996605873108 -0.0909850001335144043 -0.0233350005000829697 111 111 183
-0.128780007362365723 -0.16131100058555603 -0.0225460007786750793 111 111 183
-0.107483997941017151 -0.0657190009951591492 -0.0286240000277757645 111 111 183
-0.107496000826358795 -0.132958993315696716 -0.0313449986279010773 111 111 183
-0.131154000759124756 -0.112574003636837006 -0.0220640003681182861 111 111 183
-0.135056003928184509 -0.127553001046180725 -0.0224070008844137192 111 111 183
-0.106435999274253845 -0.155515000224113464 -0.0334579981863498688 111 111 183
-0.100619003176689148 -0.0792379975318908691 -0.036168999969959259 111 111 183
-0.144131004810333252 -0.16677500307559967 -0.0243999995291233063 111 111 183
-0.135278999805450439 -0.145694002509117126 -0.0224639996886253357 111 111 183
-0.155277997255325317 -0.15303899347782135 -0.0312290005385875702 111 111 183
-0.102329999208450317 -0.117976002395153046 -0.0362700000405311584 111 111 183
-0.164484992623329163 -0.152953997254371643 -0.0444069989025592804 111 111 183
-0.101309001445770264 -0.119414001703262329 -0.037854999303817749 111 111 183
-0.101962998509407043 -0.0648540034890174866 -0.0336759984493255615 111 111 183
-0.163726001977920532 -0.154477998614311218 -0.0425230003893375397 111 111 183
-0.0963319987058639526 -0.119318999350070953 -0.0496940016746520996 111 111 183
-0.123047001659870148 -0.141718000173568726 -0.0232570003718137741 111 111 183
-0.122013002634048462 -0.0953909978270530701 -0.022761000320315361 111 111 183
-0.0977329984307289124 -0.157333999872207642 -0.0507449992001056671 111 111 183
-0.104088999330997467 -0.0656990036368370056 -0.0315020009875297546 111 111 183
-0.157707005739212036 -0.160412997007369995 -0.0333440005779266357 111 111 183
-0.0998380035161972046 -0.119703002274036407 -0.0403219982981681824 111 111 183
-0.115010999143123627 -0.163433998823165894 -0.026985999196767807 111 111 183
-0.112438000738620758 -0.0703599974513053894 -0.0256789997220039368 111 111 183
-0.0969199985265731812 -0.133676007390022278 -0.0497969985008239746 111 111 183
-0.105387002229690552 -0.142863005399703979 -0.0339469984173774719 111 111 183
-0.134137004613876343 -0.163032993674278259 -0.0224329996854066849 111 111 183
-0.0997359976172447205 -0.16603599488735199 -0.0449859984219074249 111 111 183
-0.0982400029897689819 -0.12421099841594696 -0.0441149994730949402 111 111 183
-0.0976559966802597046 -0.143653005361557007 -0.0484669990837574005 111 111 183
-0.156184002757072449 -0.143151000142097473 -0.0323939993977546692 111 111 183
-0.0987790003418922424 -0.106293000280857086 -0.0411520004272460938 111 111 183
-0.116364002227783203 -0.131560996174812317 -0.0254089999943971634 111 111 183
-0.120135001838207245 -0.127835005521774292 -0.0238259993493556976 111 111 183
-0.0974769964814186096 -0.122922003269195557 -0.0460290014743804932 111 111 183
-0.168579995632171631 -0.141069993376731873 -0.0351670011878013611 111 111 183
-0.17681199312210083 -0.143871992826461792 -0.0397830009460449219 111 111 183
-0.104316003620624542 -0.110904999077320099 -0.0334779992699623108 111 111 183
-0.108442999422550201 -0.151170000433921814 -0.0312809981405735016 111 111 183
-0.114381000399589539 -0.0990350022912025452 -0.0254939999431371689 111 111 183
-0.0962539985775947571 -0.0882930010557174683 -0.0452639982104301453 111 111 183
-0.0975629985332489014 -0.168838992714881897 -0.0575800016522407532 111 111 183
-0.0970909968018531799 -0.153080999851226807 -0.0606629997491836548 111 111 183
-0.100060001015663147 -0.167423993349075317 -0.0442720018327236176 111 111 183
-0.113288998603820801 -0.143855005502700806 -0.0273720007389783859 111 111 183
-0.117186002433300018 -0.148917004466056824 -0.0254720002412796021 111 111 183
-0.103119000792503357 -0.0743430033326148987 -0.0329109989106655121 111 111 183
-0.104032002389431 -0.102816000580787659 -0.0333729982376098633 111 111 183
-0.0957750007510185242 -0.120024003088474274 -0.0607899986207485199 111 111 183
-0.111250996589660645 -0.146557003259658813 -0.0288200005888938904 111 111 183
-0.0973540022969245911 -0.162522003054618835 -0.0588110014796257019 111 111 183
-0.106944002211093903 -0.0751449987292289734 -0.0294160004705190659 111 111 183
-0.166530996561050415 -0.156569004058837891 -0.0510319992899894714 111 111 183
-0.124528996646404266 -0.147918999195098877 -0.0230340007692575455 111 111 183
-0.10025700181722641 -0.14723600447177887 -0.0418610014021396637 111 111 183
-0.0997639968991279602 -0.158845007419586182 -0.0440619997680187225 111 111 183
-0.096781998872756958 -0.125145003199577332 -0.0487499982118606567 111 111 183
-0.0990710034966468811 -0.0962150022387504578 -0.0398180000483989716 111 111 183
